<svg id="a09a5c1e-e149-433f-950b-81b6960ae0e8" data-name="svg2" xmlns="http://www.w3.org/2000/svg" viewBox="0 0 463.89 438.88"><path d="M370.23,386.5142c-7.9725,2.5082-15.945,4.8372-23.6935,6.4944-7.5694,1.7916-14.7805,3.0905-21.051,4.21-6.2705,1.03-11.5108,1.7468-15.1835,2.24-3.7175.4479-5.8674.6718-5.8674.6718l3.7175,26.2913s2.2395-.3583,6.0913-1.075c3.9415-.6718,9.4058-1.702,16.0346-3.18s14.3773-3.3144,22.4841-5.7778c8.1965-2.4187,16.796-5.5091,25.2612-8.8683,4.2549-1.9259,8.5547-3.6279,12.5857-5.9122a96.0644,96.0644,0,0,0,11.9587-6.4944,84.3979,84.3979,0,0,0,10.6151-7.6589,69.8273,69.8273,0,0,0,8.9578-8.3308c2.4187-3.3144,4.7477-6.0466,6.2257-9.4058,1.7468-2.6873,2.7322-6.4944,3.4936-9.3609a11.0867,11.0867,0,0,0,.4927-3.0457V356.64l6.0465.4479s-14.8252-16.5272-34.2637-27.2767c3.3144,8.0621,4.4341,10.9734,5.8226,24.9476l3.9862.3583v.3136c-.1344.6718-.1344,1.7468-.4479,1.8811-.627.8062-.627,1.6124-1.7915,3.404a28.9242,28.9242,0,0,1-4.0311,5.24,65.321,65.321,0,0,1-6.7631,5.6883,71.7125,71.7125,0,0,1-8.8683,5.509,115.2994,115.2994,0,0,1-10.5255,5.0164C377.9785,383.8268,374.0818,385.0361,370.23,386.5142Z"/><path d="M103.2415,386.5142l-7.9277,20.9613s2.1947.7614,5.957,2.2395c3.7175,1.3436,9.137,3.4487,15.6314,5.3747,3.27.94,6.7632,2.2394,10.57,3.09,3.8071.8958,7.7485,1.8364,11.8243,2.8666,4.1206.94,8.42,1.7019,12.765,2.553,4.3893.9853,8.7786,1.7019,13.2576,2.3738s8.8682,1.5228,13.2128,1.9707c4.4341.4479,8.7339.851,12.8993,1.3437,8.3308.8958,16.348,1.2093,23.156,1.702,3.3592.2687,6.27.2687,8.9578.3583,1.12,0,2.15.09,3.1353.1791l-1.03,7.6142,45.9985-27.8141-40.7581-11.2869-.5375,4.0311h-6.2257c-2.5978-.09-5.733,0-8.8683-.1792-6.3153-.3583-13.6159-.3583-21.5436-1.03-7.9725-.6271-16.4376-1.3885-24.8132-2.4187-4.21-.4031-8.42-.8958-12.541-1.6124-4.0758-.7614-8.1516-1.2541-12.0483-1.9707-3.8518-.7614-7.6141-1.5229-11.1973-2.24-3.5831-.7614-6.7631-1.6124-9.8536-2.3738a134.3545,134.3545,0,0,1-14.5565-4.031C105.257,387.1412,103.2415,386.5142,103.2415,386.5142Z"/><path d="M159.3624,288.2914l-1.5228,11.466c1.5228-.3583,3.0008-.627,4.21-.8062,3.6728-.6718,5.8226-.94,5.8226-.94l-1.478-10.7494s-2.2395.3583-6.0465.8062C160.0342,288.1123,159.7207,288.2466,159.3624,288.2914Z"/><path d="M358.2712,296.891l-.1343,1.8363a.1657.1657,0,0,0,.09.1344,73.3994,73.3994,0,0,1,3.9414,10.3015,11.5988,11.5988,0,0,1,.4031,2.8217,31.6645,31.6645,0,0,1,3.8519,1.4333c3.4039,1.254,5.4195,2.1051,5.4195,2.1051l5.0164-13.2129s-2.2395-.6718-5.957-1.7915C367.677,299.5335,363.422,298.19,358.2712,296.891Z"/><path d="M176.7406,91.98c-5.957-5.6883-14.1534-10.7047-22.6186-9.1818.1344.09-.7166.7166-2.105,1.5228l-.4031,2.7321-4.0759,23.9623c5.6883-6.8528,15.0492-13.3024,29.83-18.3636A4.7276,4.7276,0,0,0,176.7406,91.98Z"/><path d="M88.4611,197.4141c4.7924,3.8967,10.57,3.404,12.9888,3.3144-.1343-1.1645-.1791-2.9113-.3583-5.1059-.9853-19.4833-3.0456-75.6042-1.8811-74.0366.627.8062,1.0749,1.5229,1.6124,2.15h0l2.15,41.1613c.7614,13.168,1.5228,24.634,2.06,32.293.4031,6.2257.7166,9.988.7166,10.1224l.1344.8062a35.786,35.786,0,0,0,3.27,8.3308l1.1645,6.2257,1.9707,11.0181,1.9708,10.5255,4.3893.9853,6.6736,48.6859,1.702,12.2722a9.8177,9.8177,0,0,0,4.4341-2.6873c1.6124-1.6124,2.8665-6.5392,2.8665-6.5392l.7614-8.4652,1.7916-20.5135,1.9707,21.7228.6271,7.2559s1.2541,4.9268,2.8665,6.5392a10.6094,10.6094,0,0,0,2.0155,1.6572,8.1213,8.1213,0,0,0,2.4186,1.03l1.6572-12.2722,5.7778-42.1019a18.0148,18.0148,0,0,1-7.0319-10.4807c-.0448-.2239-.1344-.4479-.1791-.6718-3.0009-15.094-8.8235-91.5491-7.3455-110.0471a33.2384,33.2384,0,0,1,3.18-12.3618l-1.8364-21.454.851-3.8967-.9406-2.329-.851-2.1051-4.3.09-.851,1.9707-1.03,2.3738.9406,3.3144-3.3592,33.5023-.2239,1.9708-8.7339-43.4008-1.075-5.4195a3.8872,3.8872,0,0,0-1.4332.0448,52.5979,52.5979,0,0,0-21.1405,8.8235c-7.3007,5.33-12.5858,12.9889-12.9889,23.29-.8958,6.45.1344,58.1364,2.1947,78.4259C88.1476,194.9059,88.3267,196.25,88.4611,197.4141Z"/><path d="M99.4344,205.6106l-9.9432-2.553s.9406,14.3773,5.33,14.87c2.6426.3135,3.4936-1.478,3.4936-4.4341,0-3.0009,1.3437-2.7322,1.3437-.7615s2.8217,7.3007,2.5082,3.2249C101.7187,211.7467,101.3156,205.79,99.4344,205.6106Z"/><path d="M112.6025,81.5c6.4944-2.7322,8.286-3.4488,8.286-3.4488a115.0264,115.0264,0,0,1-2.9561-21.678c2.7321,9.7193,7.1215,18.14,12.8545,22.0811a12.7806,12.7806,0,0,0,6.4944,2.3738,13.2991,13.2991,0,0,0,8.6-2.7769c6.0465-4.3893,10.1223-13.75,11.5556-24.858a102.4942,102.4942,0,0,1-1.6572,24.9028s1.7019.7166,8.2412,3.4488c12.8993,5.4195,15.497-5.4643,15.497-5.4643s-13.4367,2.9561-9.764-17.3334c1.702-9.6745,2.0155-19.0355-4.882-34.2638C158.601,10.5536,145.6121,9.3,137.5948,9.9713l-.4031-.1344a38.1286,38.1286,0,0,1,5.4643-2.4634s-11.7347-.9405-21.5436,5.7778a27.7183,27.7183,0,0,0-5.4195,4.8821,9.8224,9.8224,0,0,1-1.478,1.03s.3135-.0448.7166-.09a29.53,29.53,0,0,0-3.3144,5.4643c-7.1215,15.1388-6.6288,24.5893-4.882,34.2638,3.7175,20.29-9.7641,17.3334-9.7641,17.3334S99.7032,86.8744,112.6025,81.5Z"/><path d="M143.3279,313.3734c.4479,2.1947,1.3436,5.6434,2.15,6.2257,1.12.8062,6.8976,2.6873,5.9122-.8062a69.8212,69.8212,0,0,0-3.3144-8.5995,11.177,11.177,0,0,1-3.8519-2.9561,20.8408,20.8408,0,0,1-4.5685-8.9131,38.7946,38.7946,0,0,0,.851,14.4221c1.9708,7.7038,1.2093,4.0759,1.2093,4.0759l1.2541-4.9716A5.8837,5.8837,0,0,1,143.3279,313.3734Z"/><path d="M133.25,312.6568a38.7951,38.7951,0,0,0,.851-14.4222c-2.6874,9.8984-8.3308,11.9139-8.3308,11.9139a69.8358,69.8358,0,0,0-3.3144,8.6c-.9854,3.5383,4.7924,1.6124,5.9122.8062,1.12-.7614,2.4186-7.7933,2.4186-7.7933l1.2541,4.9715S131.3243,320.4053,133.25,312.6568Z"/><path d="M323.56,81.2757l-1.03-5.4195a5.1213,5.1213,0,0,0-1.4333,0A52.4127,52.4127,0,0,0,300.0005,84.68a34.43,34.43,0,0,0-5.1955,4.6581c13.5711,4.7924,26.47,12.5858,34.622,20.5134Z"/><path d="M355.27,75.8114c.1343.1344-.7166.7615-2.06,1.5229l-.5375,2.7321-7.5246,45.058-3.09-35.3387.8062-3.8967-.9406-2.329-.8062-2.06-4.3446.0448-.8062,1.9707-.9405,2.3738.8958,3.3144-2.5082,25.0372a20.7977,20.7977,0,0,1,3.8518,7.0319,10.0125,10.0125,0,0,1,.4479,1.6572c2.2395,11.5108-5.0164,85.6817-8.6891,111.3012-.4031,2.9561-.7614,5.2851-1.03,6.7631a18.0172,18.0172,0,0,1-6.36,10.4807l4.8372,35.4283,1.7468,12.3618a11.9169,11.9169,0,0,0,4.4789-2.6874c1.4781-1.702,2.8666-6.5392,2.8666-6.5392l.6718-8.51,1.8363-20.5135,1.926,21.6332.6718,7.3454s1.2541,4.8373,2.8665,6.5392a10.7929,10.7929,0,0,0,2.06,1.6124,13.4192,13.4192,0,0,0,2.4187,1.075l1.5676-12.3618,6.7184-48.91,2.7321-.6719,1.9259-11.5556,2.553-16.0345.224-1.4333c3.18-2.6425,3.18-3.8518,3.9414-7.1214l.09-.7167c0-.1791.4031-6.0017.9853-15.2283.224-3.7623.6271-8.0621.8958-12.8545l2.777-54.15a1.4271,1.4271,0,0,1,.1343-.4031c.5823-1.12,1.075-2.15,1.702-3.1352,1.6124-2.4634.7614,49.4921,0,68.4379-.09,2.2395-.1343,3.9862-.2239,5.1956,2.2394,1.2093,6.27,0,11.0629-2.5082.1344-1.2989.4031-3.0009.5375-4.8373,2.3738-20.9613,5.33-73.1407,1.2989-83.6662-.4479-1.9707-3.8967-7.39-9.0474-12.2722C371.7976,79.35,363.6459,74.2886,355.27,75.8114Z"/><path d="M374.5745,200.46c0-1.9707,1.3885-2.2395,1.3885.7166s.8062,4.7029,3.4935,4.4342c4.3446-.5375,5.24-14.8253,5.24-14.8253l-9.9432,2.5082c-1.702.2688-2.2843,6.1362-2.6426,10.3911C371.7976,207.8052,374.5745,202.3857,374.5745,200.46Z"/><path d="M313.7508,74.5126c6.4944-2.777,8.286-3.404,8.286-3.404a116.114,116.114,0,0,1-2.8665-21.678c2.6425,9.6745,6.9871,18.14,12.7649,22.0811a12.4275,12.4275,0,0,0,6.584,2.4186,13.3329,13.3329,0,0,0,8.5995-2.8217c6.0018-4.3894,10.1224-13.75,11.5556-24.8132a103.7672,103.7672,0,0,1-1.7019,24.9028s1.7468.6718,8.286,3.4039c12.8993,5.42,15.497-5.4642,15.497-5.4642s-13.4367,3.0008-9.764-17.3335c1.7915-9.6744,2.0155-19.0354-4.7925-34.2637C359.9732,3.6113,346.8052,2.3572,338.8327,3.029c-.0895-.0448-.3135-.09-.4031-.1344A34.0747,34.0747,0,0,1,343.76.4312S332.2487-.5094,322.44,6.209a31.0218,31.0218,0,0,0-5.5539,4.882,5.4293,5.4293,0,0,1-1.3884.9406s.3135,0,.8062-.0448a28.45,28.45,0,0,0-3.4488,5.4643c-7.1663,15.094-6.6288,24.5445-4.8372,34.2638,3.6727,20.29-9.8537,17.3334-9.8537,17.3334S300.8067,79.9768,313.7508,74.5126Z"/><path d="M344.4314,306.3863c.4927,2.2394,1.2989,5.733,2.06,6.27,1.2093.7166,7.0319,2.6873,6.0017-.8958a68.8853,68.8853,0,0,0-3.3591-8.6443,11.3454,11.3454,0,0,1-3.8071-2.8666,19.3062,19.3062,0,0,1-4.5685-8.8682,39.0573,39.0573,0,0,0,.8062,14.3773c1.9707,7.6142,1.2093,3.9415,1.2093,3.9415l1.2093-4.9269A4.7082,4.7082,0,0,1,344.4314,306.3863Z"/><path d="M334.4434,305.7592a40.248,40.248,0,0,0,.8062-14.3773c-2.7321,9.8984-8.42,11.78-8.42,11.78a67.23,67.23,0,0,0-3.3144,8.6444c-.94,3.5831,4.7925,1.6124,5.8674.8957,1.12-.7166,2.5082-7.9277,2.5082-7.9277l1.1645,4.9269C333.1445,309.6559,332.4727,313.3734,334.4434,305.7592Z"/><path d="M295.97,263.3439a11.3451,11.3451,0,0,0,1.9707-4.1654c0-.1344.09-.2688.09-.4031,0-2.15,1.7468-2.4187,2.06.2239,0,.2239.1343.4031.1343.7166,0,3.5832,1.3885,5.6883,5.6883,5.42,3.09-.3135,5.0611-3.7623,6.36-7.5694a9.2325,9.2325,0,0,0,.5375-1.5676,56.3116,56.3116,0,0,0,1.6124-8.7339L298.3433,250.31c-3.0457.3135-3.8519,7.3454-4.3446,12.4962C293.64,265.3146,294.76,264.7771,295.97,263.3439Z"/><path d="M175.7552,260.0294a5.941,5.941,0,0,1,.1792-1.0749c.4479-2.24,1.9707-1.9707,1.9707.1344,0,.1343.09.3135.09.4031a5.2488,5.2488,0,0,0,.4031,1.478c1.2093,2.6426,4.031,6.0018,3.5831,2.0155-.4926-5.106-1.2988-12.2274-4.3-12.541l-16.1689-2.956a50.7577,50.7577,0,0,0,1.6572,8.7786c.1343.4032.2687.851.4479,1.2541,1.2541,3.9415,3.3144,7.5694,6.4944,7.7934C174.3668,265.7625,175.7552,263.6126,175.7552,260.0294Z"/><path d="M180.8612,244.6668c-1.2989-13.6608-5.6434-102.2986-3.5383-100.2383,1.03.9406,1.7915,1.7916,2.6873,2.5082h0l3.3592,49.716c2.2843,29.0682,4.5237,50.97,4.5685,51.2837l.09.9853a41.0745,41.0745,0,0,0,5.3747,10.0328l8.3308,110.54,22.8873-.3583,10.3463-86.3536a12.752,12.752,0,0,0,1.8811.1792c.8958,0,1.7916-.1792,2.777-.2688L250.6428,369.45h21.9915l8.2412-109.0169a43.9285,43.9285,0,0,0,5.733-11.6452l.09-.851c0-.3135,1.4781-13.9294,3.09-33.8606l4.4789-65.4371a1.3656,1.3656,0,0,1,.3135-.4478,46.6764,46.6764,0,0,1,2.7322-3.8071c2.8665-3.3592.9853,86.13-.3136,99.7008,3.5832,1.5228,10.2568,0,17.7814-3.0009,3.9414-19.6177,12.0483-110.4054,10.4806-118.8258-1.6124-5.24-33.2336-28.262-58.6738-24.7684a14.5538,14.5538,0,0,1-3.404,1.8364L250.15,157.0591,245.1786,114.33l1.3437-4.7028-2.9113-5.3747-6.9872.09-3.0456,5.2852,1.5676,3.9862-5.5091,40.4447-.3135,2.329L213.3335,97.4a12.4641,12.4641,0,0,0-2.2395,0c-25.7538,3.5832-57.8229,12.6306-58.6739,30.4567-1.5676,8.3308,3.628,93.1615,7.5694,112.69C167.6036,245.3834,177.0093,244.8011,180.8612,244.6668Z"/><path d="M203.48,39.577c-1.702,0-3.0905,5.6434-3.0905,12.5858s1.4333,12.5409,3.0905,12.5409c.7614,0,1.478-1.2093,1.9707-3.1352,5.4643,21.1853,23.8278,36.9063,34.0846,36.9063,12.72,0,30.3223-14.6909,32.8753-38.2948.5374,2.4186,1.4332,3.9415,2.2842,3.9415,1.6124,0,3.0009-5.5987,3.0009-12.541s-1.3885-12.5858-3.0009-12.5858a1.0788,1.0788,0,0,0-.8958.6271,55.0622,55.0622,0,0,0-.3583-10.66c-5.7778,4.7029-16.6616-1.5228-28.4859-7.211,1.478.627,2.8665,1.2541,4.255,1.9707,19.5728,10.0776,27.3661-9.45,27.3661-9.45s-24.007-26.56-62.7048-6.5392c-3.404,1.702-8.1965,6.4048-12.3171,8.3308,0,0,3.27-.2688,8.3308-.2688-4.21,2.6874-6.4944,8.1517-5.4195,17.7365a34.62,34.62,0,0,0-.627,6.181C203.7037,39.6666,203.6141,39.577,203.48,39.577Z"/><path d="M202.3152,373.3909s-1.1645.7614-2.7769,1.7916c-5.4195,3.7175-15.721,11.7795-4.3446,12.6753,8.6891.6719,14.0638-2.6873,19.17-6.36,2.6426-2.0155,1.7468.1792,2.6426.1792.9406-.1343,3.7175-.1343,4.3445-.4927a23.3724,23.3724,0,0,0,.8062-5.6434,4.59,4.59,0,0,0-.1791-1.6124l.3135-.5822h-19.976Z"/><path d="M253.5541,381.1842c.5822.4032,3.3592.4032,4.3445.4927.8958,0,0-2.2394,2.6426-.1792,5.0612,3.6728,10.3463,7.032,19.08,6.36,11.5108-.8958.9854-9.0474-4.3446-12.7649-1.5228-1.075-2.5977-1.702-2.5977-1.702h-19.976l.3135.5823a6.5556,6.5556,0,0,0-.1791,1.8363A19.3888,19.3888,0,0,0,253.5541,381.1842Z"/><path d="M73.815,381.1842c-4.3893-9.6744-6.0017-13.0336-8.51-29.9639l-6.0914-.3136a1.5231,1.5231,0,0,0,.0448-.4479c.09-.627.09-1.7468.3583-1.9707.5375-.8958.3136-1.7916,1.4333-3.7175.6718-1.7916,2.2842-3.5831,3.7623-5.6882a59.7909,59.7909,0,0,1,6.584-6.2705,66.8,66.8,0,0,1,8.6891-6.3153c3.3144-1.9259,6.7184-4.031,10.3911-5.8226,3.6279-1.8811,7.5246-3.404,11.3764-5.106,4.21-1.8363,8.51-3.3144,12.765-4.7924.9405-2.5082,1.8811-4.4342,2.0155-4.8821.1344-.09.1344-.1343.2239-.1343l-1.2093-8.8683c-6.2257,1.4781-12.4962,3.3144-18.8562,5.5091-4.1654,1.6572-8.51,2.9561-12.6306,4.882-4.1206,1.7916-8.1068,3.8519-12.0035,5.7778-3.8071,2.2843-7.5246,4.21-10.839,6.8528a83.5284,83.5284,0,0,0-9.137,7.9277c-2.5082,2.9561-4.882,5.5986-6.5392,8.6891-1.7916,2.5978-2.9113,6.4049-3.7175,9.137a10.213,10.213,0,0,0-.6718,2.8665,13.645,13.645,0,0,1-.2688,1.702l-10.2119-.4031C30.8622,349.8318,49.7632,369.0912,73.815,381.1842Z"/><path d="M317.5131,295.189l-.8958-6.1809c-3.2249-.4927-6.3153-.9854-9.5849-1.3437a1.68,1.68,0,0,1-.4479-.0448l-1.5229-.8958-.0895.7166c-3.628-.4031-7.3007-.7614-10.75-1.03l-.6718,9.1818c3.404.5375,6.8976,1.12,10.3463,1.6572l-.2239,2.3738s1.5676-.5375,5.24-1.478c2.8665.4479,5.733.94,8.5995,1.5228.1344-.3583.4031-.7166.4031-.8062l.1344-.1343-.4031-2.5082a5.2733,5.2733,0,0,0,1.12-.1792Z"/></svg>