<svg id="f5828286-2804-4aa5-ab49-ca93e99f068d" data-name=" 1" xmlns="http://www.w3.org/2000/svg" viewBox="0 0 128 128">
    <path d="M98,101l12.8-6.8L75.6,80.4l13,37.4L95.2,104l13.4,14.4a2.3,2.3,0,0,0,1.6.6,2.2,2.2,0,0,0,1.4-3.6Zm-5-2.2L89.2,107,82.4,87.6l18.4,7.2Z" />
    <path d="M118.2,9.4a1.7,1.7,0,0,0-1.8-.2L81,21.6,47.4,13.2h-.8l-36,8.6a2,2,0,0,0-1.6,2v91a2.1,2.1,0,0,0,.8,1.6,1.4,1.4,0,0,0,1.2.4h.4L47,108.4l33.6,6.4h.6l-15.8-45L83,76.6h0l36,14V11.2A2.5,2.5,0,0,0,118.2,9.4Zm-52.6,56a3.5,3.5,0,0,0-3,1.4,4.2,4.2,0,0,0-.8,4.4L75,109.4l-26-4.8V18l30,7.4v45L66.8,65.8Z" />
</svg>