<svg id="e1d5bb15-08be-40f9-9372-89552104bc9c" data-name="Layer 1" xmlns="http://www.w3.org/2000/svg" viewBox="0 0 702 702"><path d="M556.7839,247.3266l-204.587-129.93L147.61,247.3266V602h82.2736V475.14a5.9763,5.9763,0,0,1,5.9762-5.9763h110.361a5.9762,5.9762,0,0,1,5.9762,5.9763V602h204.587V247.3266ZM384.6567,264.5215h45.4642a4.35,4.35,0,0,1,4.35,4.35v39.1314a4.35,4.35,0,0,1-4.35,4.35H384.6567a4.35,4.35,0,0,1-4.35-4.35V268.8711A4.35,4.35,0,0,1,384.6567,264.5215Zm0,60.3029h45.4642a4.35,4.35,0,0,1,4.35,4.35v51.4827a4.35,4.35,0,0,1-4.35,4.35H384.6567a4.35,4.35,0,0,1-4.35-4.35V329.174A4.35,4.35,0,0,1,384.6567,324.8244Zm113.6142,60.1819H452.8066a4.35,4.35,0,0,1-4.35-4.35V329.174a4.35,4.35,0,0,1,4.35-4.35h45.4643a4.35,4.35,0,0,1,4.35,4.35v51.4827A4.35,4.35,0,0,1,498.2709,385.0063Zm0-72.6542H452.8066a4.35,4.35,0,0,1-4.35-4.35V268.8711a4.35,4.35,0,0,1,4.35-4.35h45.4643a4.35,4.35,0,0,1,4.35,4.35v39.1314A4.35,4.35,0,0,1,498.2709,312.3521Z"/><path d="M515.6471,163.5963V75.5736A15.5735,15.5735,0,0,0,500.0736,60H450.0441a15.5736,15.5736,0,0,0-15.5736,15.5736v41.4839a2.2647,2.2647,0,0,1-3.4678,1.9188L353.41,70.3266a2.2647,2.2647,0,0,0-2.42.009L5.8251,290.3137c-6.4448,3.8749-7.5418,11.5035-3.291,17.1948,2.194,3.8749,6.4448,4.7225,10.8327,4.7225a21.5011,21.5011,0,0,0,7.3794-1.8665,2.2261,2.2261,0,0,0,.3159-.1687L349.8874,100.8529a2.2577,2.2577,0,0,1,2.429.0028l328.9749,209.559c6.4448,3.8748,15.2206,1.9374,18.3744-2.9062a10.8246,10.8246,0,0,0-3.2909-16.2261L524.1194,179.2157A18.634,18.634,0,0,1,515.6471,163.5963Z"/><rect x="80" y="617" width="542" height="34"/></svg>