<svg id="afe62d48-741f-48d0-9432-a6a7f36af744" data-name="Layer 1" xmlns="http://www.w3.org/2000/svg" viewBox="0 0 702 702"><path d="M589.399,53.0006H201.91a49.7235,49.7235,0,0,0-49.667,49.6669V509.864l-69.3547-.02A29.9249,29.9249,0,0,0,53,539.7326V589.4a59.66,59.66,0,0,0,59.6,59.6H490.0662c.07,0,.1292-.04.1991-.04a59.5227,59.5227,0,0,0,59.4008-59.56V192.1558h69.4444a29.9254,29.9254,0,0,0,29.89-29.89V112.6005A59.6613,59.6613,0,0,0,589.399,53.0006ZM291.4,112.6005h119.2a9.9329,9.9329,0,0,1,0,19.8658H291.4a9.9329,9.9329,0,1,1,0-19.8658Zm-69.5328,59.6H480.1333a9.933,9.933,0,0,1,0,19.8659H221.8667a9.933,9.933,0,0,1,0-19.8659Zm0,59.6H480.1333a9.933,9.933,0,0,1,0,19.8659H221.8667a9.933,9.933,0,0,1,0-19.8659ZM112.6,629.1324A39.7727,39.7727,0,0,1,72.867,589.4v-49.667A10.0305,10.0305,0,0,1,82.88,529.71l347.586.09v59.6c0,.7147.1688,1.391.1991,2.0953.07,1.1128.1792,2.2152.3073,3.3175a59.3024,59.3024,0,0,0,14.7114,34.32ZM400.6664,490.0668a109.3129,109.3129,0,0,1-97.2072-59.6H221.8667a9.9329,9.9329,0,0,1,0-19.8658h73.7654a108.9046,108.9046,0,0,1-4.2314-29.8c0-3.3571.2084-6.6549.5064-9.9329h-70.04a9.9329,9.9329,0,0,1,0-19.8658h73.7654a109.2185,109.2185,0,0,1,20.81-39.7329H221.8667a9.9329,9.9329,0,0,1,0-19.8658h116.17a109.2189,109.2189,0,1,1,62.63,198.6631ZM629.1319,162.2674A10.0326,10.0326,0,0,1,619.1093,172.29H549.665V112.6005a39.7329,39.7329,0,1,1,79.4657,0v49.6669Z"/><path d="M400.6664,291.3966a89.4,89.4,0,1,0,89.4,89.4A89.5028,89.5028,0,0,0,400.6664,291.3966Zm57.9306,55.18-59.6,89.4a9.9323,9.9323,0,0,1-7.2812,4.3711c-.3376.03-.6553.05-.9836.05a9.8978,9.8978,0,0,1-7.0228-2.91l-39.7328-39.7329a9.9317,9.9317,0,0,1,14.0455-14.0456L389.1935,414.88l52.8751-79.318a9.9311,9.9311,0,1,1,16.5284,11.0144Z"/></svg>