<svg id="ab861cea-6885-4c42-84d4-0ce0c37cc81f" data-name="aeeddd7d-01b1-489c-818b-885022bf978a" xmlns="http://www.w3.org/2000/svg" viewBox="0 0 940.2 940.2"><path d="M416.7,655.2a223.5,223.5,0,0,1,40.7-129.1H199.1a24.3,24.3,0,1,1,0-48.6H503.5a226.9,226.9,0,0,1,192.2-41.8V51.4A51.5,51.5,0,0,0,644.2,0H276.8V17a48.9,48.9,0,0,1,.3,5.4V163.1a72.5,72.5,0,0,1-72.5,72.3H63.8l-4.5-.2h-18V773.1a51.4,51.4,0,0,0,51.5,51.3H493.3A225.3,225.3,0,0,1,416.7,655.2ZM199.1,345.9H558.7a24.3,24.3,0,1,1,0,48.5H199.1a24.3,24.3,0,1,1,0-48.5Zm179.7,304H199a24.3,24.3,0,0,1,0-48.6H378.8a24.3,24.3,0,1,1,0,48.6Z"/><path d="M63.8,206.3H204.6a43.2,43.2,0,0,0,43.3-43.2V22.4A21.7,21.7,0,0,0,226.2.8h-.1A20.9,20.9,0,0,0,211,7.2L48.4,169.4C34.8,183,44.4,206.3,63.8,206.3Z"/><path d="M826.2,786.9l-10.5-10.4L805.2,766a195,195,0,0,0,34.3-110.9c0-79.2-47.1-147.6-114.8-178.7-4.7-2.2-9.6-4.2-14.6-6s-9.6-3.3-14.5-4.7a197.9,197.9,0,0,0-52.9-7.2C534,458.6,445.9,546.7,446,655.3a196.6,196.6,0,0,0,96.6,169,201.1,201.1,0,0,0,30.3,14.6,196.8,196.8,0,0,0,70,12.8,188.5,188.5,0,0,0,23.7-1.5,193.9,193.9,0,0,0,87.2-32.9l10.4,10.6,10.4,10.4,63.9,63.8A36.4,36.4,0,0,0,890,850.6ZM642.8,531.4a124.3,124.3,0,0,1,52.9,11.9,128,128,0,0,1,14.5,8.1,133.5,133.5,0,0,1,14.6,11.1,123.1,123.1,0,0,1,0,185.4A105.9,105.9,0,0,1,710.2,759a128,128,0,0,1-14.5,8.1,123.8,123.8,0,1,1-52.9-235.7Z"/></svg>