<svg id="ab0d8a64-a584-48ef-afb2-8435428662e9" data-name="ae7bdac7-c39e-4722-9668-d3600eef1390" xmlns="http://www.w3.org/2000/svg" viewBox="0 0 463.89 438.88"><defs><style>.a8d8470a-0aee-4aea-b7d0-0e5dfd780b99{fill-rule:evenodd;}</style></defs><path class="a8d8470a-0aee-4aea-b7d0-0e5dfd780b99" d="M225.7412,278.2133h11.0045l.07-58.4624H225.794Zm-20.442-34.6349h11.0221l.1761-31.7822h-11.04Zm41.553-.2377h11.04l-.1761-31.5445H246.6937ZM208.9175,76.292a22.1989,22.1989,0,1,0,22.1882-22.1989A22.1772,22.1772,0,0,0,208.9175,76.292Zm33.2715,47.1231a11.0834,11.0834,0,1,0-11.0833,11.0941A11.0622,11.0622,0,0,0,242.189,123.4151Zm-87.4224,96.3358c-5.8456-53.5617,21.2343-74.8291,32.3444-86.1485l-.0352-.1646C184.8045,117.8941,174.8916,51.1112,231.1466,0c57.2057,51.3307,47.9443,117.3272,45.673,133.6024,11.11,11.3194,38.278,32.5868,32.4324,86.1485-8.8035-20.3531-25.6712-33.5012-45.0919-37.9266-1.55,3.95-5.2294,12.9287-6.92,16.586l-49.3881.1646c-1.7607-3.7122-6.0393-12.9287-7.6767-17.0066C182.1282,185.061,166.5106,194.04,154.7666,219.7509Zm87.8743,108.6045V438.88l134.8507-61.1323V332.6893l-86.9879,38.6946ZM86.3984,331.83v45.9178L221.12,438.8251V329.1417l-46.7221,43.6137Zm34.8-91.6162c-13.0633-23.4253-8.3072-54.1834-.6672-73.165L37.89,203.33l48.5084,38.786L37.89,287.503l131.9884,62.3027,51.2415-47.82v-.75L103.83,248.3513Zm256.2937,1.9018L426,289.4962,294.9585,348.745l-52.3176-46.9967v-.0732l117.44-53.3239-17.7763-8.32c14.2254-23.0961,8.8451-53.708.4519-72.8358L426,204.0975l-49.0034,37.78Z"/></svg>