<svg id="fbb6cd2f-09e4-45db-b590-e7ce44b97447" data-name="Layer 1" xmlns="http://www.w3.org/2000/svg" viewBox="0 0 512 512">
    <path d="M467.9,349.1H21.8v30.4H156.2L129.6,505.7l29.8,6.3,15.5-74.1h65.9v74h30.4v-74h65.9L352.6,512l29.8-6.3L355.8,379.5H490.2V349.1ZM240.8,407.5H181.3l5.9-28h53.6Zm30.4,0v-28h53.6l5.9,28Z" />
    <path d="M44.1,101.9V318.7H467.9V101.9ZM175.2,219.5H139.9V134.2h35.3Zm65.6,0H205.6V134.2h35.2Zm131.3,66.8H271.2V249.9H372.1Zm0-66.8H271.2V134.2H372.1Z" />
    <polygon points="467.9 41 271.2 41 271.2 0 240.8 0 240.8 41 44.1 41 21.8 41 21.8 71.5 44.1 71.5 44.1 71.5 467.9 71.5 467.9 71.5 490.2 71.5 490.2 41 467.9 41" />
</svg>