<svg xmlns="http://www.w3.org/2000/svg" viewBox="0 0 529.62 392.42"><defs><style>.cls-1{fill:#d99938;}.cls-2{fill:#606060;}</style></defs><g id="Layer_2" data-name="Layer 2"><g id="Layer_1-2" data-name="Layer 1"><path class="cls-1" d="M301.26,341.75l14.9,40.13a2.9,2.9,0,0,0,2.73,2.06,2.58,2.58,0,0,0,2.58-2.8V351.71c0-6.49,3.69-10.85,11-10.85,6.64,0,9.89,3.54,11.8,9.22l12.1,31.8a2.9,2.9,0,0,0,2.73,2.06,2.53,2.53,0,0,0,2.51-2.8V341.75h8.78v39.76c0,6.56-3.69,10.91-11.07,10.91-6.64,0-9.81-3.54-11.73-9.22l-12.09-31.79a3,3,0,0,0-2.81-2.14c-1.47,0-2.5,1.11-2.5,2.88v29.36c0,6.56-3.69,10.91-11.07,10.91-6.64,0-9.81-3.54-11.73-9.22L292,341.75Z"/><path class="cls-1" d="M384.24,391.54h-9.59l17.48-44.26c1.85-4.65,5.24-6.42,10.48-6.42s8.55,1.77,10.32,6.42l16.82,44.26h-9.66L405,351.49a2.39,2.39,0,0,0-2.44-1.7,2.53,2.53,0,0,0-2.51,1.7Z"/><path class="cls-1" d="M464,341.75c11.22,0,16,6.93,16,14.9,0,6.2-3,12.83-10.55,15L481,391.54h-9.66L460,372.29H447a1.1,1.1,0,0,0-1.26,1.25v18h-8.7v-19.7c0-5.6,2.36-7.89,7.82-7.89h19.4c4.94,0,6.93-3.39,6.93-6.93s-2.14-6.57-6.93-6.57H437v-8.7Z"/><path class="cls-1" d="M529.55,341.75v8.7H504.61c-5.23,0-7.52,2.44-7.52,6.27,0,4.06,2.58,5.9,7.6,5.9h24.49v7.9H504.47c-5,0-7.6,2-7.6,6.05,0,3.9,2.43,6.26,7.52,6.26h25.23v8.71H504.39c-11.8,0-16.59-5.83-16.59-13.57,0-5.68,2.58-9.52,7.15-11.44-4.65-1.91-7-5.75-7-11.21,0-8,4.95-13.57,16.67-13.57Z"/><path class="cls-2" d="M26,341.75c11.73,0,16.67,5.53,16.67,13.65,0,5.75-2.51,9.22-7.16,11.06,4.72,1.92,7.38,5.61,7.38,11.36,0,8-4.94,13.72-16.67,13.72H4.13c-2.8,0-4.13-1.33-4.13-4.06V345.81c0-2.73,1.33-4.06,4.13-4.06Zm-17.48,21h17.7c5.16,0,7.67-1.92,7.67-6s-2.29-6.49-7.6-6.49H9.52c-.59,0-1,.29-1,.88Zm0,19.33c0,.59.37.81,1,.81h17c5.24,0,7.67-2.44,7.67-6.49,0-4.21-2.58-6.42-7.67-6.42H8.56Z"/><path class="cls-2" d="M79.88,341.75c11.21,0,16,6.93,16,14.9,0,6.2-3,12.83-10.55,15l11.58,19.92H87.26L75.9,372.29h-13a1.1,1.1,0,0,0-1.26,1.25v18H53v-19.7c0-5.6,2.36-7.89,7.82-7.89h19.4c4.94,0,6.93-3.39,6.93-6.93s-2.14-6.57-6.93-6.57H52.88v-8.7Z"/><path class="cls-2" d="M110.64,391.54h-9.59l17.48-44.26c1.84-4.65,5.24-6.42,10.47-6.42s8.56,1.77,10.33,6.42l16.82,44.26h-9.66l-15.13-40.05a2.37,2.37,0,0,0-2.43-1.7,2.53,2.53,0,0,0-2.51,1.7Z"/><path class="cls-2" d="M172.23,341.75V362h25.44V341.75h8.78v49.79h-8.78v-20.8H172.23v20.8h-8.71V341.75Z"/><path class="cls-2" d="M227.1,391.54h-8.7V351.71c0-6.49,3.61-10.85,11.06-10.85,6.64,0,9.81,3.54,11.66,9.22l12.09,31.8a3,3,0,0,0,2.81,2.06,2.58,2.58,0,0,0,2.58-2.8V351.71c0-6.49,3.61-10.85,11-10.85,6.64,0,9.81,3.54,11.8,9.22l15.42,41.46h-9.37l-14.83-40.13a3.05,3.05,0,0,0-2.8-2.14c-1.48,0-2.51,1.11-2.51,2.88v29.36c0,6.56-3.76,10.91-11.06,10.91-6.57,0-9.81-3.54-11.73-9.22l-12.1-31.79a3,3,0,0,0-2.73-2.14,2.57,2.57,0,0,0-2.58,2.88Z"/><path class="cls-1" d="M264.81,294.42a74.8,74.8,0,1,1,74.8-74.8A74.88,74.88,0,0,1,264.81,294.42Zm0-144.91a70.11,70.11,0,1,0,70.11,70.11A70.19,70.19,0,0,0,264.81,149.51Z"/><path class="cls-1" d="M264.81,222.94a74.8,74.8,0,1,1,74.8-74.8A74.88,74.88,0,0,1,264.81,222.94Zm0-144.91a70.11,70.11,0,1,0,70.11,70.11A70.19,70.19,0,0,0,264.81,78Z"/><path class="cls-1" d="M264.81,149.61a74.81,74.81,0,1,1,74.8-74.81A74.89,74.89,0,0,1,264.81,149.61Zm0-144.92A70.11,70.11,0,1,0,334.92,74.8,70.19,70.19,0,0,0,264.81,4.69Z"/><path class="cls-1" d="M327.59,186a74.8,74.8,0,1,1,74.8-74.8A74.89,74.89,0,0,1,327.59,186Zm0-144.91a70.11,70.11,0,1,0,70.11,70.11A70.19,70.19,0,0,0,327.59,41.07Z"/><path class="cls-1" d="M327,259.32a74.81,74.81,0,1,1,74.8-74.8A74.88,74.88,0,0,1,327,259.32Zm0-144.91a70.11,70.11,0,1,0,70.11,70.11A70.19,70.19,0,0,0,327,114.41Z"/><path class="cls-1" d="M202.62,185.4a74.81,74.81,0,1,1,74.8-74.81A74.89,74.89,0,0,1,202.62,185.4Zm0-144.92a70.11,70.11,0,1,0,70.11,70.11A70.19,70.19,0,0,0,202.62,40.48Z"/><path class="cls-1" d="M202,258.73a74.8,74.8,0,1,1,74.81-74.8A74.89,74.89,0,0,1,202,258.73Zm0-144.91a70.11,70.11,0,1,0,70.11,70.11A70.19,70.19,0,0,0,202,113.82Z"/><path class="cls-1" d="M265.4,144.57c-21.71-35.21,0-65.71,0-65.71"/><path class="cls-1" d="M263.61,217.27c22.08-35,.71-65.71.71-65.71"/><path class="cls-1" d="M267.83,145.63c19.9-36.27,57.14-32.45,57.14-32.45"/><path class="cls-1" d="M324.65,182.12c-19-36.72-56.8-33.05-56.8-33.05"/><path class="cls-1" d="M261,149.56C241.11,185.82,203.88,182,203.88,182"/><path class="cls-1" d="M204.67,112.62c19.24,36.62,57,32.74,57,32.74"/></g></g></svg>