<svg id="f9570e03-2501-4eff-8b00-404cff3f1927" data-name="a89ebc40-ac2f-4f02-b768-88d325812d0f" xmlns="http://www.w3.org/2000/svg" viewBox="0 0 529.62 392.43"><defs><style>.b81cdd74-156b-48eb-8d96-33125aba69e9{fill:#d99938;}.efd1f78f-0347-41a5-8ee4-9674f665926f{fill:#fff;}</style></defs><g id="bfd49397-65d6-4b88-948f-cf77d58c452d" data-name="ba6a6599-9103-4591-ba47-8c26a1a6c94e"><g id="f6d80fd8-30e8-41dd-abfb-579d71718f3d" data-name="b930eba3-1597-4cbe-98a7-a17b6bea276a"><g id="a0187dbe-9c0d-42b2-bb58-1acbbd172b30" data-name="af45e26e-cf8a-4a91-8e74-c43970ee9d7a"><path class="b81cdd74-156b-48eb-8d96-33125aba69e9" d="M301.26,341.76l14.9,40.13a2.9,2.9,0,0,0,2.73,2.06,2.58,2.58,0,0,0,2.5894-2.5706h0q0-.1149-.0094-.2294V351.72c0-6.49,3.69-10.85,11-10.85,6.64,0,9.89,3.54,11.8,9.22l12.1,31.8a2.9,2.9,0,0,0,2.73,2.06,2.53,2.53,0,0,0,2.51-2.8V341.76h8.78v39.76c0,6.56-3.69,10.91-11.07,10.91-6.64,0-9.81-3.54-11.73-9.22L335.5,351.42a3,3,0,0,0-2.81-2.14c-1.47,0-2.5,1.11-2.5,2.88v29.36c0,6.56-3.69,10.91-11.07,10.91-6.64,0-9.81-3.54-11.73-9.22L292,341.76Z"/><path class="b81cdd74-156b-48eb-8d96-33125aba69e9" d="M384.24,391.55h-9.59l17.48-44.26c1.85-4.65,5.24-6.42,10.48-6.42s8.55,1.77,10.32,6.42l16.82,44.26h-9.66L405,351.5a2.39,2.39,0,0,0-2.44-1.7,2.53,2.53,0,0,0-2.51,1.7Z"/><path class="b81cdd74-156b-48eb-8d96-33125aba69e9" d="M464,341.76c11.22,0,16,6.93,16,14.9,0,6.2-3,12.83-10.55,15L481,391.55h-9.66L460,372.3H447a1.1,1.1,0,0,0-1.26,1.25v18h-8.7v-19.7c0-5.6,2.36-7.89,7.82-7.89h19.4c4.94,0,6.93-3.39,6.93-6.93s-2.14-6.57-6.93-6.57H437v-8.7Z"/><path class="b81cdd74-156b-48eb-8d96-33125aba69e9" d="M529.55,341.76v8.7H504.61c-5.23,0-7.52,2.44-7.52,6.27,0,4.06,2.58,5.9,7.6,5.9h24.49v7.9H504.47c-5,0-7.6,2-7.6,6.05,0,3.9,2.43,6.26,7.52,6.26h25.23v8.71H504.39c-11.8,0-16.59-5.83-16.59-13.57,0-5.68,2.58-9.52,7.15-11.44-4.65-1.91-7-5.75-7-11.21,0-8,4.95-13.57,16.67-13.57Z"/></g><g id="b8f96ff6-97d5-485b-88c2-010076c06631" data-name="a0926b88-e12b-4758-9a32-44e675d6a71d"><path class="efd1f78f-0347-41a5-8ee4-9674f665926f" d="M26,341.76c11.73,0,16.67,5.53,16.67,13.65,0,5.75-2.51,9.22-7.16,11.06,4.72,1.92,7.38,5.61,7.38,11.36,0,8-4.94,13.72-16.67,13.72H4.13c-2.8,0-4.13-1.33-4.13-4.06V345.82c0-2.73,1.33-4.06,4.13-4.06Zm-17.48,21h17.7c5.16,0,7.67-1.92,7.67-6s-2.29-6.49-7.6-6.49H9.52c-.59,0-1,.29-1,.88Zm0,19.33c0,.59.37.81,1,.81h17c5.24,0,7.67-2.44,7.67-6.49,0-4.21-2.58-6.42-7.67-6.42H8.56Z"/><path class="efd1f78f-0347-41a5-8ee4-9674f665926f" d="M79.88,341.76c11.21,0,16,6.93,16,14.9,0,6.2-3,12.83-10.55,15l11.58,19.92H87.26L75.9,372.3h-13a1.1,1.1,0,0,0-1.26,1.25v18H53v-19.7c0-5.6,2.36-7.89,7.82-7.89h19.4c4.94,0,6.93-3.39,6.93-6.93s-2.14-6.57-6.93-6.57H52.88v-8.7Z"/><path class="efd1f78f-0347-41a5-8ee4-9674f665926f" d="M110.64,391.55h-9.59l17.48-44.26c1.84-4.65,5.24-6.42,10.47-6.42s8.56,1.77,10.33,6.42l16.82,44.26h-9.66L131.36,351.5a2.37,2.37,0,0,0-2.43-1.7,2.53,2.53,0,0,0-2.51,1.7Z"/><path class="efd1f78f-0347-41a5-8ee4-9674f665926f" d="M172.23,341.76v20.25h25.44V341.76h8.78v49.79h-8.78v-20.8H172.23v20.8h-8.71V341.76Z"/><path class="efd1f78f-0347-41a5-8ee4-9674f665926f" d="M227.1,391.55h-8.7V351.72c0-6.49,3.61-10.85,11.06-10.85,6.64,0,9.81,3.54,11.66,9.22l12.09,31.8a3,3,0,0,0,2.81,2.06,2.58,2.58,0,0,0,2.5894-2.5706h0q0-.1149-.0094-.2294V351.72c0-6.49,3.61-10.85,11-10.85,6.64,0,9.81,3.54,11.8,9.22l15.42,41.46h-9.37l-14.83-40.13a3.05,3.05,0,0,0-2.8-2.14c-1.48,0-2.51,1.11-2.51,2.88v29.36c0,6.56-3.76,10.91-11.06,10.91-6.57,0-9.81-3.54-11.73-9.22l-12.1-31.79a3,3,0,0,0-2.73-2.14,2.57,2.57,0,0,0-2.58,2.88Z"/></g><g id="b0f9856d-27e4-4797-81b3-fdcdef4f9bca" data-name="e3194fc4-bd3b-43e2-b23a-361a9612fcf0"><path class="b81cdd74-156b-48eb-8d96-33125aba69e9" d="M264.81,294.43a74.8,74.8,0,1,1,74.8-74.8h0A74.88,74.88,0,0,1,264.81,294.43Zm0-144.91a70.11,70.11,0,1,0,70.11,70.11h0A70.19,70.19,0,0,0,264.81,149.52Z"/><path class="b81cdd74-156b-48eb-8d96-33125aba69e9" d="M264.81,222.95a74.8,74.8,0,1,1,74.8-74.8h0A74.88,74.88,0,0,1,264.81,222.95Zm0-144.91a70.11,70.11,0,1,0,70.11,70.11h0a70.19,70.19,0,0,0-70.11-70.14Z"/><path class="b81cdd74-156b-48eb-8d96-33125aba69e9" d="M264.81,149.62a74.81,74.81,0,1,1,74.8-74.82h0v.01A74.89,74.89,0,0,1,264.81,149.62Zm0-144.92a70.11,70.11,0,1,0,70.11,70.11A70.11,70.11,0,0,0,264.81,4.7Z"/><path class="b81cdd74-156b-48eb-8d96-33125aba69e9" d="M327.59,186.01a74.8,74.8,0,1,1,74.8-74.8,74.8,74.8,0,0,1-74.8,74.8Zm-70.12-74.275a70.12,70.12,0,1,0,0-.02Z"/><path class="b81cdd74-156b-48eb-8d96-33125aba69e9" d="M327,259.33a74.81,74.81,0,1,1,74.8-74.82v.02A74.88,74.88,0,0,1,327,259.33Zm0-144.91a70.11,70.11,0,1,0,70.11,70.11h0A70.19,70.19,0,0,0,327,114.42Z"/><path class="b81cdd74-156b-48eb-8d96-33125aba69e9" d="M202.62,185.41a74.81,74.81,0,1,1,74.8-74.82h0v.01A74.89,74.89,0,0,1,202.62,185.41Zm0-144.92a70.11,70.11,0,1,0,70.11,70.11h0A70.19,70.19,0,0,0,202.62,40.49Z"/><path class="b81cdd74-156b-48eb-8d96-33125aba69e9" d="M202,258.74a74.805,74.805,0,1,1,.01,0Zm0-144.91a70.11,70.11,0,1,0,70.11,70.11h0A70.19,70.19,0,0,0,202,113.83Z"/><path class="b81cdd74-156b-48eb-8d96-33125aba69e9" d="M265.4,144.58c-21.71-35.21,0-65.71,0-65.71"/><path class="b81cdd74-156b-48eb-8d96-33125aba69e9" d="M263.61,217.28c22.08-35,.71-65.71.71-65.71"/><path class="b81cdd74-156b-48eb-8d96-33125aba69e9" d="M267.83,145.64c19.9-36.27,57.14-32.45,57.14-32.45"/><path class="b81cdd74-156b-48eb-8d96-33125aba69e9" d="M324.65,182.13c-19-36.72-56.8-33.05-56.8-33.05"/><path class="b81cdd74-156b-48eb-8d96-33125aba69e9" d="M261,149.57c-19.89,36.26-57.12,32.44-57.12,32.44"/><path class="b81cdd74-156b-48eb-8d96-33125aba69e9" d="M204.67,112.63c19.24,36.62,57,32.74,57,32.74"/></g></g></g></svg>