<svg xmlns="http://www.w3.org/2000/svg" viewBox="0 0 718.04 69.9"><defs><style>.cls-1{fill:#d99938;}.cls-2{fill:#606060;}</style></defs><g id="Layer_2" data-name="Layer 2"><g id="Layer_1-2" data-name="Layer 1"><path class="cls-1" d="M408.44,1.2l20.2,54.4a3.93,3.93,0,0,0,3.7,2.8,3.5,3.5,0,0,0,3.5-3.8V14.7c0-8.8,5-14.7,14.9-14.7,9,0,13.4,4.8,16,12.5l16.41,43.1a3.93,3.93,0,0,0,3.7,2.8c2,0,3.4-1.5,3.4-3.8V1.2h11.9V55.1c0,8.9-5,14.8-15,14.8-9,0-13.31-4.8-15.91-12.5l-16.4-43.1a4.05,4.05,0,0,0-3.8-2.9c-2,0-3.4,1.5-3.4,3.9V55.1c0,8.9-5,14.8-15,14.8-9,0-13.3-4.8-15.9-12.5L395.84,1.2Z"/><path class="cls-1" d="M520.94,68.7h-13l23.7-60c2.5-6.3,7.1-8.7,14.2-8.7s11.6,2.4,14,8.7l22.8,60h-13.1L549,14.4a3.21,3.21,0,0,0-3.3-2.3,3.41,3.41,0,0,0-3.4,2.3Z"/><path class="cls-1" d="M629,1.2c15.2,0,21.7,9.4,21.7,20.2,0,8.4-4,17.4-14.3,20.3l15.7,27H639l-15.4-26.1H606a1.49,1.49,0,0,0-1.7,1.7V68.7h-11.8V42c0-7.6,3.2-10.7,10.6-10.7h26.3c6.7,0,9.4-4.6,9.4-9.4s-2.9-8.9-9.4-8.9h-37V1.2Z"/><path class="cls-1" d="M717.94,1.2V13h-33.8c-7.1,0-10.2,3.3-10.2,8.5,0,5.5,3.5,8,10.3,8h33.2V40.2h-33.5c-6.8,0-10.3,2.7-10.3,8.2,0,5.3,3.3,8.5,10.2,8.5H718V68.7h-34.2c-16,0-22.5-7.9-22.5-18.4,0-7.7,3.5-12.9,9.7-15.5-6.3-2.6-9.5-7.8-9.5-15.2,0-10.8,6.7-18.4,22.6-18.4Z"/><path class="cls-2" d="M35.3,1.2c15.9,0,22.6,7.5,22.6,18.5,0,7.8-3.4,12.5-9.7,15,6.4,2.6,10,7.6,10,15.4,0,10.8-6.7,18.6-22.6,18.6H5.6C1.8,68.7,0,66.9,0,63.2V6.7C0,3,1.8,1.2,5.6,1.2ZM11.6,29.7h24c7,0,10.4-2.6,10.4-8.1,0-5.3-3.1-8.8-10.3-8.8H12.9c-.8,0-1.3.4-1.3,1.2Zm0,26.2c0,.8.5,1.1,1.3,1.1h23c7.1,0,10.4-3.3,10.4-8.8,0-5.7-3.5-8.7-10.4-8.7H11.6Z"/><path class="cls-2" d="M108.3,1.2c15.2,0,21.7,9.4,21.7,20.2,0,8.4-4,17.4-14.3,20.3l15.7,27H118.3L102.9,42.6H85.3a1.49,1.49,0,0,0-1.7,1.7V68.7H71.8V42c0-7.6,3.2-10.7,10.6-10.7h26.3c6.7,0,9.4-4.6,9.4-9.4s-2.9-8.9-9.4-8.9h-37V1.2Z"/><path class="cls-2" d="M150,68.7H137l23.7-60c2.5-6.3,7.1-8.7,14.2-8.7s11.6,2.4,14,8.7l22.8,60H198.6L178.1,14.4a3.21,3.21,0,0,0-3.3-2.3,3.41,3.41,0,0,0-3.4,2.3Z"/><path class="cls-2" d="M233.5,1.2V28.7H268V1.2h11.9V68.7H268V40.5H233.5V68.7H221.7V1.2Z"/><path class="cls-2" d="M307.9,68.7H296.1v-54c0-8.8,4.9-14.7,15-14.7,9,0,13.3,4.8,15.8,12.5l16.4,43.1a4.05,4.05,0,0,0,3.8,2.8,3.5,3.5,0,0,0,3.5-3.8V14.7c0-8.8,4.9-14.7,14.9-14.7,9,0,13.3,4.8,16,12.5l20.9,56.2H389.7L369.6,14.3a4.15,4.15,0,0,0-3.8-2.9c-2,0-3.4,1.5-3.4,3.9V55.1c0,8.9-5.1,14.8-15,14.8-8.9,0-13.3-4.8-15.9-12.5L315.1,14.3a4.13,4.13,0,0,0-3.7-2.9c-2.1,0-3.5,1.5-3.5,3.9Z"/></g></g></svg>