<svg id="Layer_1" data-name="Layer 1" xmlns="http://www.w3.org/2000/svg" viewBox="0 0 181.8 181.9"><defs><style>.cls-1{fill:#606060;}.cls-2{fill:#d99938;}</style></defs><path class="cls-1" d="M61.9,181.8c-2,.2-2.9-1.2-3.8-2.6-3.1-5.5-6.3-11-9.2-16.5-1.3-2.4-2.6-2.9-5.1-2-5,1.7-10.2,2.9-15.3,4.4-1.8.5-3.6,1.1-5-.7s-.5-3.4.3-5.1c5-10.7,10-21.3,15.1-31.9.8-1.8.8-5.1,3.5-4.6s7.1.3,9.5,3.4a6.2,6.2,0,0,1,1.1,1.7c5.4,10.8,14,16,27.1,14.8C74.9,155.2,69.9,167.1,65,179c-.6,1.5-1.3,2.7-3.1,2.8Z"/><path class="cls-1" d="M153.5,54.9a16.5,16.5,0,0,1-4.4-14.2c1.5-11.4-4.2-19.4-15.6-21.6a14,14,0,0,1-10.4-7.5C116.8,0,108.8-2.7,97.1,2.8c-4.3,2-8.3,2.1-12.4-.1S78.6-.2,75.1,0c-7,.4-12.4,3.6-15.5,10a16,16,0,0,1-12.4,9.4c-10.2,2-16,10.3-14.5,20.5a17.8,17.8,0,0,1-4.8,15.5c-7.2,8-7.2,17.9,0,25.6a17.8,17.8,0,0,1,4.8,15.5C31.2,106.7,37,115,47.1,117c5.7,1.1,9.5,3.8,12.2,9,5.4,10.1,14.5,13,24.8,8a14.2,14.2,0,0,1,13.3-.1c11.1,5.2,19.6,2.3,25.4-8.5a15.1,15.1,0,0,1,11.1-8.2c11.2-2.3,16.7-10.1,15.2-21.4-.7-5.5.5-10,4.3-14.1C161.3,73,161.3,63.6,153.5,54.9ZM90.9,110.4A42.2,42.2,0,1,1,91.5,26c23.1.2,41.7,19.3,41.5,42.8A42,42,0,0,1,90.9,110.4Z"/><path class="cls-1" d="M116.5,178.4l-14.7-35.7c13.3,1.3,22-4.3,27.5-15.5.9-1.9,9.2-5.5,10.8-4.7a4.5,4.5,0,0,1,1.7,2.3c5.5,11.6,10.9,23.1,16.3,34.7.9,1.7,1.6,3.4.1,5.1s-3.3.9-5,.4c-5-1.4-10-2.6-14.9-4.2-2.6-.9-4-.6-5.4,2-2.8,5.5-6,10.7-9.1,16.1-.8,1.4-1.6,2.9-3.6,2.9s-3-1.7-3.7-3.4Z"/><path class="cls-1" d="M153.5,54.9a16.5,16.5,0,0,1-4.4-14.2c1.5-11.4-4.2-19.4-15.6-21.6a14,14,0,0,1-10.4-7.5C116.8,0,108.8-2.7,97.1,2.8c-4.3,2-8.3,2.1-12.4-.1S78.6-.2,75.1,0c-7,.4-12.4,3.6-15.5,10a16,16,0,0,1-12.4,9.4c-10.2,2-16,10.3-14.5,20.5a17.8,17.8,0,0,1-4.8,15.5c-7.2,8-7.2,17.9,0,25.6a17.8,17.8,0,0,1,4.8,15.5C31.2,106.7,37,115,47.1,117c5.7,1.1,9.5,3.8,12.2,9,5.4,10.1,14.5,13,24.8,8a14.2,14.2,0,0,1,13.3-.1c11.1,5.2,19.6,2.3,25.4-8.5a15.1,15.1,0,0,1,11.1-8.2c11.2-2.3,16.7-10.1,15.2-21.4-.7-5.5.5-10,4.3-14.1C161.3,73,161.3,63.6,153.5,54.9ZM90.9,110.4A42.2,42.2,0,1,1,91.5,26c23.1.2,41.7,19.3,41.5,42.8A42,42,0,0,1,90.9,110.4Z"/><path class="cls-1" d="M80.1,142.7C74.9,155.2,69.9,167.1,65,179c-.6,1.5-1.3,2.7-3.1,2.8s-2.9-1.2-3.8-2.6c-3.1-5.5-6.3-11-9.2-16.5-1.3-2.4-2.6-2.9-5.1-2-5,1.7-10.2,2.9-15.3,4.4-1.8.5-3.6,1.1-5-.7s-.5-3.4.3-5.1c5-10.7,10-21.3,15.1-31.9.8-1.8.8-5.1,3.5-4.6s7.1.3,9.5,3.4a6.2,6.2,0,0,1,1.1,1.7c5.4,10.8,14,16,27.1,14.8Z"/><path class="cls-1" d="M158.2,164.6c-1.4,1.7-3.3.9-5,.4-5-1.4-10-2.6-14.9-4.2-2.6-.9-4-.6-5.4,2-2.8,5.5-6,10.7-9.1,16.1-.8,1.4-1.6,2.9-3.6,2.9s-3-1.7-3.7-3.4l-14.7-35.7c13.3,1.3,22-4.3,27.5-15.5.9-1.9,9.2-5.5,10.8-4.7a4.5,4.5,0,0,1,1.7,2.3c5.5,11.6,10.9,23.1,16.3,34.7.9,1.7,1.6,3.4.1,5.1Z"/><path class="cls-2" d="M93.9,37.4l6.9,14.1a3.1,3.1,0,0,0,2.5,1.8l15.6,2.3a3.3,3.3,0,0,1,1.8,5.6l-11.2,11a3.3,3.3,0,0,0-1,2.9l2.7,15.5a3.4,3.4,0,0,1-4.9,3.5L92.4,86.8a3.2,3.2,0,0,0-3,0L75.5,94.1a3.4,3.4,0,0,1-4.9-3.5l2.7-15.5a3.3,3.3,0,0,0-1-2.9l-11.2-11a3.3,3.3,0,0,1,1.8-5.6l15.6-2.3A3.1,3.1,0,0,0,81,51.5l6.9-14.1A3.4,3.4,0,0,1,93.9,37.4Z"/></svg>