<svg id="Layer_1" data-name="Layer 1" xmlns="http://www.w3.org/2000/svg" viewBox="0 0 203.5 203.5"><defs><style>.cls-1{fill:#fefefe;}.cls-2{fill:#d99938;}.cls-3{fill:#606060;}</style></defs><g id="b"><g id="c"><path class="cls-1" d="M37.6,37a36.7,36.7,0,1,1,0,.1Z"/><path class="cls-1" d="M89.8,124.1c-.1,8.5-.2,17.1.1,25.6,0,3.2-1,3.8-3.9,3.8H19.1c-4.4,0-6-1.7-5.9-6,.2-7.9,0-15.7.1-23.6.4-20,13.5-36.1,32.9-40.9a11.4,11.4,0,0,1,7.7.6c12.6,5.7,25.6,6.1,38.4.8,5.3-2.2,9.8-1.9,14.8,0a38,38,0,0,1,17.8,12.4c-5.7,3.9-12,5.5-18.4,6.9-10.6,2.3-16.6,9.5-16.7,20.4Z"/><path class="cls-1" d="M189.9,137.7c0-3.9-.2-7.8.1-11.7.3-5.5-2.1-8.3-7.4-9.2-12.1-2-22.8-6.9-31.3-16-2.8-3-5.8-3.4-8.7-.3-8.8,9.3-19.8,14.4-32.2,16.5-4.5.7-6.3,3.2-6.2,7.8.2,7.1.3,14.2,0,21.4-.4,11.7,3.6,21.9,10.6,31.2s17.6,18.1,28.4,24.8c2.3,1.4,4.5,1.8,7,.3,23.7-15.2,42.9-33.1,39.7-64.8Zm-22,6.2C161,151,153.8,158,146.8,165c-1.5,1.5-3.1,2.4-4.2,2.3-5.4,0-19.4-14.2-19.3-18.6a7.1,7.1,0,0,1,10.1-5.9,11.3,11.3,0,0,1,1.8,1.2c2.3,1.9,4.1,6,6.5,5.6s4.8-4,7.1-6.2l9.4-9.4c3.1-3,6.6-3.5,10-.6s2.9,7.2-.3,10.5Z"/><path class="cls-2" d="M189.9,137.7c0-3.9-.2-7.8.1-11.7.3-5.5-2.1-8.3-7.4-9.2-12.1-2-22.8-6.9-31.3-16-2.8-3-5.8-3.4-8.7-.3-8.8,9.3-19.8,14.4-32.2,16.5-4.5.7-6.3,3.2-6.2,7.8.2,7.1.3,14.2,0,21.4-.4,11.7,3.6,21.9,10.6,31.2s17.6,18.1,28.4,24.8c2.3,1.4,4.5,1.8,7,.3,23.7-15.2,42.9-33.1,39.7-64.8Zm-22,6.2C161,151,153.8,158,146.8,165c-1.5,1.5-3.1,2.4-4.2,2.3-5.4,0-19.4-14.2-19.3-18.6a7.1,7.1,0,0,1,10.1-5.9,11.3,11.3,0,0,1,1.8,1.2c2.3,1.9,4.1,6,6.5,5.6s4.8-4,7.1-6.2l9.4-9.4c3.1-3,6.6-3.5,10-.6s2.9,7.2-.3,10.5Z"/><path class="cls-3" d="M124.9,96.8c-5.7,3.9-12,5.5-18.4,6.9-10.6,2.3-16.6,9.5-16.7,20.4-.1,8.5-.2,17.1.1,25.6,0,3.2-1,3.8-3.9,3.8H19.1c-4.4,0-6-1.7-5.9-6,.2-7.9,0-15.7.1-23.6.4-20,13.5-36.1,32.9-40.9a11.4,11.4,0,0,1,7.7.6c12.6,5.7,25.6,6.1,38.4.8,5.3-2.2,9.8-1.9,14.8,0a38,38,0,0,1,17.8,12.4Z"/><path class="cls-3" d="M111.2,36.6A36.8,36.8,0,1,1,74.5,0,36.9,36.9,0,0,1,111.2,36.6Z"/></g></g></svg>