<svg id="Layer_1" data-name="Layer 1" xmlns="http://www.w3.org/2000/svg" viewBox="0 0 176.4 176.4"><defs><style>.cls-1{fill:#fdfdfd;}.cls-2{fill:#1a323e;}.cls-3{fill:#606060;}.cls-4{fill:#fefefe;}.cls-5{fill:#fbfdfc;}.cls-6{fill:#82959f;}.cls-7{fill:#d99938;}</style></defs><g id="b"><g id="c"><path class="cls-1" d="M56.1,40.7c.1.3.1.5.2.8A.5.5,0,0,0,56.1,40.7Zm46.2-1a13.9,13.9,0,0,0-4.5-4.2c-1.1-.6-2.4-1.7-3.5-.7s0,2.2.4,3.2a34.9,34.9,0,0,0,1.5,3.4A109.1,109.1,0,0,1,104,62a52.5,52.5,0,0,0,1.7,5.2c.2.6.5,1.5,1.3,1.5s1.3-.9,1.5-1.6a18,18,0,0,0,.9-6.5,37.3,37.3,0,0,0-7.1-20.9Zm0,0a13.9,13.9,0,0,0-4.5-4.2c-1.1-.6-2.4-1.7-3.5-.7s0,2.2.4,3.2a34.9,34.9,0,0,0,1.5,3.4A109.1,109.1,0,0,1,104,62a52.5,52.5,0,0,0,1.7,5.2c.2.6.5,1.5,1.3,1.5s1.3-.9,1.5-1.6a18,18,0,0,0,.9-6.5,37.3,37.3,0,0,0-7.1-20.9Zm0,0a13.9,13.9,0,0,0-4.5-4.2c-1.1-.6-2.4-1.7-3.5-.7s0,2.2.4,3.2a34.9,34.9,0,0,0,1.5,3.4A109.1,109.1,0,0,1,104,62a52.5,52.5,0,0,0,1.7,5.2c.2.6.5,1.5,1.3,1.5s1.3-.9,1.5-1.6a18,18,0,0,0,.9-6.5,37.3,37.3,0,0,0-7.1-20.9Z"/><path class="cls-2" d="M56.1,40.7c.1.3.1.5.2.8A.5.5,0,0,0,56.1,40.7Zm46.2-1a13.9,13.9,0,0,0-4.5-4.2c-1.1-.6-2.4-1.7-3.5-.7s0,2.2.4,3.2a34.9,34.9,0,0,0,1.5,3.4A109.1,109.1,0,0,1,104,62a52.5,52.5,0,0,0,1.7,5.2c.2.6.5,1.5,1.3,1.5s1.3-.9,1.5-1.6a18,18,0,0,0,.9-6.5,37.3,37.3,0,0,0-7.1-20.9Zm0,0a13.9,13.9,0,0,0-4.5-4.2c-1.1-.6-2.4-1.7-3.5-.7s0,2.2.4,3.2a34.9,34.9,0,0,0,1.5,3.4A109.1,109.1,0,0,1,104,62a52.5,52.5,0,0,0,1.7,5.2c.2.6.5,1.5,1.3,1.5s1.3-.9,1.5-1.6a18,18,0,0,0,.9-6.5,37.3,37.3,0,0,0-7.1-20.9Zm0,0a13.9,13.9,0,0,0-4.5-4.2c-1.1-.6-2.4-1.7-3.5-.7s0,2.2.4,3.2a34.9,34.9,0,0,0,1.5,3.4A109.1,109.1,0,0,1,104,62a52.5,52.5,0,0,0,1.7,5.2c.2.6.5,1.5,1.3,1.5s1.3-.9,1.5-1.6a18,18,0,0,0,.9-6.5,37.3,37.3,0,0,0-7.1-20.9Z"/><path class="cls-3" d="M172.3,130.8,138.8,96a13.2,13.2,0,0,0-13.1-4.1,2.2,2.2,0,0,1-2.3-.7c-2.3-2.5-4.7-5-7.1-7.4a1.5,1.5,0,0,1-.3-2.3,43.3,43.3,0,0,0,6.1-20.1c1.5-22-16.4-42.7-38.3-44.4-16.3-1.3-29.4,4.7-39.2,17.7a2.1,2.1,0,0,1-2.1,1.1,29.2,29.2,0,0,0-7.2.6A42.4,42.4,0,0,0,3.7,95.5a39.8,39.8,0,0,0,18.8,20,1.7,1.7,0,0,0,1.3.8l1.2.5,1,.4a39.6,39.6,0,0,0,29.3,1.3,5.3,5.3,0,0,0,2.4-.8,1.3,1.3,0,0,0,1.1-.5l1-.4c.4,0,.7-.1.8-.4l.9-.4,1.3-.6,1.3-.8a40,40,0,0,0,12.4-11.1,2.7,2.7,0,0,1,2.4-1.4A40.9,40.9,0,0,0,100,96.8a1.5,1.5,0,0,1,2.2.4l3.8,3.9c1.3,1.3,2.3,3.1,4.1,3.8a5.8,5.8,0,0,1-.3,2.6c-.7,4-.2,7.8,2.4,11.1a12.1,12.1,0,0,0,1,1.4c11.5,11.9,22.9,23.9,34.4,35.7a13.5,13.5,0,0,0,18.5.5l5.9-5.6c5.7-5.7,5.9-13.9.3-19.8ZM47.3,47.7a53.8,53.8,0,0,1,3.1-6.4c.9-1.6,1.8-2.1,3.4-1.3l2.3.7a.5.5,0,0,1,.2.8C53,49.7,49.6,58,46.1,66.9a34.5,34.5,0,0,1,1.2-19.2Zm6.9,34.7a27.1,27.1,0,0,1-4.8-6.6c-.4-.6,0-1.1.2-1.6L61.3,44.9c.5-1.4,1-1.3,2.1-.6,4.8,3,4.9,3,2.8,8.1q-5.9,14.9-12,30Zm9.3,7.4c-4.7-2.6-4.8-2.5-2.8-7.4L71.8,54.7c.2-.7.5-1.3.9-2.3a37.3,37.3,0,0,1,4.3,6,2.2,2.2,0,0,1,0,2.2C73.2,70.1,69.4,79.5,65.7,89c-.5,1.2-.9,1.4-2.2.8Zm16.3,2.4a1.7,1.7,0,0,1-2.1,1.4,41.3,41.3,0,0,1-6.9-1.1c3.2-8.3,6.5-16.4,9.9-25a31.2,31.2,0,0,1,1.5,8.7A39.7,39.7,0,0,1,79.8,92.2ZM84,95.6A45.3,45.3,0,0,0,52.8,34.4c10.4-11.9,29.1-15.1,43.4-7.6a37,37,0,0,1,19,41.1C111.1,85,96.1,94.9,84,95.6Z"/><path class="cls-4" d="M109.4,60.6a18,18,0,0,1-.9,6.5c-.2.7-.5,1.7-1.5,1.6s-1.1-.9-1.3-1.5-1.2-3.4-1.7-5.2a102.7,102.7,0,0,0-7.8-20.6L94.7,38c-.4-1-1.4-2.3-.4-3.2s2.5.1,3.5.7a13,13,0,0,1,4.5,4.2,37.3,37.3,0,0,1,7.1,20.9Z"/><path class="cls-5" d="M56.3,41.5c-.1-.3-.1-.5-.2-.8A.5.5,0,0,1,56.3,41.5Z"/><path class="cls-6" d="M56.3,41.5c-.1-.3-.1-.5-.2-.8A.5.5,0,0,1,56.3,41.5Z"/><path class="cls-7" d="M109.4,60.6a18,18,0,0,1-.9,6.5c-.2.7-.5,1.7-1.5,1.6s-1.1-.9-1.3-1.5-1.2-3.4-1.7-5.2a102.7,102.7,0,0,0-7.8-20.6L94.7,38c-.4-1-1.4-2.3-.4-3.2s2.5.1,3.5.7a13,13,0,0,1,4.5,4.2,37.3,37.3,0,0,1,7.1,20.9Z"/></g></g></svg>