<svg id="Layer_1" data-name="Layer 1" xmlns="http://www.w3.org/2000/svg" viewBox="0 0 209 209"><defs><style>.cls-1{fill:#fdfdfd;}.cls-2{fill:#d99938;}.cls-3{fill:#606060;}</style></defs><g id="b"><g id="c"><path class="cls-1" d="M48.2,74.7C41.9,86.1,35.7,97.5,29.5,109c-.9,1.5-1.9,1.8-3.5,1L1.9,96.8A4.8,4.8,0,0,1,0,95.2c.7.2,1,.9,1.5,1.2l7.2,3.9,12.9,7,4.5,2.4c1.5.8,2.4.5,3.2-1,3.2-5.7,6.3-11.5,9.4-17.2l8.9-16.2c1.3-2.3,1-3-1.3-4.3L29.6,62l-7.3-4a2,2,0,0,0-3,1L6.7,82.1c-2,3.8-4.1,7.6-6.2,11.3-.1.2-.1.6-.5.6L18.8,59.5a4.3,4.3,0,0,1,.4-.7c.8-1.4,1.8-1.7,3.3-1l17.2,9.4,7.4,4.1c1.6.8,1.9,1.9,1.1,3.4Z"/><path class="cls-1" d="M65.7,123.7a13.7,13.7,0,0,1-1.9,5.2,5.4,5.4,0,0,1-9.5-4.6,28.1,28.1,0,0,1,1-3.1,5.4,5.4,0,0,1,10.4,2.5Z"/><path class="cls-1" d="M78.7,127.3l-2.4,6.9a5.4,5.4,0,0,1-5.5,3.5,5.5,5.5,0,0,1-4.9-4.4,6.9,6.9,0,0,1,.1-2.5c.8-2.4,1.6-4.9,2.5-7.3a5.4,5.4,0,0,1,10.4,2.1,3.5,3.5,0,0,1-.2,1.7Z"/><path class="cls-1" d="M91.8,129.6c-1.2,4-2.6,7.9-4,11.8a5.2,5.2,0,0,1-5.1,3.3,5.3,5.3,0,0,1-5.1-6.8c1.2-4,2.6-7.9,4.1-11.8a5.4,5.4,0,0,1,10.1,3.5Z"/><path class="cls-1" d="M103.4,136.5l-3.8,11.1a5.4,5.4,0,0,1-10.5-1.4,3.9,3.9,0,0,1,.3-2.1c1.2-3.7,2.5-7.5,3.8-11.2a5.4,5.4,0,0,1,10.5,1.9,4.7,4.7,0,0,1-.3,1.7Z"/><path class="cls-1" d="M108.8,151.3c-.7.3-1.3,0-1.9.2-2.4.5-3.8-1.1-5.4-2.4s-.2-.3-.1-.6c1.1-3.4,2.3-6.8,3.6-10.4l5.3,4.4a5.3,5.3,0,0,1-1.5,8.8Z"/><path class="cls-1" d="M153.3,131.6a5.3,5.3,0,0,1-7.7.9l-9.7-7.6-25.7-20.3-.7-.5a1.3,1.3,0,0,0-1.6.4,1.2,1.2,0,0,0,0,1.6,2.7,2.7,0,0,0,.8.7l29.7,23.4a5.2,5.2,0,0,1,2,5.9,5.3,5.3,0,0,1-8.5,2.6l-29.1-22.8a8.8,8.8,0,0,0-1.5-1.2,1.2,1.2,0,0,0-1.7.3,1.2,1.2,0,0,0,.1,1.7,3.4,3.4,0,0,0,.9.8l24.1,19.1a4.9,4.9,0,0,1,1.9,5.5,5.1,5.1,0,0,1-4.2,4,4.6,4.6,0,0,1-4.2-1c-4.1-3.1-8.1-6.3-12.1-9.5a1.1,1.1,0,0,1-.4-.9,7.3,7.3,0,0,0-9-7.1,1.2,1.2,0,0,1-1-.3,11.8,11.8,0,0,1-2.9-3A7.3,7.3,0,0,0,81.4,123l-.7.7a7.5,7.5,0,0,0-13.2-2.4,3.6,3.6,0,0,0-.4-.9,6.9,6.9,0,0,0-6.5-4.5,7,7,0,0,0-6.9,4.2c-.4,1-.8.9-1.5.5l-10.5-6L35.6,111c-1-.6-1.2-1.2-.6-2.3L52.6,77.1a1.6,1.6,0,0,1,2.3-.9l7.9,3.1a5,5,0,0,0,3.2.1l19.5-6.3a8,8,0,0,1,4.6.1c.6.1.7.5.1,1l-2.5,1.9c-4.4,3.2-8.9,6.6-13.5,9.7s-4.4,8.9-.6,12.1,7.6,3.4,11.8,1.6l15-6.3,6.6-2.8a2.7,2.7,0,0,1,3.1.4l30,23.7,12.2,9.5a5.3,5.3,0,0,1,1,7.5Z"/><path class="cls-1" d="M174,108.6c.6,1.2.5,1.9-.6,2.6l-15.7,11.5c-1.2.9-1.9.8-3-.1C140.1,111,125.5,99.5,111,87.8a3.1,3.1,0,0,0-3.3-.4L84.5,97.2a8.6,8.6,0,0,1-9.9-1.7c-2.4-2.5-2.1-5.6.8-7.6,6.1-4.2,12-8.6,18-13a10.6,10.6,0,0,1,3.3-1.8l18.7-6a3.2,3.2,0,0,1,1.4-.3,4.4,4.4,0,0,1,2.2.7l24.1,11.6a4,4,0,0,0,3.2.2l7.7-3a1.6,1.6,0,0,1,2.5.9L174,108.6Z"/><path class="cls-1" d="M209,94.6a2.4,2.4,0,0,1-1.4,2l-18.7,10.1-6,3.3c-1.5.8-2.5.5-3.3-1-6.3-11.4-12.5-22.9-18.8-34.4-.8-1.4-.5-2.5,1-3.3l24.8-13.5a2.1,2.1,0,0,1,3.2.9l18.8,34.6a2.8,2.8,0,0,1,.4,1.3Z"/><path class="cls-2" d="M48.2,74.7C41.9,86.1,35.7,97.5,29.5,109c-.9,1.5-1.9,1.8-3.5,1L1.9,96.8A4.8,4.8,0,0,1,0,95.2V94L18.8,59.5a4.3,4.3,0,0,1,.4-.7c.8-1.4,1.8-1.7,3.3-1l17.2,9.4,7.4,4.1c1.6.8,1.9,1.9,1.1,3.4Z"/><path class="cls-2" d="M153.3,131.6a5.3,5.3,0,0,1-7.7.9l-9.7-7.6-25.7-20.3-.7-.5a1.3,1.3,0,0,0-1.6.4,1.2,1.2,0,0,0,0,1.6,2.7,2.7,0,0,0,.8.7l29.7,23.4a5.2,5.2,0,0,1,2,5.9,5.3,5.3,0,0,1-8.5,2.6l-29.1-22.8a8.8,8.8,0,0,0-1.5-1.2,1.2,1.2,0,0,0-1.7.3,1.2,1.2,0,0,0,.1,1.7,3.4,3.4,0,0,0,.9.8l24.1,19.1a4.9,4.9,0,0,1,1.9,5.5,5.1,5.1,0,0,1-4.2,4,4.6,4.6,0,0,1-4.2-1c-4.1-3.1-8.1-6.3-12.1-9.5a1.1,1.1,0,0,1-.4-.9,7.3,7.3,0,0,0-9-7.1,1.2,1.2,0,0,1-1-.3,11.8,11.8,0,0,1-2.9-3A7.3,7.3,0,0,0,81.4,123l-.7.7a7.5,7.5,0,0,0-13.2-2.4,3.6,3.6,0,0,0-.4-.9,6.9,6.9,0,0,0-6.5-4.5,7,7,0,0,0-6.9,4.2c-.4,1-.8.9-1.5.5l-10.5-6L35.6,111c-1-.6-1.2-1.2-.6-2.3L52.6,77.1a1.6,1.6,0,0,1,2.3-.9l7.9,3.1a5,5,0,0,0,3.2.1l19.5-6.3a8,8,0,0,1,4.6.1c.6.1.7.5.1,1l-2.5,1.9c-4.4,3.2-8.9,6.6-13.5,9.7s-4.4,8.9-.6,12.1,7.6,3.4,11.8,1.6l15-6.3,6.6-2.8a2.7,2.7,0,0,1,3.1.4l30,23.7,12.2,9.5a5.3,5.3,0,0,1,1,7.5Z"/><path class="cls-3" d="M173.4,111.2l-15.7,11.5c-1.2.9-1.9.8-3-.1C140.1,111,125.5,99.5,111,87.8a3.1,3.1,0,0,0-3.3-.4L84.5,97.2a8.6,8.6,0,0,1-9.9-1.7c-2.4-2.5-2.1-5.6.8-7.6,6.1-4.2,12-8.6,18-13a10.6,10.6,0,0,1,3.3-1.8l18.7-6a3.2,3.2,0,0,1,1.4-.3,4.4,4.4,0,0,1,2.2.7l24.1,11.6a4,4,0,0,0,3.2.2l7.7-3a1.6,1.6,0,0,1,2.5.9L174,108.6c.6,1.2.5,1.9-.6,2.6Z"/><path class="cls-3" d="M209,94.6a2.4,2.4,0,0,1-1.4,2l-18.7,10.1-6,3.3c-1.5.8-2.5.5-3.3-1-6.3-11.4-12.5-22.9-18.8-34.4-.8-1.4-.5-2.5,1-3.3l24.8-13.5a2.1,2.1,0,0,1,3.2.9l18.8,34.6a2.8,2.8,0,0,1,.4,1.3Z"/><path class="cls-3" d="M91.8,129.6c-1.2,4-2.6,7.9-4,11.8a5.2,5.2,0,0,1-5.1,3.3,5.3,5.3,0,0,1-5.1-6.8c1.2-4,2.6-7.9,4.1-11.8a5.4,5.4,0,0,1,10.1,3.5Z"/><path class="cls-3" d="M103.7,134.8a4.7,4.7,0,0,1-.3,1.7l-3.8,11.1a5.4,5.4,0,0,1-10.5-1.4,3.9,3.9,0,0,1,.3-2.1c1.2-3.7,2.5-7.5,3.8-11.2a5.4,5.4,0,0,1,10.5,1.9Z"/><path class="cls-3" d="M78.9,125.6a5.2,5.2,0,0,1-.2,1.7l-2.4,6.9a5.4,5.4,0,0,1-5.5,3.5,5.5,5.5,0,0,1-4.9-4.4,7,7,0,0,1,.1-2.5c.8-2.4,1.6-4.9,2.5-7.3a5.4,5.4,0,0,1,10.4,2.1Z"/><path class="cls-3" d="M65.7,123.7a13.7,13.7,0,0,1-1.9,5.2,5.4,5.4,0,0,1-9.5-4.6,28.1,28.1,0,0,1,1-3.1,5.4,5.4,0,0,1,10.4,2.5Z"/><path class="cls-3" d="M108.8,151.3c-.7.3-1.3,0-1.9.2-2.4.5-3.8-1.1-5.4-2.4s-.2-.3-.1-.6c1.1-3.4,2.3-6.8,3.6-10.4l5.3,4.4a5.3,5.3,0,0,1-1.5,8.8Z"/></g></g></svg>