<svg id="Layer_1" data-name="Layer 1" xmlns="http://www.w3.org/2000/svg"
  viewBox="0 0 668.00551 666.66334">
  <defs>
    <style>
      .cls-1 {
      fill: #c6c6c6;
      isolation: isolate;
      }

      .cls-2 {
      fill: #7c7c7c;
      }
    </style>
  </defs>
  <g id="dark">
    <path data-name="dark" class="cls-1"
      d="M300,66.66666c-87.33333,0-158.33333,71-158.33333,158.33333,0,85.66665,67,155,154.33333,158a26.88957,26.88957,0,0,1,7.33334,0h2.33333C391,380,458,310.66664,458.33332,225,458.33332,137.66667,387.33331,66.66666,300,66.66666Z"
      transform="translate(-65.36466 -66.66666)" />
    <path data-name="dark" class="cls-1"
      d="M666.31334,244.67c5.33332,64.66667-40.66671,121.33333-104.33337,129h-1.66664a15.59426,15.59426,0,0,0-5.66667.66665c-32.33334,1.66667-62-8.66664-84.33335-27.66666,34.33332-30.66667,54-76.66667,50-126.66665a154.694,154.694,0,0,0-25.66665-72.66666A119.1369,119.1369,0,0,1,536.98,135.67C602.31334,130.00333,660.64667,178.67,666.31334,244.67Z"
      transform="translate(-65.36466 -66.66666)" />
  </g>
  <g>
    <path class="cls-2"
      d="M469.36332,471.66333c-93-62-244.66533-62-338.332,0C88.698,499.99664,65.36466,538.33,65.36466,579.33s23.33333,79,65.33333,107c46.66667,31.33335,108,47.00006,169.33334,47.00006,61.332,0,122.66531-15.66671,169.332-47.00006,42-28.33328,65.3333-66.33332,65.3333-107.66664C534.36328,537.66331,511.36333,499.6633,469.36332,471.66333Z"
      transform="translate(-65.36466 -66.66666)" />
    <path class="cls-2"
      d="M733.00664,552.99661C730.34,585.33,709.67328,613.33,675.00665,632.33c-33.33333,18.33331-75.33334,27-117,26,24-21.66671,38-48.6667,40.66664-77.33338,3.33334-41.33333-16.33333-81-55.66667-112.66664-22.3333-17.66665-48.33329-31.66666-76.66664-42,73.66664-21.33331,166.33332-7,223.33335,39C720.34,489.99664,736.00665,520.99665,733.00664,552.99661Z"
      transform="translate(-65.36466 -66.66666)" />
  </g>
</svg>