<svg id="Capa_1" data-name="Capa 1" xmlns="http://www.w3.org/2000/svg"
  viewBox="0 0 708.23003 719.3644">
  <path id="_Path_" data-name="&lt;Path&gt;"
    d="M615.47759,471.92447l-.19733-.00006a146.69751,146.69751,0,1,0,.19733.00006Zm82.31767,160.69031c0,10.1911-3.156,13.14976-12.68953,12.75527H642.04017v42.99976c0,9.59934-2.56422,13.14981-12.75532,12.75532l-31.55945.39449c-9.73086,0-9.00762-5.52288-9.00762-13.14981v-43.197H545.91524c-9.59934,0-13.14976-2.56423-12.75527-12.75532l-.39449-31.5594c0-9.73086,5.45714-9.00762,13.14976-9.00762h42.80254V549.0479h.19722c0-7.82415-.72324-13.14976,9.00762-13.14976l31.5595.39444c10.1911,0,13.14976,3.156,12.75527,12.68952v43.06556h42.80254c7.82415,0,13.14976-.72325,13.14976,9.00762Z"
    transform="translate(-53.80182 -45.80005)" />
  <g>
    <path
      d="M187.65869,202.64691c-6.95862,9.13324-3.04437,28.70435.04834,39.96375,1.643,10.00305,5.50891,16.28515,9.32648,20.296,9.03656,60.0664,59.34161,115.92871,105.29748,115.92871,53.63941,0,102.44641-60.40473,111.82123-115.83209,3.86591-3.96253,7.73181-10.293,9.4231-20.39264,3.04443-11.2594,7.0553-30.87891.09668-40.01209-.33826-.48321-.82154-.91815-1.06317-1.353,6.42712-23.63031,14.64215-72.534-14.64209-105.8291-2.65778-3.33429-19.08789-22.95373-54.1709-33.295l-16.72-5.79883c-27.64118-8.505-45.03779-10.43793-45.76258-10.48627a12.31385,12.31385,0,0,0-3.76928.28992,19.07647,19.07647,0,0,1-6.81366.82153c-6.62037-.96649-16.52674,2.4162-18.26642,3.09272-2.27118.91815-55.76557,22.32556-72.00238,72.19568-1.49805,4.01092-8.02173,25.225.62823,77.17309A15.53848,15.53848,0,0,0,187.65869,202.64691Z"
      transform="translate(-53.80182 -45.80005)" />
    <path id="_Path_2"
      d="M519.30042,438.02026a130.44391,130.44391,0,0,0-8.694-15.162c.04834-.1449-10.92121-14.98035-36.77436-24.83832,0,0-2.17462-.72492-5.509-1.788a414.88386,414.88386,0,0,0-44.89276-17.73486,123.88027,123.88027,0,0,1-12.56421-4.97729c-15.56018-7.68354-28.60767-16.43012-31.31378-24.64515,0,0,9.08484,87.466-67.41168,89.44727l-10.58289-.48321c-69.248-6.13715-73.83868-89.15735-73.83868-89.15735-7.2486,22.76043-94.328,49.24188-94.328,49.24188-25.90155,9.85809-36.82275,24.83844-36.82275,24.83844C58.296,479.59045,53.80182,605.86041,53.80182,605.86041c.48328,28.89765,12.9508,31.89374,12.9508,31.89374C154.75018,676.993,292.8595,683.90332,292.8595,683.90332c7.44189.1933,14.40051-.1933,21.31079-.62823l.145.72485a970.026,970.026,0,0,0,103.6701-12.17047A204.73272,204.73272,0,0,1,519.30042,438.02026Zm-57.98969,1.598a11.90267,11.90267,0,0,0,.24164,1.2564c-1.063,1.25641-2.0296,2.51288-3.04437,3.76929C459.47449,442.856,460.44092,441.45453,461.31073,439.61823Zm-151.3017.53161a1.3868,1.3868,0,0,0-.28991.53156l.19329-1.01484.24158.91816A3.06469,3.06469,0,0,0,310.009,440.14984Z"
      transform="translate(-53.80182 -45.80005)" />
  </g>
</svg>