<svg id="_1" data-name="1" xmlns="http://www.w3.org/2000/svg" viewBox="0 0 128 128"><rect x="54.1954" y="63.6561" width="65.1902" height="10.4277" rx="2.014"/><path d="M96.7431,39.2274l4.7633,13.3878a2.15,2.15,0,0,1-2.0256,2.8708h-8.78a2.15,2.15,0,0,0-2.15,2.15h0a2.15,2.15,0,0,0,2.15,2.15h15.988V58.3885h0a16.68,16.68,0,0,0-.9805-5.6345L96.4575,26.9789a2.15,2.15,0,0,1-.0567-1.2692l5.8158-22.2864A2.15,2.15,0,0,0,100.75.82l-.5839-.1739a2.15,2.15,0,0,0-2.69,1.505L86.1186,44.596a2.15,2.15,0,0,0,1.5191,2.6321l.6446.1732a2.15,2.15,0,0,0,2.6359-1.5244L92.64,39.3962A2.15,2.15,0,0,1,96.7431,39.2274Z"/><path d="M45.02,29.2556a12.0645,12.0645,0,0,0,15.3639-7.31A12.0068,12.0068,0,0,0,41.3921,8.5078a3.6837,3.6837,0,0,1-1.28.7525A6.1521,6.1521,0,0,1,32.003,6.3577a2.5805,2.5805,0,0,1-.5335-1.505A21.5949,21.5949,0,0,0,45.02,29.2556Z"/><path d="M66.6786,83.6514a7.8889,7.8889,0,0,0-7.0418-4.6226H37.8712V69.4612h.32a8.778,8.778,0,0,1-8.6423-8.7077V46.7783a1.5016,1.5016,0,0,1,1.4745-1.5049,1.3579,1.3579,0,0,1,1.513,1.5049V60.861a5.554,5.554,0,0,0,5.4414,5.4826H51.1013v-3.776a1.9215,1.9215,0,0,1,1.9215-1.9216H74.2539v-.1075a5.1889,5.1889,0,0,0-5.228-5.2675H43.6327V35.3832a5.3835,5.3835,0,0,0-4.908-5.4826,14.794,14.794,0,0,0-3.0941,0c-10.7761.7525-21.6589,9.6751-23.1526,21.1778a150.3286,150.3286,0,0,0-.32,31.713A13.866,13.866,0,0,0,24.2143,94.6165a12.1617,12.1617,0,0,0,2.0272.1075h28.274l15.7907,28.81a7.7849,7.7849,0,0,0,10.3493,3.7625,7.9008,7.9008,0,0,0,3.841-10.5351Z"/><rect x="12.3713" y="98.8091" width="39.7969" height="9.8901" rx="1.9881"/></svg>