<svg id="Layer_1" data-name="Layer 1" xmlns="http://www.w3.org/2000/svg" viewBox="0 0 465.78198 691.66664">
  <defs>
    <style>
      .cls-1 {
        fill: #7c7c7c;
      }

      .cls-2 {
        fill: #c6c6c6;
        opacity: 0.4;
        isolation: isolate;
      }
    </style>
  </defs>
  <g id="dark">
    <path class="cls-1" d="M632.32667,115V231.66666A58.18455,58.18455,0,0,1,573.99334,290h-275.331a60.11424,60.11424,0,0,1-36.334-12.66667L189.328,219c-29-23.33333-29-68,0-91.33332l73.00033-58.33334a60.11214,60.11214,0,0,1,36.334-12.66667h275.331A58.18455,58.18455,0,0,1,632.32667,115Z" transform="translate(-167.578 -56.66666)"/>
    <path class="cls-1" d="M611.36,552.33334l-72.66661,58.33333a60.332,60.332,0,0,1-36.66671,12.66664h-275.334A58.18456,58.18456,0,0,1,168.35932,565V448.33332A58.18454,58.18454,0,0,1,226.69265,390h275.334a60.332,60.332,0,0,1,36.66671,12.66667L611.36,461A58.39644,58.39644,0,0,1,611.36,552.33334Z" transform="translate(-167.578 -56.66666)"/>
  </g>
  <g id="light">
    <path class="cls-2" d="M425,290H375V390h50Z" transform="translate(-167.578 -56.66666)"/>
    <path class="cls-2" d="M525,723.33331a25.18206,25.18206,0,0,1-25,25H300a25,25,0,1,1,0-50h75v-75h50v75h75A25.18206,25.18206,0,0,1,525,723.33331Z" transform="translate(-167.578 -56.66666)"/>
  </g>
</svg>
