<svg id="b9c80198-d9d7-4e10-bf7d-c4a8525131e7" data-name="f4a87ebd-170e-41a6-bd49-1e749a3e8313" xmlns="http://www.w3.org/2000/svg" viewBox="0 0 50.0547 50.0547"><path d="M12.4307,12.4307h0a.7113.7113,0,0,0,0,1.0059h0l11.088,11.088a.7113.7113,0,0,1,0,1.0059h0l-11.088,11.088a.7113.7113,0,0,0,0,1.0059h0a.7113.7113,0,0,0,1.0059,0h0l11.088-11.088a.7113.7113,0,0,1,1.0059,0h0l11.088,11.088a.7113.7113,0,0,0,1.0059,0h0a.7113.7113,0,0,0,0-1.0059h0l-11.088-11.088a.7113.7113,0,0,1,0-1.0059h0l11.088-11.088a.7113.7113,0,0,0,0-1.0059h0a.7113.7113,0,0,0-1.0059,0h0l-11.088,11.088a.7113.7113,0,0,1-1.0059,0h0l-11.088-11.088a.7113.7113,0,0,0-1.0059,0Z"/><path id="b0cb11f2-d3b5-42e3-bf4b-c3e59990f39d" data-name="&lt;Path&gt;" d="M25.0278,50.0547A25.0274,25.0274,0,1,1,50.0547,25.0278,25.0555,25.0555,0,0,1,25.0278,50.0547Zm0-48.8545A23.8277,23.8277,0,1,0,48.8555,25.0278,23.8546,23.8546,0,0,0,25.0278,1.2Z"/></svg>