<svg id="a0d2c306-ae27-4a30-a133-30a559bf77a8" data-name="Layer 1" xmlns="http://www.w3.org/2000/svg" viewBox="0 0 444.12384 483.06542">
  <defs>
    <style>
      .a74880d6-dede-4fa4-993c-0471facb6e88 {
        fill: #1e1e1e;
      }

      .ed7519eb-df8d-4f5f-8756-2b0dad51d310 {
        fill: #d99938;
      }
    </style>
  </defs>
  <path id="a2e51d84-e5a1-4ed1-b1b0-0375d97423ec" data-name="dark" class="a74880d6-dede-4fa4-993c-0471facb6e88" d="M351.21525,126.88487H223.4236c-101.22493,0-101.22493,53.81867-101.22493,101.22491v86.79694c0,5.03835,2.29016,126.41666,6.18343,129.39381a16.03062,16.03062,0,0,0,13.97,2.74818q15.45855-4.12227,38.47462-4.12228c15.344,0,18.55027,1.83214,27.71088,8.70261l20.84043,21.9855A79.75678,79.75678,0,0,0,342.11348,477.22q1.85985-1.74464,3.60538-3.60541l20.84043-21.9855c9.16065-6.87047,12.36684-8.70261,27.71088-8.70261s28.16892,1.3741,38.47465,4.12228a16.17415,16.17415,0,0,0,13.97-2.74818c3.89324-2.97719,6.18338-124.5845,6.18338-129.39383V228.10978C452.44014,180.70354,452.44014,126.88487,351.21525,126.88487Z" transform="translate(-79.61619 -56.04302)"/>
  <g id="a07ce070-91a5-4d1f-99ec-90d545a2101f" data-name="light">
    <path class="ed7519eb-df8d-4f5f-8756-2b0dad51d310" d="M440.54505,299.32907c-13.05389-3.43523-28.39793-5.26737-46.71915-5.26737-25.42074,0-34.81039,6.18342-47.86429,16.03108a14.81716,14.81716,0,0,0-2.06114,1.83214L322.144,335.05551c-18.32126,19.23732-51.29951,19.46632-69.62078-.229l-21.75671-22.90153a14.81659,14.81659,0,0,0-2.06114-1.83214c-13.05389-9.84766-22.44351-16.03108-47.86424-16.03108-18.32127,0-33.66531,1.83214-46.7192,5.26737C79.61619,313.98608,79.61619,357.27,79.61619,395.2866v21.29845c0,57.483,0,122.52338,122.52336,122.52338H372.52744c81.30054,0,122.52336-41.22281,122.52336-122.5234V395.28658C495.0508,357.27,495.0508,313.98608,440.54505,299.32907ZM340.69428,456.66276H233.97275a16.03274,16.03274,0,0,1,0-32.06216H340.69428a16.03274,16.03274,0,0,1,0,32.06216Z" transform="translate(-79.61619 -56.04302)"/>
    <path class="ed7519eb-df8d-4f5f-8756-2b0dad51d310" d="M432.89817,56.043A90.84185,90.84185,0,1,0,523.74,146.88488v0A90.84183,90.84183,0,0,0,432.89824,56.043ZM476.316,125.90134l-51.50729,51.50728a6.79866,6.79866,0,0,1-9.61475.01449l-.01449-.01449-25.70868-25.70821a6.80889,6.80889,0,1,1,9.62924-9.62922l20.89407,20.8936,46.69266-46.69268a6.8089,6.8089,0,1,1,9.62924,9.62923Z" transform="translate(-79.61619 -56.04302)"/>
    <path class="ed7519eb-df8d-4f5f-8756-2b0dad51d310" d="M282.56641,217.40967H178.46973a10,10,0,0,1,0-20H282.56641a10,10,0,0,1,0,20Z" transform="translate(-79.61619 -56.04302)"/>
    <path class="ed7519eb-df8d-4f5f-8756-2b0dad51d310" d="M329.69922,263.5542H178.46973a10,10,0,0,1,0-20H329.69922a10,10,0,1,1,0,20Z" transform="translate(-79.61619 -56.04302)"/>
  </g>
</svg>
