<svg id="f106b302-7eb3-42b8-a3e6-0ca5025f95d0" data-name="fb53c1e0-8e03-45cb-883f-9dc02e2d8ce2" xmlns="http://www.w3.org/2000/svg" viewBox="0 0 115.9844 115.9844"><path d="M111.3489,0H4.6433A4.6344,4.6344,0,0,0,.0039,4.6394V111.345a4.6344,4.6344,0,0,0,4.6394,4.6394H111.3489a4.6344,4.6344,0,0,0,4.6394-4.6394V4.6394A4.6344,4.6344,0,0,0,111.3489,0ZM97.9527,33.8529H88.6885c-7.2636,0-8.67,3.4506-8.67,8.5249v11.178h17.34L95.0966,71.0549H80.0186v44.9295H61.94V71.0694H46.8181V53.5558H61.94V40.6525c0-14.9765,9.1482-23.1389,22.5154-23.1389a122.39,122.39,0,0,1,13.5122.6959V33.8529Z" transform="translate(-0.0039)"/></svg>