<svg id="fa7f7fb2-e968-44c5-89f0-dfb6792254b5" data-name="b4ac5101-783a-4afe-a519-b30c761113bf" xmlns="http://www.w3.org/2000/svg" viewBox="0 0 110 110"><path id="bb29854a-3f43-4dff-958b-017924b950c4" data-name="a7e0feef-dff9-426f-acc6-e3b3ec5c70c4" d="M108.3,47.1,101,44.6a2.1,2.1,0,0,1-1.3-1.3A45.5,45.5,0,0,0,95,31.6a1.9,1.9,0,0,1-.1-1.9l3.4-6.8a1.8,1.8,0,0,0-.2-2.1,53.5,53.5,0,0,0-8.9-8.9,1.8,1.8,0,0,0-2.1-.2l-6.8,3.4a1.9,1.9,0,0,1-1.9-.1,45.5,45.5,0,0,0-11.7-4.7A2.1,2.1,0,0,1,65.4,9L62.9,1.7A2.1,2.1,0,0,0,61.3.3,66.3,66.3,0,0,0,48.7.3a2.1,2.1,0,0,0-1.6,1.4L44.6,9a2.1,2.1,0,0,1-1.3,1.3A45.5,45.5,0,0,0,31.6,15a1.9,1.9,0,0,1-1.9.1l-6.8-3.4a1.8,1.8,0,0,0-2.1.2,53.5,53.5,0,0,0-8.9,8.9,1.8,1.8,0,0,0-.2,2.1l3.4,6.8a1.9,1.9,0,0,1-.1,1.9,45.5,45.5,0,0,0-4.7,11.7A2.1,2.1,0,0,1,9,44.6L1.7,47.1A2.1,2.1,0,0,0,.3,48.7a66.3,66.3,0,0,0,0,12.6,2.1,2.1,0,0,0,1.4,1.6L9,65.4a2.1,2.1,0,0,1,1.3,1.3A45.5,45.5,0,0,0,15,78.4a1.9,1.9,0,0,1,.1,1.9l-3.4,6.8a1.8,1.8,0,0,0,.2,2.1,53.5,53.5,0,0,0,8.9,8.9,1.8,1.8,0,0,0,2.1.2l6.8-3.4a1.9,1.9,0,0,1,1.9.1,45.5,45.5,0,0,0,11.7,4.7,2.1,2.1,0,0,1,1.3,1.3l2.5,7.3a2.1,2.1,0,0,0,1.6,1.4,66.3,66.3,0,0,0,12.6,0,2.1,2.1,0,0,0,1.6-1.4l2.5-7.3a2.1,2.1,0,0,1,1.3-1.3A45.5,45.5,0,0,0,78.4,95a1.9,1.9,0,0,1,1.9-.1l6.8,3.4a1.8,1.8,0,0,0,2.1-.2,53.5,53.5,0,0,0,8.9-8.9,1.8,1.8,0,0,0,.2-2.1l-3.4-6.8a1.9,1.9,0,0,1,.1-1.9,45.5,45.5,0,0,0,4.7-11.7,2.1,2.1,0,0,1,1.3-1.3l7.3-2.5a2.1,2.1,0,0,0,1.4-1.6,66.3,66.3,0,0,0,0-12.6A2.1,2.1,0,0,0,108.3,47.1ZM57.6,95.8A40.9,40.9,0,1,1,95.8,52.3a46.9,46.9,0,0,1,0,5.3A41.1,41.1,0,0,1,57.6,95.8Z"/></svg>