<svg id="Layer_1" data-name="Layer 1" xmlns="http://www.w3.org/2000/svg"
  viewBox="0 0 369.33301 522.92931">
  <defs>
    <style>
      .cls-1 {
      fill: #7c7c7c;
      }

      .cls-2 {
      fill: #c6c6c6;
      }
    </style>
  </defs>
  <g id="dark">
    <path class="cls-1"
      d="M356.79267,194.121H243.18231c-89.99177,0-89.99177,47.8463-89.99177,89.99178V361.2777c0,4.47923,2.036,112.38793,5.49723,115.03474a14.25167,14.25167,0,0,0,12.41969,2.44321q13.74309-3.66482,34.205-3.66482c13.6413,0,16.49171,1.62882,24.63575,7.73686L248.476,502.37342a70.906,70.906,0,0,0,100.225,3.2053q1.65346-1.551,3.20528-3.2053L370.434,482.82769c8.14408-6.108,10.99447-7.73686,24.63575-7.73686s25.043,1.22161,34.205,3.66482a14.37932,14.37932,0,0,0,12.41971-2.44321c3.46119-2.64681,5.49719-110.75911,5.49719-115.03474V284.11279C446.78447,241.96731,446.78447,194.121,356.79267,194.121Z"
      transform="translate(-115.52459 -37.67001)" />
    <path class="cls-2"
      d="M389.38218,113.67h-178c-27.17439-1.27247-31.06626-24.25307-29.28277-46.71585A29.282,29.282,0,0,1,211.38218,37.67h178A29.28432,29.28432,0,0,1,418.6665,66.95434C420.39709,89.40834,416.658,112.36163,389.38218,113.67Z"
      transform="translate(-115.52459 -37.67001)" />
  </g>
  <g id="light">
    <path class="cls-2"
      d="M436.40045,347.42873c-11.60527-3.054-25.24655-4.68284-41.53463-4.68284-22.59975,0-30.94741,5.49724-42.55269,14.25208a13.17279,13.17279,0,0,0-1.83241,1.62882l-19.3421,20.56375c-16.28812,17.10251-45.60671,17.3061-61.89483-.20363l-19.34233-20.3601a13.17215,13.17215,0,0,0-1.83241-1.62882c-11.60527-8.75485-19.9529-14.25208-42.55265-14.25208-16.28812,0-29.9294,1.62882-41.53467,4.68284-48.45714,13.03047-48.45714,51.51112-48.45714,85.30891v18.93493c0,51.10394,0,108.92673,108.92669,108.92673H375.9309c72.27846,0,108.92669-36.64824,108.92669-108.92673V432.73766C484.85759,398.93987,484.85759,360.45922,436.40045,347.42873ZM347.63032,487.30281H252.75189a14.25356,14.25356,0,0,1,0-28.50416h94.87843a14.25356,14.25356,0,0,1,0,28.50416Z"
      transform="translate(-115.52459 -37.67001)" />
    <path class="cls-2"
      d="M346.50236,251.12937a13.764,13.764,0,0,0-19.34211,0l-13.23409,13.23408V167.042a13.84641,13.84641,0,0,0-27.68978,0v97.11784l-13.03049-13.0305a13.67695,13.67695,0,0,0-19.34212,19.34212L290.512,307.11973c.2036.20361.2036.20361.40721.20361a14.05735,14.05735,0,0,0,4.072,2.64682,15.29332,15.29332,0,0,0,5.29363,1.018,16.25675,16.25675,0,0,0,5.29365-1.018,11.024,11.024,0,0,0,4.47921-3.054l36.64824-36.64823A13.70792,13.70792,0,0,0,346.50236,251.12937Z"
      transform="translate(-115.52459 -37.67001)" />
  </g>
  <g id="stars">
    <g id="light" data-name="light">
      <path class="cls-1"
        d="M288.22454,78.69047a4.15625,4.15625,0,0,1-4.1033,7.229l-.04568-.02632-5.27684-3.05365v6.1073a4.149,4.149,0,0,1-8.298,0v-6.1073l-5.2786,3.05365a4.12981,4.12981,0,0,1-5.6495-1.48115l-.02631-.04568a4.17347,4.17347,0,0,1,1.52682-5.67581L266.35177,75.67l-5.27861-3.05365a4.156,4.156,0,1,1,4.149-7.20237l5.2786,3.05339V62.39327a4.149,4.149,0,0,1,8.298,0v6.07411l5.277-3.05339a4.156,4.156,0,0,1,4.149,7.20237L282.9477,75.67Z"
        transform="translate(-115.52459 -37.67001)" />
      <path class="cls-1"
        d="M237.1402,78.69047a4.15625,4.15625,0,0,1-4.10329,7.229l-.04569-.02632-5.27684-3.05365v6.1073a4.149,4.149,0,1,1-8.298,0v-6.1073l-5.27861,3.05365a4.12981,4.12981,0,0,1-5.6495-1.48115l-.02631-.04568a4.17347,4.17347,0,0,1,1.52683-5.67581l5.2786-3.02046-5.27861-3.05365a4.156,4.156,0,1,1,4.149-7.20237l5.27861,3.05339V62.39327a4.149,4.149,0,1,1,8.298,0v6.07411l5.277-3.05339a4.156,4.156,0,1,1,4.149,7.20237l-5.277,3.05365Z"
        transform="translate(-115.52459 -37.67001)" />
      <path class="cls-1"
        d="M339.30888,78.69047a4.15625,4.15625,0,0,1-4.1033,7.229l-.04568-.02632-5.27684-3.05365v6.1073a4.149,4.149,0,0,1-8.298,0v-6.1073l-5.27861,3.05365A4.1298,4.1298,0,0,1,310.657,84.412l-.02632-.04568a4.17348,4.17348,0,0,1,1.52683-5.67581L317.43611,75.67l-5.27862-3.05365a4.156,4.156,0,0,1,4.149-7.20237l5.27861,3.05339V62.39327a4.149,4.149,0,0,1,8.298,0v6.07411L335.16,65.414a4.156,4.156,0,1,1,4.149,7.20237L334.032,75.67Z"
        transform="translate(-115.52459 -37.67001)" />
      <path class="cls-1"
        d="M390.39322,78.69047a4.15625,4.15625,0,0,1-4.1033,7.229l-.04569-.02632-5.27684-3.05365v6.1073a4.149,4.149,0,0,1-8.298,0v-6.1073l-5.27861,3.05365a4.1298,4.1298,0,0,1-5.64949-1.48115l-.02632-.04568a4.17347,4.17347,0,0,1,1.52683-5.67581L368.52045,75.67l-5.27862-3.05365a4.156,4.156,0,0,1,4.149-7.20237l5.27861,3.05339V62.39327a4.149,4.149,0,0,1,8.298,0v6.07411l5.277-3.05339a4.156,4.156,0,1,1,4.149,7.20237l-5.277,3.05365Z"
        transform="translate(-115.52459 -37.67001)" />
    </g>
  </g>
</svg>