<svg id="a6391383-6ef7-4b91-a0e2-f62155effdb8" data-name="Layer 1" xmlns="http://www.w3.org/2000/svg" viewBox="0 0 46.4444 34.8333"><defs><style>.a6214b5e-8e02-4fa7-bf78-8848a864c7f2{fill:#231f20;}</style></defs><path class="a6214b5e-8e02-4fa7-bf78-8848a864c7f2" d="M2.8962,10.4861H46.4378a1.4514,1.4514,0,0,0,0-2.9028H2.8962a1.4514,1.4514,0,0,0,0,2.9028Z" transform="translate(-1.4448 -7.5833)"/><path class="a6214b5e-8e02-4fa7-bf78-8848a864c7f2" d="M2.8962,42.4167H46.4378a1.4514,1.4514,0,0,0,0-2.9028H2.8962a1.4514,1.4514,0,0,0,0,2.9028Z" transform="translate(-1.4448 -7.5833)"/><path class="a6214b5e-8e02-4fa7-bf78-8848a864c7f2" d="M2.8962,26.4514H46.4378a1.4514,1.4514,0,0,0,0-2.9028H2.8962a1.4514,1.4514,0,0,0,0,2.9028Z" transform="translate(-1.4448 -7.5833)"/></svg>