<?xml version="1.0" encoding="utf-8"?>
<!DOCTYPE svg PUBLIC "-//W3C//DTD SVG 1.1//EN" "http://www.w3.org/Graphics/SVG/1.1/DTD/svg11.dtd">
<svg version="1.1" id="Layer_1" xmlns="http://www.w3.org/2000/svg" xmlns:xlink="http://www.w3.org/1999/xlink" x="0px" y="0px"
	 viewBox="0 0 1458.0265 1282.1088" enable-background="new 0 0 1458.0265 1282.1088" xml:space="preserve">
<g>
	<path d="M861.4252,875.5513c-82.5922,0-164.1956,0-246.2206,0c0,135.4811,0,270.7325,0,406.4337c-178.77,0-357.1186,0-535.7994,0
		c0-190.2623,0-380.4926,0-571.4393c2.0191,0,3.9602-0.0001,5.9012-0.0001c427.4713,0.0002,854.9426,0.0082,1282.4138-0.0983
		c4.709-0.0012,6.1787,1.0861,6.1755,5.9973c-0.1227,186.8207-0.1016,373.6415-0.1094,560.4623
		c0,1.6346-0.1354,3.2694-0.2207,5.2018c-170.7178,0-341.1244,0-512.1406,0
		C861.4252,1146.6564,861.4252,1011.2757,861.4252,875.5513z M518.6942,779.4246c-55.6349,0-110.9832,0-166.4348,0
		c0,33.1179,0,65.8618,0,98.8132c55.6088,0,110.9434,0,166.4348,0C518.6942,845.0922,518.6942,812.3563,518.6942,779.4246z
		 M1111.6324,878.3034c55.8151,0,111.0239,0,166.3152,0c0-33.2042,0-66.0589,0-98.9224c-55.6156,0-110.8329,0-166.3152,0
		C1111.6324,812.4414,1111.6324,845.173,1111.6324,878.3034z M518.6962,898.2253c-55.6264,0-110.9681,0-166.28,0
		c0,33.2691,0,66.136,0,98.8515c55.6639,0,110.897,0,166.28,0C518.6962,963.9667,518.6962,931.2241,518.6962,898.2253z
		 M1278.0607,997.1772c0-33.2463,0-65.9934,0-98.9079c-55.6077,0-110.9297,0-166.3871,0c0,33.1772,0,65.9102,0,98.9079
		C1167.2076,997.1772,1222.4359,997.1772,1278.0607,997.1772z M332.6462,779.3964c-50.6473,0-100.6887,0-150.7946,0
		c0,33.1785,0,66.0107,0,98.8779c50.48,0,100.5117,0,150.7946,0C332.6462,845.1777,332.6462,812.4536,332.6462,779.3964z
		 M181.6764,997.1132c50.6156,0,100.6606,0,150.8009,0c0-33.1705,0-66.0094,0-98.9217c-50.4604,0-100.4953,0-150.8009,0
		C181.6764,931.2907,181.6764,964.0213,181.6764,997.1132z M1091.9347,878.3662c0-33.1486,0-66.015,0-98.9704
		c-50.3904,0-100.4364,0-150.4652,0c0,33.2185,0,66.0916,0,98.9704C991.8074,878.3662,1041.7374,878.3662,1091.9347,878.3662z
		 M1092.0809,898.2084c-50.5568,0-100.5996,0-150.6056,0c0,33.2645,0,66.1427,0,98.7837c50.4688,0,100.5234,0,150.6056,0
		C1092.0809,963.9124,1092.0809,931.2841,1092.0809,898.2084z"/>
	<path d="M1458.0265,680.9606c-486.287,0-971.8716,0-1458.0265,0c0.7064-1.8485,1.2275-3.3696,1.8593-4.8433
		c62.7738-146.4075,125.5755-292.8031,188.2325-439.2606c1.6837-3.9356,3.7763-4.9069,7.7539-4.9008
		c71.6617,0.1095,143.3242-0.0399,214.9845,0.3044c5.8325,0.028,9.7901-1.7599,14.052-5.0157
		c97.8393-74.743,195.7371-149.4093,293.6263-224.087C721.825,2.1533,723.171,1.1875,724.7789,0
		c11.632,8.7193,23.2159,17.3904,34.7871,26.0782c89.6645,67.3219,179.3393,134.63,268.9427,202.0331
		c3.6466,2.7431,7.1974,4.0275,11.8224,4.019c73.1615-0.1342,146.3236-0.043,219.485-0.2157
		c4.595-0.0109,6.587,1.4414,8.3503,5.5611c62.4918,145.9911,125.1151,291.9258,187.7103,437.8727
		C1456.5846,676.999,1457.1659,678.7038,1458.0265,680.9606z M713.8451,538.9847c0-50.6644,0-100.7314,0-150.8536
		c-68.991,0-137.6589,0-206.2748,0c0,50.5291,0,100.5917,0,150.8536C576.4716,538.9847,645.0222,538.9847,713.8451,538.9847z
		 M741.553,538.8709c68.9548,0,137.624,0,206.4027,0c0-50.4409,0-100.5157,0-150.8174c-68.9542,0-137.6439,0-206.4027,0
		C741.553,438.512,741.553,488.5819,741.553,538.8709z M724.7808,2.5048c-1.3122,0.9662-2.123,1.5448-2.9147,2.1486
		c-55.507,42.336-111.0143,84.6717-166.5176,127.0124c-53.2529,40.6239-106.4863,81.2732-159.7935,121.8258
		c-2.915,2.2177-4.3271,4.438-4.214,8.2601c0.2958,9.9908,0.0991,19.9963,0.0989,29.9958
		c-0.0001,3.7566-0.0001,7.5131-0.0001,11.2697c0.5268,0.3836,1.0536,0.7673,1.5803,1.1509
		c113.0707-79.9863,221.9185-165.7121,333.8014-247.5429c1.3824,1.0016,2.746,1.9505,4.0685,2.9534
		c69.2968,52.553,138.5065,105.2214,207.9166,157.6243c38.8203,29.3083,77.9705,58.18,116.9849,87.2311
		c1.3779,1.026,2.8933,1.8674,5.0978,3.2762c0-16.1559-0.177-31.2804,0.1063-46.3962c0.0865-4.6191-1.2482-7.4933-5.0421-10.3346
		C961.004,179.8735,866.1647,108.621,771.3034,37.3975C755.8582,25.801,740.4013,14.2198,724.7808,2.5048z M713.9161,274.8738
		c-68.9832,0-137.551,0-206.3423,0c0,33.0236,0,65.7231,0,98.645c68.9313,0,137.514,0,206.3423,0
		C713.9161,340.608,713.9161,307.9961,713.9161,274.8738z M947.8389,373.4984c0-33.0494,0-65.7703,0-98.5958
		c-68.9413,0-137.5049,0-206.1897,0c0,33.0505,0,65.7476,0,98.5958C810.6096,373.4984,879.1913,373.4984,947.8389,373.4984z
		 M418.2574,591.3785c204.5434,0,408.5498,0,612.609,0c0.1123-1.0837,0.2397-1.7401,0.2397-2.3963
		c0.0098-98.6553,0.0117-197.3107-0.0071-295.9661c-0.0002-1.1351,0.1549-2.788-0.4895-3.3218
		c-4.3671-3.6174-8.9298-6.9985-14.4305-11.2254c0,99.1678,0,196.7509,0,294.5935c-195.135,0-389.8423,0-585.1014,0
		c0-97.4709,0-194.6597,0-292.8019c-2.442,1.5864-3.9577,2.892-5.7101,3.6514c-6.0413,2.6179-7.2837,7.0765-7.2686,13.4672
		c0.2281,96.1552,0.1584,192.311,0.1585,288.4666C418.2575,587.5024,418.2574,589.1591,418.2574,591.3785z"/>
	<path fill="#FFFFFF" d="M518.6942,779.4246c0,32.9317,0,65.6676,0,98.8132c-55.4914,0-110.826,0-166.4348,0
		c0-32.9515,0-65.6953,0-98.8132C407.711,779.4246,463.0592,779.4246,518.6942,779.4246z"/>
	<path fill="#FFFFFF" d="M1111.6324,878.3034c0-33.1304,0-65.862,0-98.9224c55.4823,0,110.6996,0,166.3152,0
		c0,32.8635,0,65.7181,0,98.9224C1222.6564,878.3034,1167.4475,878.3034,1111.6324,878.3034z"/>
	<path fill="#FFFFFF" d="M518.6962,898.2253c0,32.9987,0,65.7414,0,98.8515c-55.383,0-110.6161,0-166.28,0
		c0-32.7155,0-65.5824,0-98.8515C407.728,898.2253,463.0698,898.2253,518.6962,898.2253z"/>
	<path fill="#FFFFFF" d="M1278.0607,997.1772c-55.6248,0-110.853,0-166.3871,0c0-32.9977,0-65.7307,0-98.9079
		c55.4574,0,110.7794,0,166.3871,0C1278.0607,931.1838,1278.0607,963.9308,1278.0607,997.1772z"/>
	<path fill="#FFFFFF" d="M332.6462,779.3964c0,33.0572,0,65.7813,0,98.8779c-50.2829,0-100.3145,0-150.7946,0
		c0-32.8672,0-65.6994,0-98.8779C231.9576,779.3964,281.999,779.3964,332.6462,779.3964z"/>
	<path fill="#FFFFFF" d="M181.6764,997.1132c0-33.0919,0-65.8225,0-98.9217c50.3056,0,100.3405,0,150.8009,0
		c0,32.9123,0,65.7512,0,98.9217C282.337,997.1132,232.292,997.1132,181.6764,997.1132z"/>
	<path fill="#FFFFFF" d="M1091.9347,878.3662c-50.1973,0-100.1273,0-150.4652,0c0-32.8788,0-65.7519,0-98.9704
		c50.0288,0,100.0748,0,150.4652,0C1091.9347,812.3513,1091.9347,845.2176,1091.9347,878.3662z"/>
	<path fill="#FFFFFF" d="M1092.0809,898.2084c0,33.0757,0,65.704,0,98.7837c-50.0822,0-100.1368,0-150.6056,0
		c0-32.641,0-65.5192,0-98.7837C991.4813,898.2084,1041.5242,898.2084,1092.0809,898.2084z"/>
	<path fill="#FFFFFF" d="M713.8451,538.9847c-68.8229,0-137.3735,0-206.2748,0c0-50.2619,0-100.3246,0-150.8536
		c68.6158,0,137.2838,0,206.2748,0C713.8451,438.2534,713.8451,488.3203,713.8451,538.9847z"/>
	<path fill="#FFFFFF" d="M741.553,538.8709c0-50.289,0-100.3589,0-150.8174c68.7588,0,137.4485,0,206.4027,0
		c0,50.3018,0,100.3766,0,150.8174C879.177,538.8709,810.5078,538.8709,741.553,538.8709z"/>
	<path fill="#FFFFFF" d="M724.7808,2.5048c15.6205,11.715,31.0774,23.2962,46.5226,34.8928
		c94.8613,71.2234,189.7006,142.476,284.6501,213.5818c3.7939,2.8412,5.1287,5.7155,5.0421,10.3346
		c-0.2833,15.1158-0.1063,30.2402-0.1063,46.3962c-2.2045-1.4088-3.7198-2.2502-5.0978-3.2762
		c-39.0144-29.0511-78.1646-57.9227-116.9849-87.2311C869.3965,164.8,800.1868,112.1316,730.89,59.5786
		c-1.3224-1.0029-2.686-1.9518-4.0685-2.9534C614.9386,138.4559,506.0909,224.1817,393.0201,304.168
		c-0.5267-0.3836-1.0535-0.7673-1.5803-1.1509c0-3.7566-0.0001-7.5131,0.0001-11.2697c0.0002-9.9996,0.197-20.005-0.0989-29.9958
		c-0.1131-3.8221,1.299-6.0424,4.214-8.2601c53.3071-40.5526,106.5406-81.2019,159.7935-121.8258
		C610.8518,89.325,666.3591,46.9894,721.8661,4.6534C722.6577,4.0496,723.4686,3.4709,724.7808,2.5048z M724.8033,16.8825
		c-1.941,1.4426-3.4227,2.5108-4.8697,3.6241c-68.7867,52.9237-137.5696,105.8525-206.355,158.778
		c-35.3833,27.225-70.7819,54.4301-106.1204,81.7131c-1.7249,1.3317-3.9391,3.1917-4.1896,5.0407
		c-0.61,4.5046-0.1987,9.1475-0.1987,14.9302c108.4409-82.6181,215.9423-164.5205,323.5718-246.5205
		c107.8051,82.1327,215.2898,164.0214,323.6255,246.5584c0-3.7933-0.3085-6.3119,0.0615-8.7264
		c0.8862-5.7833-1.5471-9.2578-6.1735-12.7629c-89.8888-68.104-179.6338-136.3978-269.4077-204.6534
		C758.1854,42.2714,741.6257,29.6756,724.8033,16.8825z"/>
	<path fill="#FFFFFF" d="M713.9161,274.8738c0,33.1223,0,65.7342,0,98.645c-68.8283,0-137.411,0-206.3423,0
		c0-32.9219,0-65.6214,0-98.645C576.3651,274.8738,644.9329,274.8738,713.9161,274.8738z"/>
	<path fill="#FFFFFF" d="M947.8389,373.4984c-68.6476,0-137.2292,0-206.1897,0c0-32.8482,0-65.5453,0-98.5958
		c68.6848,0,137.2484,0,206.1897,0C947.8389,307.7281,947.8389,340.449,947.8389,373.4984z"/>
	<path fill="#FFFFFF" d="M418.2574,591.3785c0-2.2194,0.0001-3.8761,0-5.5328c-0.0001-96.1556,0.0696-192.3115-0.1585-288.4666
		c-0.0151-6.3906,1.2273-10.8492,7.2686-13.4672c1.7524-0.7593,3.2682-2.065,5.7101-3.6514c0,98.1423,0,195.331,0,292.8019
		c195.2591,0,389.9664,0,585.1014,0c0-97.8427,0-195.4257,0-294.5935c5.5007,4.2269,10.0635,7.608,14.4305,11.2254
		c0.6444,0.5338,0.4893,2.1866,0.4895,3.3218c0.0188,98.6553,0.0168,197.3107,0.0071,295.9661c0,0.6563-0.1274,1.3126-0.2397,2.3963
		C826.8073,591.3785,622.8008,591.3785,418.2574,591.3785z"/>
	<path d="M724.8033,16.8825c16.8224,12.7931,33.3821,25.3889,49.9444,37.9813c89.7739,68.2556,179.5189,136.5494,269.4077,204.6534
		c4.6263,3.5051,7.0597,6.9796,6.1735,12.7629c-0.37,2.4145-0.0615,4.933-0.0615,8.7264
		c-108.3357-82.537-215.8204-164.4257-323.6255-246.5584c-107.6296,82-215.1309,163.9024-323.5718,246.5205
		c0-5.7827-0.4113-10.4256,0.1987-14.9302c0.2504-1.8491,2.4647-3.709,4.1896-5.0407
		c35.3384-27.283,70.7371-54.4881,106.1204-81.7131c68.7853-52.9255,137.5682-105.8543,206.355-158.778
		C721.3806,19.3933,722.8622,18.3252,724.8033,16.8825z"/>
</g>
</svg>
