<svg id="Layer_1" data-name="Layer 1" xmlns="http://www.w3.org/2000/svg" viewBox="0 0 604.66699 666.66">
  <defs>
    <style>
      .cls-1 {
        fill: #7c7c7c;
        isolation: isolate;
      }

      .cls-2 {
        fill: #c6c6c6;
      }
    </style>
  </defs>
  <path id="dark" class="cls-1" d="M492.97,133.33333H306.96865c-147.33332,0-147.33332,78.33333-147.33332,147.33333V407c0,7.33334,3.33333,184,9,188.33333a23.33275,23.33275,0,0,0,20.33334,4q22.5-6,56-6c22.33333,0,27,2.66666,40.33333,12.66667l30.33333,32A116.08635,116.08635,0,0,0,484.97,638l30.33333-32c13.33335-10,18-12.66667,40.33333-12.66667s41,2,56,6c7,2,14.33334.33334,20.33335-4C637.63667,591,640.97,414,640.97,407V280.66666C640.30333,211.66666,640.30333,133.33333,492.97,133.33333Z" transform="translate(-97.65631 -66.66666)"/>
  <g id="light">
    <path class="cls-2" d="M622.98993,384.32666c-19-5-41.33331-7.66669-67.99994-7.66669-37,0-50.66669,9-69.66669,23.33332a21.56691,21.56691,0,0,0-3,2.66668l-31.66662,33.66669c-26.66669,28-74.66669,28.33331-101.33338-.33337L317.65631,402.66a21.56691,21.56691,0,0,0-3-2.66668c-19-14.33332-32.66662-23.33332-69.66662-23.33332-26.66669,0-49,2.66669-68,7.66669C97.65631,405.66,97.65631,468.66,97.65631,523.99329v31c0,83.66668,0,178.33337,178.33331,178.33337H523.99c118.33331,0,178.33331-60,178.33331-178.33337v-31C702.3233,468.66,702.3233,405.66,622.98993,384.32666ZM477.65668,613.3266H322.323a23.33573,23.33573,0,0,1,0-46.66663H477.65668a23.33573,23.33573,0,0,1,0,46.66663Z" transform="translate(-97.65631 -66.66666)"/>
    <path class="cls-2" d="M475.81,226.66666a22.53417,22.53417,0,0,0-31.66666,0l-21.66665,21.66666V89a22.66916,22.66916,0,0,0-45.33335,0V248L355.81,226.66666a22.39171,22.39171,0,0,0-31.66666,31.66666l60,60c.33334.33334.33334.33334.66668.33334A23.015,23.015,0,0,0,391.47665,323a25.03784,25.03784,0,0,0,8.66667,1.66668A26.61541,26.61541,0,0,0,408.81,323a18.04837,18.04837,0,0,0,7.33331-5l60-60C484.47664,249.66665,484.47664,235.33332,475.81,226.66666Z" transform="translate(-97.65631 -66.66666)"/>
  </g>
</svg>
