<svg id="a4bc3d27-358b-4b19-a717-aac67d6f48ff" data-name="a7fe86fc-986b-412c-b933-82a198b58c45" xmlns="http://www.w3.org/2000/svg" viewBox="0 0 1086.61065 294.39999"><defs><style>.afd6b73d-a8cb-4300-a649-51949e7c6a8b{fill:#d99938;}.ab57ac01-5a40-4b19-808e-fac5e8daa272{fill:#e5e5e5;}</style></defs><g id="ee30f58a-e5e4-446a-966c-2461d2db82c5" data-name="e59396bd-554d-4437-bf66-0460b0d36a81"><path class="afd6b73d-a8cb-4300-a649-51949e7c6a8b" d="M178.91281,335.90341a74.8,74.8,0,1,1,74.8-74.8v0h0A74.8,74.8,0,0,1,178.91281,335.90341Zm0-144.9a70.1,70.1,0,1,0,70.1,70.1h0a70.1,70.1,0,0,0-70.1-70.1Z" transform="translate(-41.31281 -41.50341)"/><path class="afd6b73d-a8cb-4300-a649-51949e7c6a8b" d="M178.91281,264.40341a74.8,74.8,0,1,1,74.8-74.8v0h0A74.8,74.8,0,0,1,178.91281,264.40341Zm0-144.9a70.1,70.1,0,1,0,70.1,70.1h0a70.1,70.1,0,0,0-70.1-70.1Z" transform="translate(-41.31281 -41.50341)"/><path class="afd6b73d-a8cb-4300-a649-51949e7c6a8b" d="M178.91281,191.10342a74.8,74.8,0,1,1,74.8-74.8v0h0A74.8,74.8,0,0,1,178.91281,191.10342Zm0-144.9a70.1,70.1,0,1,0,70.1,70.1,70.1,70.1,0,0,0-70.1-70.1h0Z" transform="translate(-41.31281 -41.50341)"/><path class="afd6b73d-a8cb-4300-a649-51949e7c6a8b" d="M241.71283,227.50342a74.8,74.8,0,1,1,74.8-74.8,74.8,74.8,0,0,1-74.8,74.8Zm0-144.9a70.1,70.1,0,1,0,70.1,70.1,70.1,70.1,0,0,0-70.1-70.1Z" transform="translate(-41.31281 -41.50341)"/><path class="afd6b73d-a8cb-4300-a649-51949e7c6a8b" d="M241.11283,300.8034a74.8,74.8,0,1,1,74.8-74.8v0h0A74.8,74.8,0,0,1,241.11283,300.8034Zm0-144.9a70.1,70.1,0,1,0,70.1,70.1h0a70.1,70.1,0,0,0-70.1-70.1Z" transform="translate(-41.31281 -41.50341)"/><path class="afd6b73d-a8cb-4300-a649-51949e7c6a8b" d="M116.71283,226.90341a74.8,74.8,0,1,1,74.8-74.8h0a74.8,74.8,0,0,1-74.8,74.8Zm0-144.9a70.1,70.1,0,1,0,70.1,70.1h0a70.1,70.1,0,0,0-70.1-70.1Z" transform="translate(-41.31281 -41.50341)"/><path class="afd6b73d-a8cb-4300-a649-51949e7c6a8b" d="M116.11283,300.20343a74.8,74.8,0,1,1,74.8-74.8h0A74.8,74.8,0,0,1,116.11283,300.20343Zm0-144.9a70.1,70.1,0,1,0,70.1,70.1h0a70.1,70.1,0,0,0-70.1-70.1h0Z" transform="translate(-41.31281 -41.50341)"/><path class="afd6b73d-a8cb-4300-a649-51949e7c6a8b" d="M179.51282,186.10342c-21.7-35.2,0-65.7,0-65.7" transform="translate(-41.31281 -41.50341)"/><path class="afd6b73d-a8cb-4300-a649-51949e7c6a8b" d="M177.71283,258.80342c22.1-35,.7-65.7.7-65.7" transform="translate(-41.31281 -41.50341)"/><path class="afd6b73d-a8cb-4300-a649-51949e7c6a8b" d="M181.91281,187.10342c19.9-36.3,57.1-32.4,57.1-32.4" transform="translate(-41.31281 -41.50341)"/><path class="afd6b73d-a8cb-4300-a649-51949e7c6a8b" d="M238.71283,223.60342c-19-36.7-56.8-33.1-56.8-33.1" transform="translate(-41.31281 -41.50341)"/><path class="afd6b73d-a8cb-4300-a649-51949e7c6a8b" d="M175.11283,191.10342c-19.9,36.3-57.1,32.4-57.1,32.4" transform="translate(-41.31281 -41.50341)"/><path class="afd6b73d-a8cb-4300-a649-51949e7c6a8b" d="M118.81282,154.10341c19.2,36.6,57,32.7,57,32.7" transform="translate(-41.31281 -41.50341)"/></g><g id="b8170af3-b664-4081-acb8-f8efc84559b8" data-name="a34c2e6a-75ce-4a4f-b1d3-d9c242c16210"><path class="afd6b73d-a8cb-4300-a649-51949e7c6a8b" d="M822.46014,105.79088l19.93606,53.65344a4.1477,4.1477,0,0,0,3.61259,2.80979,3.47878,3.47878,0,0,0,3.47878-3.47878h0V119.17079c0-8.697,4.95059-14.5841,14.7179-14.5841s13.24611,4.683,15.78828,12.30954l16.1897,42.54809a4.14771,4.14771,0,0,0,3.61259,2.80979,3.345,3.345,0,0,0,3.345-3.345h0V105.79088h11.7743v53.252c0,8.83075-4.95058,14.58409-14.85171,14.58409s-13.11229-4.683-15.65451-12.30953l-16.18969-42.5481a4.014,4.014,0,0,0-3.74636-2.80979c-2.007,0-3.345,1.4718-3.345,3.88017v39.33693c0,8.83074-4.95058,14.58409-14.85171,14.58409s-13.11229-4.683-15.65451-12.30953l-20.605-55.66035Z" transform="translate(-41.31281 -41.50341)"/><path class="afd6b73d-a8cb-4300-a649-51949e7c6a8b" d="M933.37962,172.289H920.5349l23.41484-59.273c2.54218-6.15477,6.95757-8.56313,14.04891-8.56313s11.37292,2.40836,13.78129,8.56313l22.47823,59.273H981.27968L961.20982,118.7694a3.07736,3.07736,0,0,0-3.21117-2.2746,3.21121,3.21121,0,0,0-3.345,2.2746Z" transform="translate(-41.31281 -41.50341)"/><path class="afd6b73d-a8cb-4300-a649-51949e7c6a8b" d="M1040.15128,105.79088c14.98552,0,21.40786,9.23213,21.40786,19.936,0,8.29556-4.014,17.12627-14.04891,20.06987l15.3869,26.62605H1049.9186l-15.11928-25.82325h-17.39388a1.47182,1.47182,0,0,0-1.73068,1.15633l-.00869.04785V172.289h-11.64054V145.9306c0-7.49275,3.21117-10.57012,10.43631-10.57012h25.957c6.55614,0,9.23213-4.54916,9.23213-9.23213s-2.80979-8.83074-9.23213-8.83074h-36.39333V105.65707Z" transform="translate(-41.31281 -41.50341)"/><path class="afd6b73d-a8cb-4300-a649-51949e7c6a8b" d="M1127.78969,105.79088v11.64053h-33.316c-6.95757,0-10.03493,3.21117-10.03493,8.42933s3.47879,7.89414,10.16874,7.89414h32.78078V144.325h-33.04839c-6.69,0-10.16874,2.676-10.16874,8.02794s3.21117,8.42933,10.03493,8.42933h33.71735v11.64054h-33.71735c-15.78828,0-22.21066-7.76033-22.21066-18.19669,0-7.62656,3.47879-12.71091,9.49975-15.25309-6.15477-2.54217-9.36594-7.76033-9.36594-14.98551,0-10.70393,6.69-18.19669,22.34446-18.19669Z" transform="translate(-41.31281 -41.50341)"/><path class="ab57ac01-5a40-4b19-808e-fac5e8daa272" d="M454.11125,105.79088c15.65449,0,22.34445,7.35895,22.34445,18.19668,0,7.76033-3.345,12.30953-9.63354,14.85171,6.28856,2.54217,9.90114,7.49276,9.90114,15.25309,0,10.70392-6.55616,18.33049-22.34445,18.33049H424.80924c-3.74637,0-5.48576-1.73937-5.48576-5.48577V111.14284c0-3.61259,1.73939-5.48577,5.48576-5.48577h29.302ZM430.6964,133.88869h23.68245c6.95755,0,10.30253-2.54218,10.30253-8.02795s-3.07738-8.69694-10.16873-8.69694H432.0344c-.8028,0-1.338.40138-1.338,1.20418Zm0,25.8232c0,.80281.5352,1.07038,1.338,1.07038h22.74584c6.95756,0,10.30253-3.21117,10.30253-8.69694s-3.47877-8.56313-10.30253-8.56313H430.6964Z" transform="translate(-41.31281 -41.50341)"/><path class="ab57ac01-5a40-4b19-808e-fac5e8daa272" d="M526.229,105.79088c14.9855,0,21.40786,9.23213,21.40786,19.936,0,8.29556-4.014,17.12627-14.18271,20.06987l15.5207,26.626H536.1301L520.877,146.5996H503.48311a1.47179,1.47179,0,0,0-1.73068,1.15633l-.0087.04785V172.289H490.237V145.9306c0-7.49275,3.21118-10.57012,10.43633-10.57012h25.957c6.55616,0,9.23214-4.54916,9.23214-9.23213s-2.80978-8.83074-9.23214-8.83074H490.1032V105.65707Z" transform="translate(-41.31281 -41.50341)"/><path class="ab57ac01-5a40-4b19-808e-fac5e8daa272" d="M567.30528,172.289H554.46057l23.41484-59.273c2.40839-6.15477,6.95755-8.56313,14.0489-8.56313s11.50673,2.40836,13.78132,8.56313l22.47825,59.273H615.20537L595.0017,118.7694a3.07738,3.07738,0,0,0-3.21117-2.2746,3.21121,3.21121,0,0,0-3.345,2.2746Z" transform="translate(-41.31281 -41.50341)"/><path class="ab57ac01-5a40-4b19-808e-fac5e8daa272" d="M649.72552,105.79088v27.02743h33.985v-27.1612h11.77433V172.289H683.71048V144.45885h-33.985V172.289H638.085V105.65711h11.64052Z" transform="translate(-41.31281 -41.50341)"/><path class="ab57ac01-5a40-4b19-808e-fac5e8daa272" d="M723.18123,172.289H711.54072V119.037c0-8.69694,4.81677-14.58409,14.85171-14.58409s13.11231,4.683,15.65449,12.30953l16.18969,42.54809a4.14777,4.14777,0,0,0,3.74636,2.80979,3.47878,3.47878,0,0,0,3.47879-3.47878h0V119.037c0-8.69694,4.81677-14.58409,14.7179-14.58409s13.11229,4.683,15.78827,12.30953L816.573,172.28908H803.99588l-19.80225-53.65344a4.01394,4.01394,0,0,0-3.74636-2.80979c-2.007,0-3.345,1.4718-3.345,3.88016v39.33693c0,8.83075-5.08434,14.58409-14.8517,14.58409s-13.11232-4.683-15.65449-12.30953l-16.1897-42.5481a4.014,4.014,0,0,0-3.61257-2.80978,3.47876,3.47876,0,0,0-3.47879,3.345V172.289Z" transform="translate(-41.31281 -41.50341)"/></g><path class="afd6b73d-a8cb-4300-a649-51949e7c6a8b" d="M465.18774,280.889l-.07227-30.24023-14.832,24.91211h-5.25586l-14.75976-24.26367V280.889H419.32348V230.48857h9.64844l18.86426,31.32032,18.57617-31.32032h9.57519l.14454,50.40039Z" transform="translate(-41.31281 -41.50341)"/><path class="afd6b73d-a8cb-4300-a649-51949e7c6a8b" d="M487.86645,234.95342a6.09952,6.09952,0,0,1,0-8.92871,7.12649,7.12649,0,0,1,5.04-1.79981,7.3021,7.3021,0,0,1,5.04,1.72852,5.53949,5.53949,0,0,1,1.94433,4.31933,6.11651,6.11651,0,0,1-1.94433,4.64453,7.04384,7.04384,0,0,1-5.04,1.83594A7.12217,7.12217,0,0,1,487.86645,234.95342Zm-.57617,7.19922H498.5227V280.889H487.29028Z" transform="translate(-41.31281 -41.50341)"/><path class="afd6b73d-a8cb-4300-a649-51949e7c6a8b" d="M512.56274,280.27666a24.62468,24.62468,0,0,1-7.34375-2.98731l3.74316-8.06445a23.535,23.535,0,0,0,6.26465,2.7002,26.24215,26.24215,0,0,0,7.2002,1.04394q7.12792,0,7.12793-3.52832a2.49816,2.49816,0,0,0-1.94434-2.376,28.8295,28.8295,0,0,0-5.97559-1.22363,57.56033,57.56033,0,0,1-7.84863-1.65625,12.1687,12.1687,0,0,1-5.36426-3.31152q-2.26756-2.376-2.26757-6.76856a10.60124,10.60124,0,0,1,2.124-6.51562,13.662,13.662,0,0,1,6.19238-4.42774,26.44417,26.44417,0,0,1,9.61133-1.584,37.74362,37.74362,0,0,1,8.17188.89941,22.87568,22.87568,0,0,1,6.73242,2.48438l-3.74414,7.99219a22.35343,22.35343,0,0,0-11.16016-2.88086,11.34906,11.34906,0,0,0-5.39941,1.00879,2.965,2.965,0,0,0-1.80078,2.59179,2.5718,2.5718,0,0,0,1.94433,2.51953,34.32164,34.32164,0,0,0,6.19238,1.36817,66.58879,66.58879,0,0,1,7.77539,1.69238,11.6919,11.6919,0,0,1,5.25684,3.27539,9.30481,9.30481,0,0,1,2.23145,6.624,10.22447,10.22447,0,0,1-2.16016,6.4082,13.7879,13.7879,0,0,1-6.29981,4.35644,28.09287,28.09287,0,0,1-9.82812,1.54786A37.62361,37.62361,0,0,1,512.56274,280.27666Z" transform="translate(-41.31281 -41.50341)"/><path class="afd6b73d-a8cb-4300-a649-51949e7c6a8b" d="M550.79418,280.27666a24.6249,24.6249,0,0,1-7.34375-2.98731l3.74317-8.06445a23.53469,23.53469,0,0,0,6.26465,2.7002,26.24208,26.24208,0,0,0,7.20019,1.04394q7.12794,0,7.12793-3.52832a2.49816,2.49816,0,0,0-1.94433-2.376,28.8295,28.8295,0,0,0-5.97559-1.22363,57.55967,57.55967,0,0,1-7.84863-1.65625,12.16859,12.16859,0,0,1-5.36426-3.31152q-2.26758-2.376-2.26758-6.76856a10.6013,10.6013,0,0,1,2.124-6.51562,13.66205,13.66205,0,0,1,6.19239-4.42774,26.44417,26.44417,0,0,1,9.61133-1.584,37.74353,37.74353,0,0,1,8.17187.89941,22.87558,22.87558,0,0,1,6.73242,2.48438l-3.74414,7.99219a22.35339,22.35339,0,0,0-11.16015-2.88086,11.34911,11.34911,0,0,0-5.39942,1.00879,2.965,2.965,0,0,0-1.80078,2.59179,2.57181,2.57181,0,0,0,1.94434,2.51953,34.32122,34.32122,0,0,0,6.19238,1.36817,66.58925,66.58925,0,0,1,7.77539,1.69238,11.692,11.692,0,0,1,5.25684,3.27539,9.30485,9.30485,0,0,1,2.23144,6.624,10.22447,10.22447,0,0,1-2.16016,6.4082,13.78787,13.78787,0,0,1-6.2998,4.35644,28.09291,28.09291,0,0,1-9.82812,1.54786A37.62363,37.62363,0,0,1,550.79418,280.27666Z" transform="translate(-41.31281 -41.50341)"/><path class="afd6b73d-a8cb-4300-a649-51949e7c6a8b" d="M586.00122,234.95342a6.09952,6.09952,0,0,1,0-8.92871,7.12645,7.12645,0,0,1,5.04-1.79981,7.30209,7.30209,0,0,1,5.04,1.72852,5.5395,5.5395,0,0,1,1.94434,4.31933,6.11652,6.11652,0,0,1-1.94434,4.64453,7.04383,7.04383,0,0,1-5.04,1.83594A7.12212,7.12212,0,0,1,586.00122,234.95342Zm-.57618,7.19922h11.23243V280.889H585.425Z" transform="translate(-41.31281 -41.50341)"/><path class="afd6b73d-a8cb-4300-a649-51949e7c6a8b" d="M614.54809,278.90849a18.9908,18.9908,0,0,1-7.5957-7.09179,20.73819,20.73819,0,0,1,0-20.5918,18.99766,18.99766,0,0,1,7.5957-7.0918,24.78707,24.78707,0,0,1,21.92383,0,19.06841,19.06841,0,0,1,7.56055,7.0918,20.73826,20.73826,0,0,1,0,20.5918,19.06148,19.06148,0,0,1-7.56055,7.09179,24.77847,24.77847,0,0,1-21.92383,0Zm18.07227-9.57519a12.39225,12.39225,0,0,0,0-15.624,9.35466,9.35466,0,0,0-7.0918-2.916,9.47,9.47,0,0,0-7.12793,2.916,12.26873,12.26873,0,0,0,0,15.624,9.47355,9.47355,0,0,0,7.12793,2.916A9.35817,9.35817,0,0,0,632.62036,269.3333Z" transform="translate(-41.31281 -41.50341)"/><path class="afd6b73d-a8cb-4300-a649-51949e7c6a8b" d="M689.429,245.89678q4.42676,4.31982,4.42773,12.8164V280.889H682.62426V260.44072q0-4.60693-2.01562-6.876a7.39533,7.39533,0,0,0-5.832-2.26757,8.938,8.938,0,0,0-6.76856,2.62793q-2.521,2.6294-2.51953,7.81152V280.889H654.2561V242.15264h10.72851v4.53613a14.92257,14.92257,0,0,1,5.54395-3.78028A19.33625,19.33625,0,0,1,677.8,241.57744Q684.99976,241.57744,689.429,245.89678Z" transform="translate(-41.31281 -41.50341)"/><path class="ab57ac01-5a40-4b19-808e-fac5e8daa272" d="M735.36352,278.40459a24.97343,24.97343,0,0,1-9.792-9.28809,27.07421,27.07421,0,0,1,0-26.85547,24.98713,24.98713,0,0,1,9.792-9.28808,31.24834,31.24834,0,0,1,25.84766-1.04395,23.74615,23.74615,0,0,1,8.89257,6.624l-7.48828,6.91211a16.10308,16.10308,0,0,0-12.67187-5.9043,16.8348,16.8348,0,0,0-8.35254,2.05176,14.59326,14.59326,0,0,0-5.72363,5.72461,18.02512,18.02512,0,0,0,0,16.7041,14.59725,14.59725,0,0,0,5.72363,5.72363,16.82452,16.82452,0,0,0,8.35254,2.05176,16.02217,16.02217,0,0,0,12.67187-5.97559l7.48828,6.91211a23.34719,23.34719,0,0,1-8.92871,6.69531,29.63426,29.63426,0,0,1-11.87988,2.30469A28.93974,28.93974,0,0,1,735.36352,278.40459Z" transform="translate(-41.31281 -41.50341)"/><path class="ab57ac01-5a40-4b19-808e-fac5e8daa272" d="M783.24243,278.90849a18.9909,18.9909,0,0,1-7.59571-7.09179,20.73826,20.73826,0,0,1,0-20.5918,18.99775,18.99775,0,0,1,7.59571-7.0918,24.78705,24.78705,0,0,1,21.92382,0,19.06828,19.06828,0,0,1,7.56055,7.0918,20.73819,20.73819,0,0,1,0,20.5918,19.06135,19.06135,0,0,1-7.56055,7.09179,24.77844,24.77844,0,0,1-21.92382,0Zm18.07226-9.57519a12.39225,12.39225,0,0,0,0-15.624,9.35462,9.35462,0,0,0-7.09179-2.916,9.47,9.47,0,0,0-7.12793,2.916,12.2687,12.2687,0,0,0,0,15.624,9.47353,9.47353,0,0,0,7.12793,2.916A9.35813,9.35813,0,0,0,801.31469,269.3333Z" transform="translate(-41.31281 -41.50341)"/><path class="ab57ac01-5a40-4b19-808e-fac5e8daa272" d="M858.12329,245.89678q4.42676,4.31982,4.42773,12.8164V280.889H851.3186V260.44072q0-4.60693-2.01563-6.876a7.3953,7.3953,0,0,0-5.832-2.26757,8.93793,8.93793,0,0,0-6.76855,2.62793q-2.521,2.6294-2.51953,7.81152V280.889H822.95043V242.15264H833.679v4.53613a14.92249,14.92249,0,0,1,5.54395-3.78028,19.33622,19.33622,0,0,1,7.27148-1.33105Q853.69408,241.57744,858.12329,245.89678Z" transform="translate(-41.31281 -41.50341)"/><path class="ab57ac01-5a40-4b19-808e-fac5e8daa272" d="M897.68579,279.01689a11.527,11.527,0,0,1-4.06836,1.83594,20.6092,20.6092,0,0,1-5.0752.61231q-6.9126,0-10.69238-3.52833-3.78076-3.52734-3.78027-10.36816V251.65654H868.094v-8.63965h5.97559v-9.43164H885.302v9.43164h9.64746v8.63965H885.302V267.4251a5.2891,5.2891,0,0,0,1.25976,3.78027,4.66525,4.66525,0,0,0,3.56446,1.332,7.21393,7.21393,0,0,0,4.53515-1.44043Z" transform="translate(-41.31281 -41.50341)"/><path class="ab57ac01-5a40-4b19-808e-fac5e8daa272" d="M920.18579,243.01689a20.17265,20.17265,0,0,1,7.88476-1.43945v10.36719q-1.87353-.14356-2.52051-.14356a10.2906,10.2906,0,0,0-7.55957,2.7002q-2.73778,2.6997-2.73632,8.09961V280.889H904.02172V242.15264h10.72852v5.1123A12.48657,12.48657,0,0,1,920.18579,243.01689Z" transform="translate(-41.31281 -41.50341)"/><path class="ab57ac01-5a40-4b19-808e-fac5e8daa272" d="M941.85864,278.90849a18.9909,18.9909,0,0,1-7.59571-7.09179,20.73826,20.73826,0,0,1,0-20.5918,18.99775,18.99775,0,0,1,7.59571-7.0918,24.78707,24.78707,0,0,1,21.92383,0,19.06832,19.06832,0,0,1,7.56054,7.0918,20.73819,20.73819,0,0,1,0,20.5918,19.06139,19.06139,0,0,1-7.56054,7.09179,24.77847,24.77847,0,0,1-21.92383,0Zm18.07226-9.57519a12.39225,12.39225,0,0,0,0-15.624,9.35462,9.35462,0,0,0-7.09179-2.916,9.47,9.47,0,0,0-7.12793,2.916,12.2687,12.2687,0,0,0,0,15.624,9.47353,9.47353,0,0,0,7.12793,2.916A9.35813,9.35813,0,0,0,959.9309,269.3333Z" transform="translate(-41.31281 -41.50341)"/><path class="ab57ac01-5a40-4b19-808e-fac5e8daa272" d="M981.56665,227.46514h11.23242V280.889H981.56665Z" transform="translate(-41.31281 -41.50341)"/><rect class="afd6b73d-a8cb-4300-a649-51949e7c6a8b" x="380.09545" y="159.99306" width="571.39081" height="1.10333"/><rect class="ab57ac01-5a40-4b19-808e-fac5e8daa272" x="322.23489" y="26.45764" width="7.55556" height="250.28404"/></svg>