<svg id="mission-control-full" xmlns="http://www.w3.org/2000/svg" viewBox="0 0 708.59998 176.33701">
  <defs>
    <style>
      .cls-1 {
        fill: #e5e5e5;
      }

      .cls-2 {
        fill: #d99938;
      }
    </style>
  </defs>
  <g id="light">
    <path class="cls-1" d="M34.78775,1.338c15.65448,0,22.34445,7.359,22.34445,18.19668,0,7.76034-3.345,12.30953-9.63354,14.85171,6.28857,2.54218,9.90115,7.49277,9.90115,15.25308,0,10.70392-6.55615,18.33049-22.34445,18.33049H5.48575C1.73938,67.96994,0,66.23058,0,62.48418V6.68994C0,3.07736,1.73938,1.20417,5.48575,1.20417h29.302ZM11.37292,29.43579H35.05536c6.95755,0,10.30252-2.54217,10.30252-8.02795S42.28049,12.7109,35.18915,12.7109H12.71091c-.8028,0-1.338.40138-1.338,1.20418Zm0,25.8232c0,.80281.53519,1.07037,1.338,1.07037H35.45679c6.95755,0,10.30252-3.21116,10.30252-8.69694s-3.47876-8.56313-10.30252-8.56313H11.37292Z" transform="translate(0 0)"/>
    <path class="cls-1" d="M106.90552,1.338c14.98547,0,21.40783,9.23213,21.40783,19.936,0,8.29556-4.014,17.12626-14.18273,20.06987l15.52069,26.626H116.80664L101.55353,42.14674H84.15964A1.47179,1.47179,0,0,0,82.429,43.30306h0l-.0087.04786V67.83615H70.91351V41.47774c0-7.49276,3.21118-10.57012,10.43634-10.57012h25.957c6.55616,0,9.23212-4.54916,9.23212-9.23213s-2.80975-8.83074-9.23212-8.83074H70.77972V1.20421Z" transform="translate(0 0)"/>
    <path class="cls-1" d="M147.98181,68.50512H135.13708l23.41486-59.273C160.96033,3.07735,165.50952.669,172.60083.669s11.50671,2.40837,13.78131,8.56314l22.47827,59.273H195.8819l-20.20368-53.5196a3.07738,3.07738,0,0,0-3.21118-2.2746,3.2112,3.2112,0,0,0-3.345,2.2746Z" transform="translate(0 0)"/>
    <path class="cls-1" d="M230.402,1.40488V28.43231h33.985V1.27111h11.77436V67.903H264.387V40.07285H230.402V67.903h-11.6405V1.27111H230.402Z" transform="translate(0 0)"/>
    <path class="cls-1" d="M303.85773,67.83609H292.21722v-53.252C292.21722,5.88715,297.034,0,307.06891,0s13.1123,4.683,15.65448,12.30953l16.1897,42.5481a4.1477,4.1477,0,0,0,3.74633,2.80978,3.47878,3.47878,0,0,0,3.47876-3.47877h0V14.58409C346.13818,5.88715,350.955,0,360.85608,0s13.1123,4.683,15.78827,12.30953l20.60516,55.52663H384.67236L364.87012,14.18274a4.01392,4.01392,0,0,0-3.74634-2.80979c-2.007,0-3.345,1.4718-3.345,3.88016V54.59c0,8.83074-5.08435,14.58409-14.85169,14.58409s-13.1123-4.683-15.65448-12.30953L311.083,14.3165a4.014,4.014,0,0,0-3.61261-2.80976,3.47875,3.47875,0,0,0-3.47876,3.345V67.83609Z" transform="translate(0 0)"/>
    <path class="cls-1" d="M316.04,172.98543a24.97331,24.97331,0,0,1-9.792-9.28809,27.074,27.074,0,0,1,0-26.85545,24.987,24.987,0,0,1,9.792-9.28808,31.24837,31.24837,0,0,1,25.84765-1.044,23.74625,23.74625,0,0,1,8.89258,6.624L343.292,140.046a16.10314,16.10314,0,0,0-12.67187-5.90429,16.83477,16.83477,0,0,0-8.35254,2.05175,14.593,14.593,0,0,0-5.72364,5.72461,18.0253,18.0253,0,0,0,0,16.7041,14.59736,14.59736,0,0,0,5.72364,5.72364,16.82468,16.82468,0,0,0,8.35254,2.05175,16.02214,16.02214,0,0,0,12.67187-5.97558l7.48828,6.91211a23.34742,23.34742,0,0,1-8.92871,6.69533,29.634,29.634,0,0,1-11.87988,2.30468A28.93937,28.93937,0,0,1,316.04,172.98543Z" transform="translate(0 0)"/>
    <path class="cls-1" d="M363.919,173.78034a18.99088,18.99088,0,0,1-7.59571-7.0918,20.73824,20.73824,0,0,1,0-20.5918A18.998,18.998,0,0,1,363.919,139.005a24.787,24.787,0,0,1,21.92382,0,19.06834,19.06834,0,0,1,7.56055,7.09179,20.73819,20.73819,0,0,1,0,20.5918,19.06145,19.06145,0,0,1-7.56055,7.0918A24.77848,24.77848,0,0,1,363.919,173.78034Zm18.07226-9.5752a12.39224,12.39224,0,0,0,0-15.624,9.35454,9.35454,0,0,0-7.09179-2.916,9.47,9.47,0,0,0-7.12793,2.916,12.26861,12.26861,0,0,0,0,15.624,9.47346,9.47346,0,0,0,7.12793,2.916A9.35811,9.35811,0,0,0,381.99127,164.20514Z" transform="translate(0 0)"/>
    <path class="cls-1" d="M438.7998,141.34474q4.42677,4.31983,4.42774,12.8164V176.337H431.99512V155.88874q0-4.60693-2.01563-6.876a7.39521,7.39521,0,0,0-5.832-2.26756,8.93781,8.93781,0,0,0-6.76855,2.62793q-2.521,2.62941-2.51953,7.8115V176.337H403.627V137.6006h10.72858v4.53614a14.9224,14.9224,0,0,1,5.54395-3.78028,19.33618,19.33618,0,0,1,7.27148-1.33105Q434.37054,137.02541,438.7998,141.34474Z" transform="translate(0 0)"/>
    <path class="cls-1" d="M478.3623,173.88855a11.52757,11.52757,0,0,1-4.06835,1.83594,20.60822,20.60822,0,0,1-5.0752.6123q-6.9126,0-10.69238-3.52832-3.78077-3.52734-3.78028-10.36816V146.52822h-5.97558v-8.63964h5.97558v-9.43165h11.23243v9.43165H475.626v8.63964h-9.64746v15.76852a5.28916,5.28916,0,0,0,1.25976,3.78027,4.66517,4.66517,0,0,0,3.56445,1.332,7.21391,7.21391,0,0,0,4.53516-1.44043Z" transform="translate(0 0)"/>
    <path class="cls-1" d="M500.8623,138.46488a20.17289,20.17289,0,0,1,7.88477-1.43946v10.36719q-1.87353-.14355-2.52051-.14355a10.29058,10.29058,0,0,0-7.55957,2.70019q-2.73779,2.69967-2.73633,8.09963V176.337H484.69824V137.6006h10.72852v5.11231A12.48643,12.48643,0,0,1,500.8623,138.46488Z" transform="translate(0 0)"/>
    <path class="cls-1" d="M522.53516,173.78034a18.99068,18.99068,0,0,1-7.59571-7.0918,20.73824,20.73824,0,0,1,0-20.5918,18.998,18.998,0,0,1,7.59571-7.09179,24.787,24.787,0,0,1,21.92382,0,19.0682,19.0682,0,0,1,7.56055,7.09179,20.73819,20.73819,0,0,1,0,20.5918,19.06145,19.06145,0,0,1-7.56055,7.0918A24.77848,24.77848,0,0,1,522.53516,173.78034Zm18.07226-9.5752a12.39224,12.39224,0,0,0,0-15.624,9.35459,9.35459,0,0,0-7.09179-2.916,9.47,9.47,0,0,0-7.12793,2.916,12.26861,12.26861,0,0,0,0,15.624,9.4735,9.4735,0,0,0,7.12793,2.916A9.35807,9.35807,0,0,0,540.60742,164.20514Z" transform="translate(0 0)"/>
    <path class="cls-1" d="M562.24316,122.91311h11.23243V176.337H562.24316Z" transform="translate(0 0)"/>
  </g>
  <g id="dark">
    <path class="cls-2" d="M403.13666,1.20421l19.936,53.65344a4.14768,4.14768,0,0,0,3.61261,2.80979,3.47878,3.47878,0,0,0,3.47876-3.47878h0V14.58412C430.164,5.88712,435.11459,0,444.88193,0S458.128,4.683,460.6702,12.30956l16.18969,42.54809a4.14775,4.14775,0,0,0,3.61261,2.8098,3.345,3.345,0,0,0,3.345-3.345h0V1.20421h11.7743v53.252c0,8.83075-4.95056,14.58409-14.85169,14.58409s-13.1123-4.683-15.65448-12.30952l-16.18969-42.5481a4.014,4.014,0,0,0-3.74634-2.80979c-2.007,0-3.345,1.4718-3.345,3.88017V54.59c0,8.83073-4.95057,14.58409-14.85169,14.58409s-13.1123-4.683-15.65448-12.30953l-20.605-55.66035Z" transform="translate(0 0)"/>
    <path class="cls-2" d="M514.05615,68.50512H501.21143l23.41485-59.273C527.16846,3.07735,531.58386.669,538.67517.669s11.37293,2.40837,13.78131,8.56314l22.47821,59.273H561.95618l-20.06983-53.5196a3.07738,3.07738,0,0,0-3.21118-2.2746,3.21118,3.21118,0,0,0-3.345,2.2746Z" transform="translate(0 0)"/>
    <path class="cls-2" d="M620.82776,1.338c14.98547,0,21.40784,9.23213,21.40784,19.936,0,8.29557-4.014,17.12627-14.04895,20.06987l15.38684,26.62606h-12.9784L615.47583,42.14667H598.082a1.4718,1.4718,0,0,0-1.73065,1.15633l-.00867.04785V67.83612H584.70209V41.47774c0-7.49275,3.21118-10.57011,10.43634-10.57011h25.957c6.55615,0,9.23218-4.54916,9.23218-9.23213s-2.80982-8.83074-9.23218-8.83074H584.70215V1.20419Z" transform="translate(0 0)"/>
    <path class="cls-2" d="M708.46619,1.27112V12.91166h-33.316c-6.95752,0-10.03491,3.21116-10.03491,8.42933s3.47876,7.89414,10.1687,7.89414h32.7807V39.80524H675.01636c-6.68994,0-10.1687,2.676-10.1687,8.02794s3.21118,8.42934,10.03491,8.42934H708.6V67.903H674.88257c-15.78833,0-22.21069-7.76033-22.21069-18.19668,0-7.62656,3.47875-12.71091,9.49975-15.2531-6.15478-2.54218-9.366-7.76033-9.366-14.98551,0-10.70393,6.69-18.1967,22.34449-18.1967Z" transform="translate(0 0)"/>
    <path class="cls-2" d="M45.86426,176.337,45.792,146.09674,30.96,171.00885H25.70413L10.94437,146.74518V176.337H0V125.93654H9.64844L28.5127,157.25687l18.57617-31.32031h9.57518l.14454,50.40039Z" transform="translate(0 0)"/>
    <path class="cls-2" d="M68.543,130.40139a6.0995,6.0995,0,0,1-.30821-8.6205v0q.14853-.15953.3082-.30819a7.12655,7.12655,0,0,1,5.04-1.79981,7.302,7.302,0,0,1,5.04,1.72853,5.53939,5.53939,0,0,1,1.94433,4.31932,6.11658,6.11658,0,0,1-1.94433,4.64454,7.04386,7.04386,0,0,1-5.04,1.83594A7.12222,7.12222,0,0,1,68.543,130.40139Zm-.57617,7.19921H79.19922V176.337H67.9668Z" transform="translate(0 0)"/>
    <path class="cls-2" d="M93.23926,175.14191a24.62488,24.62488,0,0,1-7.34375-2.98731l3.74315-8.06445a23.53579,23.53579,0,0,0,6.26465,2.7002,26.24266,26.24266,0,0,0,7.20021,1.04394q7.12792,0,7.12793-3.52832a2.49819,2.49819,0,0,0-1.94435-2.376,28.829,28.829,0,0,0-5.97559-1.22363,57.5638,57.5638,0,0,1-7.84863-1.65625,12.16882,12.16882,0,0,1-5.36426-3.31152Q86.831,153.36253,86.831,148.97a10.6015,10.6015,0,0,1,2.124-6.51562,13.6622,13.6622,0,0,1,6.19235-4.42774,26.44429,26.44429,0,0,1,9.61133-1.584,37.742,37.742,0,0,1,8.17187.89941,22.876,22.876,0,0,1,6.73242,2.48437l-3.74414,7.99219a22.35332,22.35332,0,0,0-11.16015-2.88086,11.349,11.349,0,0,0-5.39942,1.00879,2.965,2.965,0,0,0-1.80078,2.5918,2.57179,2.57179,0,0,0,1.94434,2.51951,34.32118,34.32118,0,0,0,6.19238,1.36817,66.58437,66.58437,0,0,1,7.77539,1.69238,11.69167,11.69167,0,0,1,5.25685,3.27539,9.30481,9.30481,0,0,1,2.23144,6.624,10.22431,10.22431,0,0,1-2.16015,6.40821,13.78811,13.78811,0,0,1-6.29982,4.35644,28.0921,28.0921,0,0,1-9.82811,1.54785A37.623,37.623,0,0,1,93.23926,175.14191Z" transform="translate(0 0)"/>
    <path class="cls-2" d="M131.4707,175.14191a24.62525,24.62525,0,0,1-7.34375-2.98731l3.74317-8.06445a23.53428,23.53428,0,0,0,6.26466,2.7002,26.24264,26.24264,0,0,0,7.2002,1.04394q7.12789,0,7.12793-3.52832a2.49818,2.49818,0,0,0-1.94434-2.376,28.829,28.829,0,0,0-5.97559-1.22363,57.56412,57.56412,0,0,1-7.84863-1.65625,12.16861,12.16861,0,0,1-5.36426-3.31152q-2.26756-2.376-2.26757-6.76856a10.60094,10.60094,0,0,1,2.124-6.51562,13.66206,13.66206,0,0,1,6.19239-4.42774,26.44415,26.44415,0,0,1,9.61131-1.584,37.74211,37.74211,0,0,1,8.17187.89941,22.87612,22.87612,0,0,1,6.73243,2.48437l-3.74414,7.99219a22.35336,22.35336,0,0,0-11.16016-2.88086,11.34925,11.34925,0,0,0-5.39941,1.00879,2.965,2.965,0,0,0-1.80079,2.5918,2.5718,2.5718,0,0,0,1.94434,2.51951,34.32118,34.32118,0,0,0,6.19238,1.36817,66.58437,66.58437,0,0,1,7.77539,1.69238,11.69181,11.69181,0,0,1,5.25684,3.27539,9.305,9.305,0,0,1,2.23144,6.624,10.22419,10.22419,0,0,1-2.16015,6.40821,13.78808,13.78808,0,0,1-6.29981,4.35644,28.09215,28.09215,0,0,1-9.82812,1.54785A37.6234,37.6234,0,0,1,131.4707,175.14191Z" transform="translate(0 0)"/>
    <path class="cls-2" d="M166.67773,130.40139a6.09951,6.09951,0,0,1-.30816-8.62052h0q.1485-.15953.30816-.30819a7.12657,7.12657,0,0,1,5.04-1.79981,7.302,7.302,0,0,1,5.04,1.72853,5.53958,5.53958,0,0,1,1.94428,4.31935,6.1165,6.1165,0,0,1-1.94434,4.64454,7.04384,7.04384,0,0,1-5.04,1.83594A7.12214,7.12214,0,0,1,166.67773,130.40139Zm-.57617,7.19921H177.334V176.337H166.1015Z" transform="translate(0 0)"/>
    <path class="cls-2" d="M195.22461,173.78034a18.99051,18.99051,0,0,1-7.5957-7.0918,20.73819,20.73819,0,0,1,0-20.5918,18.99785,18.99785,0,0,1,7.5957-7.09179,24.787,24.787,0,0,1,21.92383,0,19.06831,19.06831,0,0,1,7.56054,7.09179,20.73819,20.73819,0,0,1,0,20.5918,19.06136,19.06136,0,0,1-7.56054,7.0918A24.7785,24.7785,0,0,1,195.22461,173.78034Zm18.07227-9.5752a12.39227,12.39227,0,0,0,0-15.624,9.35472,9.35472,0,0,0-7.0918-2.916,9.47,9.47,0,0,0-7.12793,2.916,12.26878,12.26878,0,0,0,0,15.624,9.47352,9.47352,0,0,0,7.12793,2.916A9.35813,9.35813,0,0,0,213.29688,164.20514Z" transform="translate(0 0)"/>
    <path class="cls-2" d="M270.10553,141.34474q4.42676,4.31983,4.42773,12.8164V176.337H263.30078V155.88874q0-4.60693-2.01562-6.876a7.39524,7.39524,0,0,0-5.832-2.26756,8.938,8.938,0,0,0-6.76856,2.62793q-2.521,2.62941-2.51953,7.8115V176.337H234.93262V137.6006h10.72851v4.53614a14.92248,14.92248,0,0,1,5.54395-3.78028,19.33634,19.33634,0,0,1,7.27142-1.33105Q265.6763,137.02541,270.10553,141.34474Z" transform="translate(0 0)"/>
    <path class="cls-2" d="M571.48254,98.62891H2.078a2,2,0,0,1,0-4H571.48254a2,2,0,0,1,0,4Z" transform="translate(0 0)"/>
  </g>
</svg>
