<svg id="Layer_1" data-name="Layer 1" xmlns="http://www.w3.org/2000/svg" viewBox="0 0 92 92"><path d="M46,4.7108A41.2892,41.2892,0,1,0,87.2892,46,41.2951,41.2951,0,0,0,46,4.7108Zm3.3211,75.2181a1.7514,1.7514,0,0,0-.6283.09V60.541c4.6674-.09,8.8861-.18,12.7458-.4488A51.463,51.463,0,0,1,49.3211,79.9289Zm-6.6422,0A51.8827,51.8827,0,0,1,30.5614,60.0922c3.77.2692,8.0784.4488,12.7458.4488V80.0187C43.1277,80.0187,42.9482,79.9289,42.6789,79.9289ZM11.8916,46a40.612,40.612,0,0,1,.6283-6.6422c1.9747-.359,5.7446-.8976,11.04-1.4361a47.6841,47.6841,0,0,0-.718,8.1681,56.7376,56.7376,0,0,0,.6283,8.0783c-5.206-.5386-9.0657-1.0771-11.04-1.4362A56.6818,56.6818,0,0,1,11.8916,46Zm16.4259,0a43.7487,43.7487,0,0,1,.8976-8.6169c4.1289-.2692,8.7963-.5385,14.0921-.5385V55.1554c-5.206-.09-9.9632-.2693-14.1819-.6283A50.0258,50.0258,0,0,1,28.3175,46ZM49.2313,12.0711A54.7,54.7,0,0,1,61.3488,31.9078c-3.77-.2692-7.9886-.4488-12.656-.4488V11.9813C48.8723,11.9813,49.0518,12.0711,49.2313,12.0711Zm-5.9241-.09V31.459c-4.6674.09-8.8861.18-12.656.4488A54.8683,54.8683,0,0,1,42.6789,12.0711C42.9482,12.0711,43.1277,11.9813,43.3072,11.9813Zm5.3856,43.1741V36.8446c5.206.09,9.9632.2693,14.0921.5385a43.9668,43.9668,0,0,1,.09,17.2338C58.7458,54.8861,53.9886,55.0657,48.6928,55.1554ZM68.35,37.9217c5.2958.5385,9.0657,1.0771,11.04,1.4361A32.7229,32.7229,0,0,1,80.1084,46a40.612,40.612,0,0,1-.6283,6.6422c-1.9747.359-5.7446.8976-11.04,1.4361a47.8534,47.8534,0,0,0,.6283-8.1681A46.3874,46.3874,0,0,0,68.35,37.9217Zm9.4247-4.3084c-2.5133-.3591-6.1036-.8079-10.6813-1.2567a58.9426,58.9426,0,0,0-9.0657-18.3108A34.2082,34.2082,0,0,1,77.7747,33.6133ZM33.9723,14.0458a55.562,55.562,0,0,0-9.0657,18.2211c-4.4879.359-8.0783.8976-10.6813,1.2566A34.5707,34.5707,0,0,1,33.9723,14.0458ZM14.2253,58.3867c2.5133.3591,6.1036.8079,10.5916,1.2567a55.5643,55.5643,0,0,0,8.9759,18.2211A34.526,34.526,0,0,1,14.2253,58.3867ZM58.2072,77.8645a55.0163,55.0163,0,0,0,8.9759-18.1314c4.488-.359,8.0783-.8976,10.5916-1.2566A34.6388,34.6388,0,0,1,58.2072,77.8645Z"/></svg>