<svg id="Layer_1" data-name="Layer 1" xmlns="http://www.w3.org/2000/svg" viewBox="0 0 512 512"><path d="M256,0C114.6151,0,0,114.6151,0,256S114.6151,512,256,512,512,397.3849,512,256,397.3849,0,256,0Zm20.5913,466.3652a10.8677,10.8677,0,0,0-3.8956.5565V346.1565c28.9391-.5565,55.0956-1.1158,79.026-2.7826A319.0705,319.0705,0,0,1,276.5913,466.3652Zm-41.1826,0a321.6707,321.6707,0,0,1-75.13-122.9913c23.3739,1.67,50.0869,2.7826,79.026,2.7826V466.9217C238.1913,466.9217,237.0783,466.3652,235.4087,466.3652ZM44.5217,256a251.8128,251.8128,0,0,1,3.8957-41.1826c12.2435-2.2261,35.6174-5.5652,68.4522-8.9044a295.6912,295.6912,0,0,0-4.4522,50.6435,351.8357,351.8357,0,0,0,3.8957,50.087c-32.2783-3.3392-56.2087-6.6783-68.4522-8.9044A351.4715,351.4715,0,0,1,44.5217,256Zm101.8435,0a271.19,271.19,0,0,1,5.5652-53.4261c25.6-1.6695,54.5392-3.3391,87.3739-3.3391v113.53c-32.2782-.5565-61.7739-1.6695-87.93-3.8956A310.1635,310.1635,0,0,1,146.3652,256Zm129.67-210.3652a339.1439,339.1439,0,0,1,75.13,122.9913c-23.3739-1.67-49.53-2.7826-78.47-2.7826V45.0783C273.8087,45.0783,274.9217,45.6348,276.0348,45.6348Zm-36.7305-.5565V165.8435c-28.9391.5565-55.0956,1.113-78.47,2.7826A340.1927,340.1927,0,0,1,235.4087,45.6348C237.0783,45.6348,238.1913,45.0783,239.3043,45.0783Zm33.3914,267.6869v-113.53c32.2782.5565,61.7739,1.6695,87.3738,3.3391a272.5925,272.5925,0,0,1,.5566,106.8522C335.0261,311.0956,305.53,312.2087,272.6957,312.7652ZM394.5739,205.913c32.8348,3.3392,56.2087,6.6783,68.4522,8.9044A202.9033,202.9033,0,0,1,467.4783,256a251.8128,251.8128,0,0,1-3.8957,41.1826c-12.2434,2.2261-35.6174,5.5652-68.4522,8.9044a296.6242,296.6242,0,0,0,3.8957-50.6435A287.6308,287.6308,0,0,0,394.5739,205.913ZM453.0087,179.2c-15.5826-2.2261-37.8435-5.0087-66.2261-7.7913a365.4424,365.4424,0,0,0-56.2087-113.53A212.0965,212.0965,0,0,1,453.0087,179.2ZM181.4261,57.8783a344.4924,344.4924,0,0,0-56.2087,112.9739c-27.8261,2.2261-50.087,5.5652-66.2261,7.7913A214.3455,214.3455,0,0,1,181.4261,57.8783ZM58.9913,332.8c15.5826,2.2261,37.8435,5.0087,65.67,7.7913A344.5054,344.5054,0,0,0,180.313,453.5652,214.0655,214.0655,0,0,1,58.9913,332.8ZM331.6869,453.5652a341.104,341.104,0,0,0,55.6522-112.4174c27.8261-2.2261,50.087-5.5652,65.67-7.7913A214.767,214.767,0,0,1,331.6869,453.5652Z"/></svg>