<?xml version="1.0" encoding="iso-8859-1"?>
<!-- Generator: Adobe Illustrator 19.0.0, SVG Export Plug-In . SVG Version: 6.00 Build 0)  -->
<svg version="1.1" id="Layer_1" xmlns="http://www.w3.org/2000/svg" xmlns:xlink="http://www.w3.org/1999/xlink" x="0px" y="0px"
	 viewBox="0 0 481.882 481.882" style="enable-background:new 0 0 481.882 481.882;" xml:space="preserve">
<g>
	<g>
		<path d="M276.138,427.197c0-0.232,0.049-0.461,0.055-0.693c-1.286-1.361-2.104-3.174-2.104-5.195v-25.093h-66.289v25.093
			c0,1.422-0.496,2.679-1.175,3.817c0.055,0.69,0.165,1.378,0.165,2.07c0,0.247-0.099,0.541-0.111,0.794
			c9.856,19.864,26.47,42.467,35.286,53.892c8.595-11.124,24.567-32.836,34.507-52.297
			C276.363,428.789,276.138,427.939,276.138,427.197z"/>
	</g>
</g>
<g>
	<g>
		<path d="M240.948,105.815c-16.154,0-32.561,27.224-32.561,46.79v228.408h65.123V152.605
			C273.511,133.039,257.103,105.815,240.948,105.815z M263.384,159.787c-1.463,1.378-3.334,2.057-5.198,2.057
			c-2.026,0-4.053-0.806-5.545-2.402c-4.224-4.506-8.159-6.793-11.693-6.793c-3.533,0-7.476,2.287-11.7,6.793
			c-2.888,3.058-7.684,3.211-10.75,0.345c-3.058-2.872-3.215-7.684-0.342-10.746c7.216-7.695,14.885-11.597,22.792-11.597
			c7.907,0,15.576,3.902,22.785,11.597C266.606,152.107,266.45,156.917,263.384,159.787z"/>
	</g>
</g>
<g>
	<g>
		<path d="M180.287,335.844c-1.218,0-2.264,0.141-3.103,0.423c-5.605,1.585-9.28,6.463-9.28,11.964v65.476h24.692v-65.476
			C192.596,341.401,187.073,335.844,180.287,335.844z"/>
	</g>
</g>
<g>
	<g>
		<path d="M190.321,428.938h-21.067c1.181,4.206,5.783,11.93,11.018,19.247c4.827-6.741,8.986-13.698,10.556-18.06
			C190.645,429.723,190.498,429.337,190.321,428.938z"/>
	</g>
</g>
<g>
	<g>
		<path d="M35.749,361.405v19.607h116.951v-32.781c0-10.232,5.758-19.434,14.484-24.162v-55.001L35.749,361.405z"/>
	</g>
</g>
<g>
	<g>
		<path d="M293.67,428.938c-0.353,0.795-0.715,1.592-1.09,2.396c1.85,4.394,5.671,10.702,10.07,16.851
			c5.241-7.32,9.844-15.041,11.024-19.247H293.67z"/>
	</g>
</g>
<g>
	<g>
		<path d="M305.041,336.367c-7.67-2.509-15.747,3.802-15.747,11.864v65.476h24.693v-65.476
			C313.987,342.731,310.312,337.852,305.041,336.367z"/>
	</g>
</g>
<g>
	<g>
		<path d="M314.706,269.365v54.648c8.641,4.634,14.484,13.908,14.484,24.218v32.781h116.943v-19.6L314.706,269.365z"/>
	</g>
</g>
<g>
	<g>
		<path d="M240.986,0c-31.782,0-58.598,51.103-58.598,83.197v171.239v66.417c3.888,0.301,7.523,1.395,10.794,3.156V152.605
			c0-24.964,20.06-61.994,47.766-61.994c27.707,0,47.767,37.03,47.767,61.994v171.397c3.269-1.757,6.901-2.85,10.787-3.15v-66.093
			V83.197C299.502,51.103,272.723,0,240.986,0z"/>
	</g>
</g>
<g>
</g>
<g>
</g>
<g>
</g>
<g>
</g>
<g>
</g>
<g>
</g>
<g>
</g>
<g>
</g>
<g>
</g>
<g>
</g>
<g>
</g>
<g>
</g>
<g>
</g>
<g>
</g>
<g>
</g>
</svg>
