<svg id="Layer_1" data-name="Layer 1" xmlns="http://www.w3.org/2000/svg" viewBox="0 0 604.66699 599.9933">
  <defs>
    <style>
      .cls-1 {
        fill: #7c7c7c;
      }

      .cls-2 {
        fill: #c6c6c6;
      }
    </style>
  </defs>
  <path id="dark" class="cls-1" d="M395.31369,0H209.31235C61.979,0,61.979,78.33333,61.979,147.33333V273.66667c0,7.33335,3.33333,184,9,188.33328a23.33265,23.33265,0,0,0,20.33336,4q22.5-6,56-6c22.33334,0,27,2.66669,40.33331,12.66669l30.33334,32a116.08636,116.08636,0,0,0,164.087,5.24768q2.707-2.5393,5.24765-5.24768l30.33334-32c13.33338-10,18-12.66669,40.33332-12.66669s41,2,56,6c7,2,14.33331.33332,20.33337-4,5.66663-4.33331,8.99994-181.33331,8.99994-188.33331V147.33333C542.647,78.33333,542.647,0,395.31369,0Z"/>
  <g id="light">
    <path class="cls-2" d="M302.32684,52.96033a90.84185,90.84185,0,1,0,90.84186,90.84186v0a90.84182,90.84182,0,0,0-90.8418-90.84184Zm43.41785,69.85832L294.2374,174.32593a6.79866,6.79866,0,0,1-9.61475.01449l-.0145-.01449-25.70867-25.70821a6.8089,6.8089,0,1,1,9.62924-9.62923l20.89407,20.89361,46.69266-46.69268a6.8089,6.8089,0,1,1,9.62924,9.62923Z"/>
    <path class="cls-2" d="M525.33362,250.99333c-19-5-41.33331-7.66669-67.99994-7.66669-37,0-50.66669,9-69.66669,23.33332a21.56639,21.56639,0,0,0-3,2.66668l-31.66662,33.66669c-26.66669,28-74.66669,28.33331-101.33338-.33337L220,269.32668a21.56524,21.56524,0,0,0-3-2.66669c-19-14.33331-32.66663-23.33331-69.66663-23.33331-26.66668,0-49,2.66668-68,7.66668C0,272.32668,0,335.32668,0,390.66v31C0,505.32668,0,599.9933,178.33331,599.9933H426.33368c118.33331,0,178.33331-60,178.33331-178.33337v-31C604.667,335.32668,604.667,272.32668,525.33362,250.99333ZM380.00037,479.99324H224.66669a23.33573,23.33573,0,0,1,0-46.66663H380.00037a23.33573,23.33573,0,0,1,0,46.66663Z"/>
  </g>
</svg>
