<svg id="OBJECT" xmlns="http://www.w3.org/2000/svg" viewBox="0 0 750.01532 550.00008">
  <defs>
    <style>
      .cls-1 {
      fill: #7c7c7c;
      }

      .cls-2 {
      fill: #c6c6c6;
      }
    </style>
  </defs>
  <rect id="light" class="cls-1" x="50.00765" y="175" width="650" height="300" rx="25" />
  <g id="dark">
    <path class="cls-2"
      d="M770.25,410.5A25,25,0,0,0,750,400H50a25.2079,25.2079,0,0,0-23.75,33l75,225A24.9999,24.9999,0,0,0,125,675H675a24.9999,24.9999,0,0,0,23.75-17l75-225A24.99992,24.99992,0,0,0,770.25,410.5ZM250,600H200a25,25,0,0,1,0-50h50a25,25,0,0,1,0,50Z"
      transform="translate(-24.99235 -125)" />
    <path class="cls-2"
      d="M675.5,275a75,75,0,0,0-75-75H314l-42.75-63.75A25.00006,25.00006,0,0,0,250.5,125h-50a75,75,0,0,0-75,75V300h550Z"
      transform="translate(-24.99235 -125)" />
  </g>
</svg>