<svg id="Layer_1" data-name="Layer 1" xmlns="http://www.w3.org/2000/svg" viewBox="0 0 874.88911 875.43722">
  <path id="_Path_" data-name="&lt;Path&gt;" d="M233.75657,363.73045c0-14.385.22118-27.22358-.04023-40.05229-.89732-44.03632,17.34135-77.4189,57.55007-95.72481,39.58515-18.02207,76.78567-11.03022,109.67082,17.685a21.4439,21.4439,0,0,0,2.48534,1.45956c.436-70.1369,31.41238-117.42289,103.84436-123.07544,61.64846-4.811,98.87643,30.62444,114.75484,86.35627,1.38334-14.59877,1.10832-31.963,4.93862-48.36865C639.09005,110.05756,681.68207,73.2164,736.54961,68.949a530.17958,530.17958,0,0,1,92.15687.69958c60.35834,5.88976,106.085,55.63442,108.34643,116.27747.88954,23.85428.42279,48.13575-3.06638,71.68325-4.55984,30.77292-22.22573,54.93609-47.18557,73.36624-4.69566,3.4672-6.83734,6.889-6.90993,12.77Q878.58141,449.871,876.825,555.99076c-.48467,29.443,6.96843,56.32571,23.04291,81.192,15.42311,23.8585,27.70927,49.32708,33.09835,77.54547,1.72611,9.03854,3.61812,18.247,3.6135,27.37677-.01409,27.62,2.25169,55.75831-2.16185,82.74779-8.35369,51.08423-46.22142,83.45794-100.60107,92.28457-45.20225,7.33689-90.52776,14.1801-135.403,23.20849-82.10064,16.51778-151.50067-55.84719-134.12536-134.96474a17.59691,17.59691,0,0,0,.03133-3.6392C492.712,822.49966,464.33518,814.16074,418.11743,758.898c-42.26988,64.59109-133.0003,62.07554-172.74652-3.41433-1.90814,2.1144-3.75516,3.9708-5.38824,5.99931-26.84842,33.348-70.21106,46.04671-110.3936,32.29538-40.55993-13.8805-66.56776-49.68162-66.85489-93.256-.34271-52.00522-.08679-104.01439-.08879-156.02181-.00133-35.08194.18989-70.16513-.0485-105.24544-.29568-43.50568,17.43229-76.77175,57.38644-94.97343,39.54173-18.01372,76.73971-11.447,109.79839,17.07183A39.0984,39.0984,0,0,0,233.75657,363.73045ZM595.86441,468.135q0-33.22955,0-66.45909c-.00124-56.3056.25625-112.61277-.07828-168.9164-.326-54.87179-49.5879-93.04677-102.57762-79.98435-35.507,8.7528-61.29094,40.41571-61.34335,77.14373q-.33984,238.14435-.08831,476.28953c0,.92262.04063,1.84575.08059,2.76786,1.9588,45.21753,44.21369,81.29834,89.19869,76.16738,44.70947-5.09941,74.68694-38.35792,74.76775-83.47886Q596.033,584.90023,595.86441,468.135Zm-191.605,43.72768h-.04311c0-65.5393.32889-131.0809-.12489-196.6171-.26685-38.53443-31.64789-68.76041-70.68661-69.45267a70.83266,70.83266,0,0,0-71.98563,66.13c-.83411,12.8734-.45669,25.83185-.45965,38.75147q-.04023,175.38671-.1055,350.77325c-.03037,19.46,4.11446,37.16671,17.11094,52.16313a72.14218,72.14218,0,0,0,79.71489,20.6412c28.20453-10.4124,46.40795-36.008,46.512-66.69495C404.41316,642.32623,404.25942,577.0942,404.25942,511.86267ZM90.10186,566.38586c0,44.00974-.15509,88.0205.14349,132.02821a85.17981,85.17981,0,0,0,3.21807,23.60417c10.0491,33.52548,43.57633,54.05283,79.149,49.11686,35.50539-4.92673,61.001-34.64687,61.07988-72.10426q.27783-132.02854-.04345-264.05794a81.82465,81.82465,0,0,0-2.446-20.06771c-8.77611-34.076-42.38514-56.82864-76.85559-52.44576-37.65985,4.78843-63.9476,33.18148-64.17142,70.051C89.90484,477.13408,90.11153,521.76059,90.10186,566.38586Zm653.837-470.7928c-43.85583,1.028-82.25056,30.96575-90.354,74.19519-4.13491,22.05861-3.83255,45.37685-2.49537,67.9456,2.91974,49.27935,38.85431,85.92757,87.90226,89.45625a587.3289,587.3289,0,0,0,82.09438.11739c47.1468-3.23512,82.78708-37.80072,88.09376-84.61817,2.033-17.935,1.09953-36.27313.66648-54.40726-1.01082-42.32966-29.97471-79.67034-71.26139-89.00274-17.76173-4.01484-38.38634-3.0729-56.75513-4.35472-1.82635-.12744,1.83042-.03715,0,0ZM823.4318,717.47524a64.30833,64.30833,0,0,0-9.16161.51437c-53.59584,9.19194-107.397,17.38033-160.6858,28.10974-44.41263,8.94222-72.03658,55.47033-62.77532,101.26028,8.89184,43.96352,51.842,74.08882,96.02026,66.83522,49.41984-8.11428,98.717-16.97811,148.15-25.00841,46.65435-7.579,81.04846-46.44628,73.35077-101.60761C902.87443,748.48213,866.00624,717.56412,823.4318,717.47524ZM735.87552,477.94562c-27.25548.70486-53.77685,5.92554-77.33239,21.59758-8.33492,5.54547-10.31164,13.52477-5.63457,20.39041,4.55,6.679,11.76959,7.362,20.30379,2.65351,6.948-3.83346,13.98747-7.90987,21.49371-10.253,36.195-11.29833,71.188-9.92024,104.55851,10.30127,4.03032,2.44223,11.44555,2.16524,15.88152.10776,3.18845-1.47887,6.22767-8.54282,5.36687-12.17514-1.11045-4.685-5.41387-9.60628-9.67334-12.38558C788.292,483.46973,762.86517,478.58178,735.87552,477.94562Z" transform="translate(-62.55545 -67.28139)"/>
  <path d="M776.8186,158.55064c27.33506.58533,53.23752,5.87294,76.48951,20.88686,6.1534,3.97323,10.22553,9.09143,8.30939,16.87813-2.2926,9.31533-12.58824,12.84875-21.48036,7.27493-34.10691-21.37911-70.14912-21.99216-107.214-9.81246-6.62071,2.17561-12.74294,6.02735-18.87311,9.49771-8.37741,4.74247-15.82105,3.8159-20.27618-2.97636-4.35611-6.64122-2.51194-14.66753,5.26453-19.86271C722.59562,164.69888,749.1197,159.24637,776.8186,158.55064Z" transform="translate(-62.55545 -67.28139)"/>
  <path d="M720.44937,843.08641c-.93772,4.86294-1.607,8.78133-2.45508,12.6606-6.99643,32.001-62.17365,42.888-80.45851,25.28051-1.54689-1.48951-3.56238-2.68372-4.6251-4.45592-13.34173-22.24794-18.39667-46.10678-10.22181-71.08387,3.9788-12.15688,13.94807-20.68,26.78484-23.158,12.13327-2.34231,24.88883-4.64235,36.95881-3.28877,13.651,1.53077,23.19468,11.69386,26.79437,25.02645C716.72891,817.03833,718.21245,830.5542,720.44937,843.08641Z" transform="translate(-62.55545 -67.28139)"/>
</svg>
