<svg id="Capa_1" data-name="Capa 1" xmlns="http://www.w3.org/2000/svg" viewBox="0 0 589.67524 479.84778">
  <defs>
    <style>
      .cls-1 {
        fill: none;
      }
    </style>
  </defs>
  <path d="M235.15673,269.55383A90.74777,90.74777,0,0,1,200.09325,235.15q-12.6687-21.91713-12.66894-49.28138,0-27.35994,12.66894-49.28186a90.77582,90.77582,0,0,1,35.06348-34.40384q22.39233-12.48443,50.2915-12.4867,27.89279,0,50.16358,12.4867a91.98821,91.98821,0,0,1,35.06344,34.40384q12.79395,21.91787,12.79688,49.28186,0,27.366-12.79688,49.28138a91.9595,91.9595,0,0,1-35.06347,34.40384q-22.2671,12.49122-50.16351,12.48669Q257.54886,282.04052,235.15673,269.55383Zm78.95606-31.74695a53.42351,53.42351,0,0,0,20.09082-21.12137q7.29487-13.54806,7.29492-30.8169,0-17.26651-7.29492-30.8179a53.42089,53.42089,0,0,0-20.09082-21.12036,58.04451,58.04451,0,0,0-57.32959,0,53.40046,53.40046,0,0,0-20.09082,21.12036q-7.2942,13.54962-7.29444,30.8179,0,17.27267,7.29444,30.8169a53.40353,53.40353,0,0,0,20.09082,21.12137A58.04786,58.04786,0,0,0,314.11279,237.80688Z" transform="translate(-3.99303 0.00003)"/>
  <path class="cls-1" d="M592.66826,138.18459c0,49.28643-50.101,89.241-111.90361,89.241-27.8622,0-53.3461-8.1205-72.93329-21.55562" transform="translate(-3.99303 0.00003)"/>
  <path class="cls-1" d="M593.66826,138.18459c0,49.28643-50.101,89.241-111.90361,89.241-27.8622,0-53.3461-8.1205-72.93329-21.55562" transform="translate(-3.99303 0.00003)"/>
  <path class="cls-1" d="M592.66826,138.18459c0,49.28643-50.101,89.241-111.90361,89.241-27.8622,0-53.3461-8.1205-72.93329-21.55562" transform="translate(-3.99303 0.00003)"/>
  <path class="cls-1" d="M591.66826,138.18459c0,49.28643-50.101,89.241-111.90361,89.241-27.8622,0-53.3461-8.1205-72.93329-21.55562" transform="translate(-3.99303 0.00003)"/>
  <path class="cls-1" d="M590.66826,138.18459c0,49.28643-50.101,89.241-111.90361,89.241-27.8622,0-53.3461-8.1205-72.93329-21.55562" transform="translate(-3.99303 0.00003)"/>
  <g>
    <path d="M512.92114,168.58792q22.16757-4.36578,36.60523-17.77423,21.36621-19.89834,21.37011-56.82428V4.90928A4.90931,4.90931,0,0,0,565.98717,0H534.85658a4.90931,4.90931,0,0,0-4.90931,4.90931v87.641q0,23.25917-10.23829,34.16663-10.23926,10.914-29.68847,10.90979-39.92578,0-39.92578-45.07642V4.90928A4.90931,4.90931,0,0,0,445.18542,0h-31.6433a4.90931,4.90931,0,0,0-4.90931,4.90931V93.98941q-.00009,36.92588,21.3711,56.82428c10.299,9.59479,22.57708,15.69971,38.81054,18.3559,0,.03607-.00091.07183-.00091.10791a140.45011,140.45011,0,0,0,19.90936,1.40924A139.74519,139.74519,0,0,0,512.92114,168.58792Z" transform="translate(-3.99303 0.00003)"/>
    <path d="M467.51569,242.11166l-.04609-.01029a4.94509,4.94509,0,0,0-5.93878,3.85783c-8.68807,44.63769-24.97525,85.43255-47.91852,118.94452C379.82324,414.25815,335.84082,441.438,289.76563,441.438c-46.07471,0-90.05762-27.17981-123.84571-76.53327-35.35016-51.635-54.8291-120.54657-55.09961-194.18988V117.00919a23.58605,23.58605,0,0,1,3.68317-12.60877l61.17575-96.8697A4.90931,4.90931,0,0,0,171.52836,0H144.06873a7.84781,7.84781,0,0,0-6.63691,3.6598L94.101,72.32836a2.62464,2.62464,0,0,1-4.43934,0L46.33039,3.65974A7.8478,7.8478,0,0,0,39.6935,0H8.91026a4.90931,4.90931,0,0,0-4.15,7.53209l60.53446,95.78248a25.99368,25.99368,0,0,1,4.06415,13.90369v53.49658c.27557,80.91089,22.51947,157.18549,62.04931,214.92627,19.88184,29.04065,43.231,51.96265,69.39844,68.12928,28.00879,17.30383,57.93848,26.07739,88.959,26.07739s60.95117-8.77356,88.959-26.07739c26.168-16.16663,49.51758-39.08863,69.39941-68.12928,26.04828-38.04825,44.42434-84.14859,54.01334-134.3165a4.90428,4.90428,0,0,0-4.75881-5.8485A138.79381,138.79381,0,0,1,467.51569,242.11166Z" transform="translate(-3.99303 0.00003)"/>
  </g>
</svg>
