<svg id="ee386993-ac06-4b79-b0ca-be8559bd2323" data-name="Layer 1" xmlns="http://www.w3.org/2000/svg" viewBox="0 0 836.8139 805.0018">
    <path d="M173.8579,280.5212V93.8081h405.033q0,5.1245,0,10.2584c0,31.5184-.0492,63.037.0236,94.5552.0323,13.9887,5.4882,19.4472,19.4765,19.4806,31.1892.0743,62.3786.0237,93.5679.024,3.5122,0,7.0243,0,11.1171,0v374.271c-27.5447,0-54.7424-.01-81.94.0021q-92.59.0418-185.18.1068c-1.9488.0013-3.8982.0642-5.8463.128-19.3439.6324-21.2383,2.2041-21.3939,21.3575q-.8751,107.7075-1.3825,215.4181c-.0235,3.8419-.003,7.6841-.003,12.083H173.8452V530.1007h10.2875q100.8779,0,201.7558-.0077c16.55-.0044,21.4273-4.8911,21.4317-21.4756q.0275-103.3284,0-206.6568c-.0044-16.575-4.8667-21.428-21.4559-21.4322q-100.3884-.0258-200.7771-.0072ZM282.99,124.5431a62.4582,62.4582,0,0,0-62.8112,62.1638c-.0751,34.1,27.5261,62.2325,61.4187,62.6a62.3863,62.3863,0,1,0,1.3925-124.764Zm179.3906,15.5911c-22.4168,0-44.834-.061-67.25.025-11.7321.0449-18.6164,5.6628-18.9157,15.09-.31,9.7546,6.9136,16.035,18.9439,16.0531q66.7632.1,133.5264.0006c11.63-.0169,18.6339-5.7629,18.93-15.107.3081-9.7261-6.95-15.99-18.9582-16.0367C506.5648,140.0722,484.4726,140.1341,462.3806,140.1342Zm-32.4155,93.5871c12.3445,0,24.69.1066,37.0333-.0313,11.3426-.1268,18.38-6.3551,18.23-15.7979-.1461-9.15-6.9189-15.2517-17.7053-15.3141q-37.0323-.214-74.0665.0134c-10.6283.0766-17.3768,6.5476-17.2394,15.7515.1364,9.1379,6.9168,15.1822,17.69,15.3371C405.9239,233.8527,417.9454,233.72,429.9651,233.7213Z" transform="translate(-65.7075 -87.7282)" />
    <path d="M896.14,622.8217V892.73H429.1936V622.9656c3.2634,1.5026,6.3118,2.8055,9.2725,4.2842,68.7834,34.3549,137.7327,68.3862,206.1793,103.4,13.0659,6.6839,23.3354,6.3146,36.1452-.2092,68.1988-34.7328,136.8113-68.6532,205.2862-102.8437C888.9375,626.1686,891.8539,624.8516,896.14,622.8217ZM568.8623,807.9585c.1752-30.0278-24.3649-54.842-54.2612-54.8672a54.6781,54.6781,0,0,0-54.875,54.3077c-.2668,29.918,24.3185,54.7639,54.282,54.8574A54.7311,54.7311,0,0,0,568.8623,807.9585ZM685.865,768.681c-22.0919,0-44.1839-.0487-66.2755.0191-12.3148.0378-19.416,5.8213-19.4255,15.5622-.01,9.72,7.13,15.5792,19.4095,15.5938q66.2754.0789,132.5512,0c12.27-.0144,19.4363-5.8783,19.4373-15.5787.001-9.7271-7.1286-15.54-19.4215-15.5778C730.0489,768.6324,707.9568,768.681,685.865,768.681Zm-31.1879,62.4c-12.3446,0-24.6913-.1438-37.033.0435-10.7305.1628-17.4659,6.3313-17.4782,15.5279-.0121,9.1773,6.75,15.49,17.4519,15.5617q37.0319.2484,74.0665.001c10.6718-.07,17.4889-6.4028,17.4932-15.5372.0042-9.1834-6.7576-15.39-17.4675-15.5532C679.3683,830.9365,667.0216,831.0809,654.6771,831.0808Z" transform="translate(-65.7075 -87.7282)" />
    <path d="M65.7075,300.9087H386.2147V510.2651H65.7075ZM154.47,440.85c70.5378-1.4856,70.0581-103.9591-.3113-105.0395C83.6892,337.4344,83.9447,439.5249,154.47,440.85Zm143.0787-17.5048c11.5611,0,23.1292.2465,34.6813-.07,25.0519.0207,25.0724-35.082-.0238-34.8538q-34.6771-.4159-69.3639.0019c-24.9085-.5366-24.91,35.236.0262,34.8523C274.42,423.5907,285.9878,423.3451,297.5489,423.3449Zm-.7047,52.5924c11.5613,0,23.1269.195,34.6826-.0538,25.9.2968,26.0436-35.1834.2652-34.9021q-34.1193-.36-68.2465-.0083c-25.92-.4815-26.0129,35.0337-.264,34.9011C274.4624,476.1425,285.6559,475.9324,296.8442,475.9373Z" transform="translate(-65.7075 -87.7282)" />
    <path d="M450.1577,612.1119H875.1325c-3.8454,2.5225-5.9934,4.2593-8.4062,5.4664q-98.1326,49.0942-196.4108,97.895c-3.8015,1.8791-9.8958,2.7913-13.3969,1.0622-67.95-33.5586-135.674-67.577-203.4326-101.524C452.8528,614.6943,452.3761,614.0644,450.1577,612.1119Z" transform="translate(-65.7075 -87.7282)" />
    <path d="M886.7641,165.2925h-61.596c0-17.7749-1.4136-35.6121.4228-53.1082,1.63-15.5321,17.2305-25.6429,32.6955-24.344a31.0438,31.0438,0,0,1,28.3679,29.6129C887.1558,133.0092,886.7641,148.5939,886.7641,165.2925Z" transform="translate(-65.7075 -87.7282)" />
    <path d="M700.237,196.4644H601.7284V97.8682C633.9886,130.1571,667.6277,163.826,700.237,196.4644Z" transform="translate(-65.7075 -87.7282)" />
    <path d="M808.8405,344.6314q0-68.1978.0081-136.3956c.0084-16.4973,4.8674-21.279,21.548-21.3012,17.8589-.0238,35.7186-.1062,53.5764.0322,12.6757.0982,18.4027,5.7966,18.4094,18.555.048,90.2807.3867,180.5639-.21,270.8408-.2362,35.6921-12.1923,68.0637-33.4474,96.8321-8.6368,11.69-20.1956,11.5011-28.5677-.4115-19.753-28.1068-30.6163-59.3915-31.0731-93.7077-.5964-44.8074-.1461-89.6288-.1461-134.4441ZM856.0066,232.329A40.3706,40.3706,0,1,0,896.1391,272.91,40.4407,40.4407,0,0,0,856.0066,232.329Z" transform="translate(-65.7075 -87.7282)" />
    <path d="M290.3521,197.4907H276.2544l-2.7422,10.4766H262.5786L278.5747,156.78h9.457l16.1016,51.1875H293.0942Zm-11.8477-8.6133h9.5625l-4.7813-18.2461Z" transform="translate(-65.7075 -87.7282)" />
    <path d="M162.103,398.8945H148.0054l-2.7422,10.4766H134.33l15.9961-51.1875h9.457l16.1016,51.1875H164.8452Zm-11.8476-8.6132h9.5625l-4.7813-18.2461Z" transform="translate(-65.7075 -87.7282)" />
    <path d="M522.0986,818.2383H508.001l-2.7422,10.4765H494.3252l15.9961-51.1875h9.457L535.88,828.7148H524.8408ZM510.251,809.625h9.5625l-4.7813-18.2461Z" transform="translate(-65.7075 -87.7282)" />
    <path d="M861.2275,280.3857H851.58l-1.877,7.17h-7.4824l10.9473-35.0313H859.64l11.02,35.0313h-7.5547Zm-8.1074-5.8945h6.544l-3.2725-12.4868Z" transform="translate(-65.7075 -87.7282)" />
</svg>