<svg id="f87b5f5b-200d-4305-9e63-eccabd9a485a" data-name="Layer 1" xmlns="http://www.w3.org/2000/svg" viewBox="0 0 50 50"><path d="M25,2a5.023,5.023,0,0,0-4.9062,4H12a6.0156,6.0156,0,0,0-6,6v9H3a1,1,0,0,0-1,1v6a1,1,0,0,0,1,1H6v9a6.0156,6.0156,0,0,0,6,6h8.0938a5.0089,5.0089,0,0,0,9.8125,0H38a6.0156,6.0156,0,0,0,6-6V29h3a1,1,0,0,0,1-1V22a1,1,0,0,0-1-1H44V12a6.0156,6.0156,0,0,0-6-6H29.9063A5.0232,5.0232,0,0,0,25,2ZM12,8h8.0938A5.05,5.05,0,0,0,24,11.9063V21H21a1,1,0,0,0-1,1v6a1,1,0,0,0,1,1h3v9.0938A5.0494,5.0494,0,0,0,20.0938,42H12a3.9857,3.9857,0,0,1-4-4V29h3a1,1,0,0,0,1-1V22a1,1,0,0,0-1-1H8V12A3.9857,3.9857,0,0,1,12,8ZM29.9063,8H38a3.9857,3.9857,0,0,1,4,4v9H39a1,1,0,0,0-1,1v6a1,1,0,0,0,1,1h3v9a3.9857,3.9857,0,0,1-4,4H29.9063A5.05,5.05,0,0,0,26,38.0938V29h3a1,1,0,0,0,1-1V22a1,1,0,0,0-1-1H26V11.9063A5.05,5.05,0,0,0,29.9063,8Z"/></svg>