<?xml version="1.0" encoding="iso-8859-1"?>
<!-- Generator: Adobe Illustrator 19.0.0, SVG Export Plug-In . SVG Version: 6.00 Build 0)  -->
<svg version="1.1" id="Layer_1" xmlns="http://www.w3.org/2000/svg" xmlns:xlink="http://www.w3.org/1999/xlink" x="0px" y="0px"
	 viewBox="0 0 512 512" style="enable-background:new 0 0 512 512;" xml:space="preserve">
<g transform="translate(0 -1)">
	<g>
		<g>
			<path d="M503.467,478.867h-8.533v-8.533c0-4.719-3.814-8.533-8.533-8.533s-8.533,3.814-8.533,8.533v8.533h-25.6v-8.533
				c0-4.719-3.814-8.533-8.533-8.533c-4.719,0-8.533,3.814-8.533,8.533v8.533h-25.6v-8.533c0-4.719-3.814-8.533-8.533-8.533
				c-4.719,0-8.533,3.814-8.533,8.533v8.533h-25.6v-8.533c0-4.719-3.814-8.533-8.533-8.533s-8.533,3.814-8.533,8.533v8.533h-25.6
				v-8.533c0-4.719-3.814-8.533-8.533-8.533s-8.533,3.814-8.533,8.533v8.533h-25.6v-8.533c0-4.719-3.814-8.533-8.533-8.533
				s-8.533,3.814-8.533,8.533v8.533h-25.6v-8.533c0-4.719-3.814-8.533-8.533-8.533s-8.533,3.814-8.533,8.533v8.533h-25.6v-8.533
				c0-4.719-3.814-8.533-8.533-8.533s-8.533,3.814-8.533,8.533v8.533h-25.6v-8.533c0-4.719-3.814-8.533-8.533-8.533
				s-8.533,3.814-8.533,8.533v8.533h-25.6v-8.533c0-4.719-3.814-8.533-8.533-8.533s-8.533,3.814-8.533,8.533v8.533h-25.6v-8.533
				c0-4.719-3.814-8.533-8.533-8.533s-8.533,3.814-8.533,8.533v8.533H34.133v-51.2h8.533c4.719,0,8.533-3.814,8.533-8.533
				s-3.814-8.533-8.533-8.533h-8.533V385h8.533c4.719,0,8.533-3.814,8.533-8.533s-3.814-8.533-8.533-8.533h-8.533v-25.6h8.533
				c4.719,0,8.533-3.814,8.533-8.533s-3.814-8.533-8.533-8.533h-8.533v-25.6h8.533c4.719,0,8.533-3.814,8.533-8.533
				c0-4.719-3.814-8.533-8.533-8.533h-8.533V257h8.533c4.719,0,8.533-3.814,8.533-8.533s-3.814-8.533-8.533-8.533h-8.533v-25.6
				h8.533c4.719,0,8.533-3.814,8.533-8.533s-3.814-8.533-8.533-8.533h-8.533v-25.6h8.533c4.719,0,8.533-3.814,8.533-8.533
				s-3.814-8.533-8.533-8.533h-8.533V129h8.533c4.719,0,8.533-3.814,8.533-8.533s-3.814-8.533-8.533-8.533h-8.533v-25.6h8.533
				c4.719,0,8.533-3.814,8.533-8.533s-3.814-8.533-8.533-8.533h-8.533v-25.6h8.533c4.719,0,8.533-3.814,8.533-8.533
				S47.386,26.6,42.667,26.6h-8.533V9.533C34.133,4.814,30.319,1,25.6,1s-8.533,3.814-8.533,8.533V26.6H8.533
				C3.814,26.6,0,30.414,0,35.133s3.814,8.533,8.533,8.533h8.533v25.6H8.533C3.814,69.267,0,73.081,0,77.8s3.814,8.533,8.533,8.533
				h8.533v25.6H8.533c-4.719,0-8.533,3.814-8.533,8.533S3.814,129,8.533,129h8.533v25.6H8.533C3.814,154.6,0,158.414,0,163.133
				s3.814,8.533,8.533,8.533h8.533v25.6H8.533C3.814,197.267,0,201.081,0,205.8s3.814,8.533,8.533,8.533h8.533v25.6H8.533
				c-4.719,0-8.533,3.814-8.533,8.533S3.814,257,8.533,257h8.533v25.6H8.533C3.814,282.6,0,286.414,0,291.133
				c0,4.719,3.814,8.533,8.533,8.533h8.533v25.6H8.533C3.814,325.267,0,329.081,0,333.8s3.814,8.533,8.533,8.533h8.533v25.6H8.533
				c-4.719,0-8.533,3.814-8.533,8.533S3.814,385,8.533,385h8.533v25.6H8.533C3.814,410.6,0,414.414,0,419.133
				s3.814,8.533,8.533,8.533h8.533v25.6H8.533C3.814,453.267,0,457.081,0,461.8c0,4.719,3.814,8.533,8.533,8.533h8.533V487.4
				c0,4.719,3.814,8.533,8.533,8.533h25.6v8.533c0,4.719,3.814,8.533,8.533,8.533s8.533-3.814,8.533-8.533v-8.533h25.6v8.533
				c0,4.719,3.814,8.533,8.533,8.533s8.533-3.814,8.533-8.533v-8.533h25.6v8.533c0,4.719,3.814,8.533,8.533,8.533
				s8.533-3.814,8.533-8.533v-8.533h25.6v8.533c0,4.719,3.814,8.533,8.533,8.533s8.533-3.814,8.533-8.533v-8.533h25.6v8.533
				c0,4.719,3.814,8.533,8.533,8.533s8.533-3.814,8.533-8.533v-8.533h25.6v8.533c0,4.719,3.814,8.533,8.533,8.533
				s8.533-3.814,8.533-8.533v-8.533h25.6v8.533c0,4.719,3.814,8.533,8.533,8.533s8.533-3.814,8.533-8.533v-8.533h25.6v8.533
				c0,4.719,3.814,8.533,8.533,8.533s8.533-3.814,8.533-8.533v-8.533h25.6v8.533c0,4.719,3.814,8.533,8.533,8.533
				c4.719,0,8.533-3.814,8.533-8.533v-8.533h25.6v8.533c0,4.719,3.814,8.533,8.533,8.533c4.719,0,8.533-3.814,8.533-8.533v-8.533
				h25.6v8.533c0,4.719,3.814,8.533,8.533,8.533s8.533-3.814,8.533-8.533v-8.533h8.533c4.719,0,8.533-3.814,8.533-8.533
				S508.186,478.867,503.467,478.867z"/>
			<path d="M153.6,315.133c0-8.525-6.938-15.462-15.462-15.462H83.729c-8.525,0-15.462,6.938-15.462,15.462v121.071H153.6V315.133z"
				/>
			<path d="M179.2,161.533v274.671h85.333V161.533c0-8.525-6.938-15.462-15.462-15.462h-54.409
				C186.138,146.071,179.2,153.009,179.2,161.533z"/>
			<path d="M375.467,229.8c0-8.525-6.938-15.462-15.462-15.462h-54.409c-8.525,0-15.462,6.938-15.462,15.462v206.396h85.333V229.8z"
				/>
			<path d="M486.4,101.8c0-8.525-6.938-15.462-15.462-15.462h-54.409c-8.525,0-15.462,6.938-15.462,15.462v334.404H486.4V101.8z"/>
			<path d="M136.533,52.2H179.2c4.719,0,8.533-3.814,8.533-8.533s-3.814-8.533-8.533-8.533h-42.667
				c-4.719,0-8.533,3.814-8.533,8.533S131.814,52.2,136.533,52.2z"/>
			<path d="M93.867,52.2h8.533c4.719,0,8.533-3.814,8.533-8.533s-3.814-8.533-8.533-8.533h-8.533c-4.719,0-8.533,3.814-8.533,8.533
				S89.148,52.2,93.867,52.2z"/>
			<path d="M93.867,86.333H128c4.719,0,8.533-3.814,8.533-8.533s-3.814-8.533-8.533-8.533H93.867c-4.719,0-8.533,3.814-8.533,8.533
				S89.148,86.333,93.867,86.333z"/>
			<path d="M187.733,77.8c0-4.719-3.814-8.533-8.533-8.533h-17.067c-4.719,0-8.533,3.814-8.533,8.533s3.814,8.533,8.533,8.533H179.2
				C183.919,86.333,187.733,82.519,187.733,77.8z"/>
		</g>
	</g>
</g>
<g>
</g>
<g>
</g>
<g>
</g>
<g>
</g>
<g>
</g>
<g>
</g>
<g>
</g>
<g>
</g>
<g>
</g>
<g>
</g>
<g>
</g>
<g>
</g>
<g>
</g>
<g>
</g>
<g>
</g>
</svg>
