<svg id="ba628cc1-e9da-477d-897a-5b76c72285c6" data-name="Layer 1" xmlns="http://www.w3.org/2000/svg" viewBox="0 0 1000 1000"><path d="M932.9,159.2c-9.1-20.6-26.4-28.1-48.1-28.1q-192.3.45-384.7.3H118.3c-38.2,0-55.8,17.3-55.8,55.3V817.3c0,14.6,3.3,27.5,14,38,11,11,25,13.5,39.9,13.5H885.9c31.9,0,51.4-19,51.4-50.1q.45-318.45,0-637.5a54.7273,54.7273,0,0,0-4.4-22ZM304,188.9c15.4,0,23.4,7.7,23.4,23.1,0,15.7-7.2,23.1-22.8,23.4-16,0-23.1-6.9-23.1-22.8C281.4,196.4,288.3,189.2,304,188.9Zm-80.3,0c15.7,0,22.6,7.1,22.6,23.4,0,16.5-6.3,22.8-22.6,23.1-15.7,0-23.1-7.4-23.1-23.1C200.6,196.9,208.3,189.2,223.7,188.9Zm-80.9,0c15.1,0,23.4,7.7,23.6,23.1.3,15.4-7.4,23.1-22.8,23.4-16.2,0-23.4-6.9-23.7-22.5C119.7,197.2,127.4,189.2,142.8,188.9ZM914.5,814.3c0,23.4-7.7,30.8-30.8,30.8H115.3c-22,0-30-7.7-30-29.7v-522H914.4l.1,520.9ZM471.4,765.6c33.2-8,49-42.7,33.5-73.2-.9-1.8-1.1-5.1,0-6.6,13-17.8,26.2-35.3,39.5-52.8a5.4932,5.4932,0,0,1,4.7-1.6c14.1,3.5,27.1.8,39.7-6.8,1.4,1,2.6,1.7,3.7,2.5,17.3,13,34.6,25.9,51.7,39,1.3,1,1.8,3.9,1.8,5.9,0,6.1-1.2,12.3-.5,18.2,2.6,21.2,18.2,37.5,39.6,42.1,19.9,4.3,41.4-5.1,52.3-22.7,11.3-18.3,10.1-41.2-3.3-57.8-2.4-3-2.5-5-.8-8.2q26.85-53.25,53.4-106.8c1.8-3.6,3.6-4.9,8-4.7,27.5,1.2,50.9-22.1,50.9-50,0-27.8-23.7-51.4-51-50.2-20.5.9-36.2,10.5-44.7,29.3-8.2,18.2-6.1,35.9,6.3,52,2,2.6,2.9,4.5,1.2,7.9-18.2,36-36.3,72.2-54.6,108.2a7.7425,7.7425,0,0,1-5.6,3.5c-9.6-.1-18.5,1.8-26.8,6.6-2.7,1.6-4.3,1.2-6.7-.6-16.6-12.6-33.2-25.1-50-37.4-3.6-2.7-4.8-5-3.8-9.7,7.6-34.4-25.1-66.3-59.4-58.2-33.5,7.9-49.3,42.9-33.5,73.6.8,1.6.8,4.7-.2,6.1q-19.35,26.4-39.2,52.3c-1.1,1.4-3.8,2.1-5.7,2.1-6.9.1-13.9-1.2-20.6-.2-27.1,4.1-45.4,31.5-40.1,59.1,5.5,27.1,33.6,45.4,60.2,39.1ZM240.9,638.8c54.4,18.3,104.7-1.9,131.9-31.2a5.2971,5.2971,0,0,0-.6-1l-32.4-28.1c-20.3-17.6-40.7-35.1-60.9-52.8a15.8127,15.8127,0,0,1-4.3-6.7c-9.5-28.9-18.7-57.8-28.1-86.7-3.6-11.1-7.2-22.1-10.9-33.5-43.4,16.5-81.4,61.6-81.5,120.1.1,52.9,35.6,102.7,86.8,119.9Zm52.2-119.5c5.6,4.8,11.1,9.6,16.6,14.4q26.7,23.1,53.5,46.2c6.4,5.6,12.9,11.1,19.3,16.6,52.5-67.3,22.9-155.6-33-186.6a6.0337,6.0337,0,0,0-.8.8q-28.2,52.05-56.6,104.2C291.1,517,291.7,518.1,293.1,519.3Zm43.7-116.5c-22.2-12.7-62.4-16.2-87.4-8,11.4,35.3,22.7,70.5,34.3,106.5C301.8,467.9,319.3,435.3,336.8,402.8Z"/></svg>