<svg id="a94434fb-5242-405a-b9ec-ffed5798455f" data-name="Layer 1" xmlns="http://www.w3.org/2000/svg" viewBox="0 0 1000 1000"><path d="M.1,588.9C16.7,434.5,145,379.9,163.8,372.7c-31.9-25.2-52.3-63.9-52.3-107.1,0-76,62.9-137.6,140.4-137.6s140.5,61.6,140.5,137.6c0,42.9-20,81.2-51.4,106.4a266.5009,266.5009,0,0,1,75.2,41.2c-61.2,30.5-195.6,118.5-216,308.4v4.7C82.1,718.9,70,686.8,70,686.8a64.3377,64.3377,0,0,1-16.9-27.4,65.5234,65.5234,0,0,1-28-14.3s-26.4-9.8-25-56.2ZM492.4,418.1c-27.9,10.7-217.9,91.6-242.5,320.3-2,68.8,37.1,83.3,37.1,83.3a97.4674,97.4674,0,0,0,41.6,21.2,95.0326,95.0326,0,0,0,25,40.6s18.7,50,207,59.2c2.8.5,5.5.9,8.3,1.5H687.5q6.9-1.2,14.1-2.4C895,929,915.4,868.6,915.4,868.6v-.1a99.9528,99.9528,0,0,0,12.5-25.6c88-17.4,81.1-122.2,54.7-202.6C945.9,528.6,852.7,451.6,755,417.1c46.5-37.4,76.2-94.1,76.2-157.7,0-112.6-93.2-203.9-208.1-203.9S415,146.8,415,259.4c-.1,64.1,30.2,121.3,77.4,158.7Z"/></svg>