<svg id="e8fbc85b-8dc6-46cb-8adb-4a7b018c6bee" data-name="Layer 1" xmlns="http://www.w3.org/2000/svg" viewBox="0 0 1000 1000"><path d="M881.6,587V384.2l-73.7,9.6c-3.6-30-17.6-45.2-34.9-52.8-.7-15.1-2.2-29.3-2.9-42.7C759.7,116.7,667.2,61.3,519.8,63.6c-19.3.4-38.2,3.4-57.6.4-76.8-12-151.6,47.9-196.6,102.4-53.6,64.8-33.8,167.8-34.1,173.1C212.8,346.4,197,361.2,193,393l-64.8-8.6V581.5c-25.9,12.6-43.8,40.3-43.8,72.6,0,32,17.9,59.9,43.8,72.4V888.2l376.5,49.3,376.9-49.3V721.4a81.9972,81.9972,0,0,0,34.6-67.2c-.1-28.6-14.1-53.1-34.6-67.2ZM487.9,906.8,162.5,864.4V733.5c39.2-2.1,70.4-36.6,70.4-79.3s-31.2-77.2-70.4-79.3V417.4l29.8,3.8,295.6,38.6v447ZM285,404.6a238.9322,238.9322,0,0,1-2.5-27.9,218.002,218.002,0,0,1,17.6-52.8,133.3491,133.3491,0,0,1,78.1-68.6,19.2684,19.2684,0,0,1,22.3,6.9,17.6151,17.6151,0,0,1-1.8,22.8l-2.2,2.1a14.6038,14.6038,0,0,0-2.2,17.2,15.8157,15.8157,0,0,0,16.2,7.3c48.2-8,122.9-26.9,186.6-68.6a66.8474,66.8474,0,0,1,50-10c17.2,3.4,32.7,13.5,42.1,27.9a25.7669,25.7669,0,0,0,2.9,4.1,192.34,192.34,0,0,1,30.2,103.4,257.102,257.102,0,0,1-2.5,36.9L504.7,433.6,285,404.6ZM847.5,574.9l-5.4-.7c-41,0-74.5,35.9-74.5,80,0,43.8,33.4,79.6,74.5,79.6a33.2749,33.2749,0,0,0,5.4-.7V864.4L522.1,906.8v-447l325.4-42.4V574.9Z"/></svg>