<svg id="ae46b3f7-5821-4e4f-9850-69b3dc9fe4cd" data-name="Layer 1" xmlns="http://www.w3.org/2000/svg" viewBox="0 0 1000 1000"><path d="M932.9,159.2c-9.1-20.6-26.4-28.1-48.1-28.1q-192.3.45-384.7.3H118.3c-38.2,0-55.8,17.3-55.8,55.3V817.3c0,14.6,3.3,27.5,14,38,11,11.0005,25,13.5,39.9,13.5H885.9c31.9,0,51.4-19,51.4-50.1q.45-318.45,0-637.5a54.7253,54.7253,0,0,0-4.4-22ZM304,188.9c15.4,0,23.4,7.7,23.4,23.1,0,15.7-7.2,23.1-22.8,23.4-16,0-23.1-6.9-23.1-22.8C281.4,196.4,288.3,189.2,304,188.9Zm-80.3,0c15.7,0,22.6,7.1,22.6,23.4,0,16.5-6.3,22.8-22.6,23.1-15.7,0-23.1-7.4-23.1-23.1,0-15.4,7.7-23.1,23.1-23.4Zm-80.9,0c15.1,0,23.4,7.7,23.6,23.1.3,15.4-7.4,23.1-22.8,23.4-16.2,0-23.4-6.9-23.7-22.5-.2-15.7,7.5-23.7,22.9-24ZM914.5,814.3c0,23.4-7.7,30.8-30.8,30.8H115.3c-22,0-30-7.7-30-29.7v-522H914.4l.1,520.9ZM232.65,601l184.3,79.9a2,2,0,0,0,3-2v-47a5.2967,5.2967,0,0,0-3.1-4.4994l-126.5-49.8c-1.7-.7-1.7-1.7,0-2.4l126.5-48.7a5.1737,5.1737,0,0,0,3.1-4.5V474.6a2,2,0,0,0-3-2l-184.3,79.9a5.3446,5.3446,0,0,0-3,4.6v39.2a5.4978,5.4978,0,0,0,3,4.7Zm229.5,117.6c5.2,0,9.1-1.2,11.8-3.5a21.5849,21.5849,0,0,0,6.1-9.7c1.3-4.1,2.9-9.8,4.6-17l53-218.1c2.6-10.3,4-17.5,4-21.4,0-5.3-1.7-9.5-5-12.5-3.4-3-8.2-4.5-14.5-4.5-7.3,0-12.2,2.1-14.8,6.5-2.5,4.3-5.1,12.2-7.9,23.8L446.6505,680.3c-2.5,11.6-3.8,18.8-3.8,21.7,0,11.1,6.4,16.6,19.3,16.6Zm105.2-37.4L751.65,601a5.3449,5.3449,0,0,0,3-4.6V557.6a5.3445,5.3445,0,0,0-3-4.6l-184.3-79.5a2,2,0,0,0-3,2V522a5.2966,5.2966,0,0,0,3.1,4.5l126.9,49.1c1.7.7,1.7,1.7,0,2.4l-126.9,49.8a5.2964,5.2964,0,0,0-3.1,4.5v47c0,1.7,1.3,2.6,3,1.9Z"/></svg>