<svg xmlns="http://www.w3.org/2000/svg" viewBox="0 0 469 501.84"><defs><style>.cls-1{fill:none;stroke:#d99938;stroke-miterlimit:10;stroke-width:8px;}.cls-2{fill:#d99938;}</style></defs><g id="Layer_2" data-name="Layer 2"><g id="Layer_1-2" data-name="Layer 1"><circle class="cls-1" cx="234.5" cy="374.34" r="123.5"/><circle class="cls-1" cx="234.5" cy="252.5" r="123.5"/><circle class="cls-1" cx="234.5" cy="127.5" r="123.5"/><circle class="cls-1" cx="341.5" cy="189.5" r="123.5"/><circle class="cls-1" cx="340.5" cy="314.5" r="123.5"/><circle class="cls-1" cx="128.5" cy="188.5" r="123.5"/><circle class="cls-1" cx="127.5" cy="313.5" r="123.5"/><path class="cls-2" d="M235.5,246.42c-37-60,0-112,0-112"/><path class="cls-2" d="M232.45,370.33c37.65-59.62,1.21-112,1.21-112"/><path class="cls-2" d="M239.64,248.22C273.57,186.41,337,192.91,337,192.91"/><path class="cls-2" d="M336.5,310.42c-32.47-62.59-96.81-56.34-96.81-56.34"/><path class="cls-2" d="M228,254.91c-33.92,61.82-97.39,55.31-97.39,55.31"/><path class="cls-2" d="M132,192c32.8,62.41,97.11,55.81,97.11,55.81"/></g></g></svg>