<svg id="Layer_1" data-name="Layer 1" xmlns="http://www.w3.org/2000/svg" viewBox="0 0 512 512"><path d="M256,0c-29.0909,0-69.8182,4.0134-93.0909,12.04V32.6809H69.8182V95.7492H442.1818V32.6809H349.0909V12.04C325.8182,4.0134,285.0909,0,256,0ZM186.1818,39.5156a23.2727,23.2727,0,1,1-23.2727,23.2728A23.3033,23.3033,0,0,1,186.1818,39.5156Zm139.6364,0a23.2727,23.2727,0,1,1-23.2727,23.2728,23.3033,23.3033,0,0,1,23.2727-23.2728ZM46.5455,116.39v20.64H23.2727v20.6406H488.7273V137.03H465.4545V116.39ZM0,176.0179v20.6406H512V176.0179ZM23.2727,217.299v82.5621H187.2c11.7818-59.6282,125.8182-59.6282,137.6,0H488.7273V217.299Zm0,103.2027v34.4009H162.9091v20.64H23.2727V512H186.1818V320.5017Zm302.5455,0V512H488.7273V375.5431H349.0909v-20.64H488.7273V320.5017Z"/></svg>