<svg id="Layer_1" data-name="Layer 1" xmlns="http://www.w3.org/2000/svg" viewBox="0 0 512 512"><path d="M256,32.75c-22.5,0-54,3.5-72,10.5v18H112v55H400v-55H328v-18C310,36.25,278.5,32.75,256,32.75Zm-54,40.5c9.9,0,18,7.16,18,16,0,8.8-8.1,16-18,16s-18-7.2-18-16C184,80.41,192.1,73.25,202,73.25Zm108,0c9.9,0,18,7.16,18,16,0,8.8-8.1,16-18,16s-18-7.2-18-16C292,80.41,300.1,73.25,310,73.25Zm-216,61v18H76v18H436v-18H418v-18Zm-36,52v18H454v-18Zm18,36v72H202.7875c9.1125-52,97.3125-52,106.425,0H436v-72Zm0,90v30H184v18H76v119H202v-167Zm234,0v167H436v-119H328v-18H436v-30Z"/></svg>