<svg id="Layer_1" data-name="Layer 1" xmlns="http://www.w3.org/2000/svg" viewBox="0 0 512 512"><path d="M446.6169,396.9581V261.4814l-8.0759-3.2124c-1.5229-.5988-37.9559-14.8462-101.2911-20.6282-16.2263-1.4874-35.1674-2.4644-56.508-2.3238L256.7864,90.4593l-9.3011-1.0385c-1.043-.1229-25.9662-2.7988-60.1739,2.5259C141.8419,99.0224,101.2625,117.09,69.96,144.1954l-4.5757,3.96V396.9581H53.2691V423.36H458.7309V396.9581Zm-315.06,0H109.3139V374.9393c0-6.53,4.9812-11.8276,11.1209-11.8276a10.7342,10.7342,0,0,1,7.8614,3.4675,12.18,12.18,0,0,1,3.26,8.361Zm0-60.8825H109.3139V307.852c0-6.53,4.9812-11.8192,11.1209-11.8192a10.7606,10.7606,0,0,1,7.8614,3.4582,12.18,12.18,0,0,1,3.26,8.361Zm0-82.77V262.81H109.3139V234.5868c0-6.53,4.9812-11.8276,11.1209-11.8276a10.7342,10.7342,0,0,1,7.8614,3.4675,12.18,12.18,0,0,1,3.26,8.361ZM183.19,396.9581H157.3564V373.179c0-7.5953,5.7841-13.7463,12.917-13.7463a12.5317,12.5317,0,0,1,9.1355,4.0218,14.1792,14.1792,0,0,1,3.7814,9.7245Zm0-70.7393H157.3564V299.9054c0-7.5861,5.7841-13.7378,12.917-13.7378a12.5316,12.5316,0,0,1,9.1355,4.0217,14.1739,14.1739,0,0,1,3.7814,9.7161Zm0-82.9021v9.2141H157.3564v-26.305c0-7.5861,5.7841-13.7378,12.917-13.7378a12.5316,12.5316,0,0,1,9.1355,4.0217,14.1739,14.1739,0,0,1,3.7814,9.7161Zm51.6512,153.6414H209.0076V373.179c0-7.5953,5.7842-13.7463,12.917-13.7463a12.5317,12.5317,0,0,1,9.1355,4.0218,14.1792,14.1792,0,0,1,3.7814,9.7245Zm0-75.2722H209.0076V295.3725c0-7.5861,5.7842-13.7379,12.917-13.7379a12.5306,12.5306,0,0,1,9.1355,4.0217,14.1739,14.1739,0,0,1,3.7814,9.7162Zm0-84.4149V244.91H209.0076v-26.305c0-7.5861,5.7842-13.7378,12.917-13.7378a12.53,12.53,0,0,1,9.1355,4.0217,14.1737,14.1737,0,0,1,3.7814,9.7161ZM346.5336,396.9581H320.6917v-20.1c0-7.5954,5.7842-13.7463,12.9249-13.7463a12.5309,12.5309,0,0,1,9.1356,4.0217,14.1794,14.1794,0,0,1,3.7814,9.7246Zm0-75.2714H320.6917V295.3733c0-7.5861,5.7842-13.7379,12.9249-13.7379a12.5309,12.5309,0,0,1,9.1356,4.0217,14.1741,14.1741,0,0,1,3.7814,9.7162Zm49.5907,75.2714H370.2824v-20.1c0-7.5954,5.7842-13.7463,12.917-13.7463a12.5351,12.5351,0,0,1,9.1435,4.0217,14.18,14.18,0,0,1,3.7814,9.7246Zm0-66.4446H370.2824V304.2c0-7.5861,5.7842-13.7378,12.917-13.7378a12.5347,12.5347,0,0,1,9.1435,4.0217,14.1743,14.1743,0,0,1,3.7814,9.7161Z"/></svg>