<svg id="Layer_1" data-name="Layer 1" xmlns="http://www.w3.org/2000/svg" viewBox="0 0 512 512"><path d="M496.703,471.6147v-207.23l-10.1979-4.9138c-1.9231-.9159-47.9291-22.7093-127.9062-31.5536a603.6667,603.6667,0,0,0-71.3559-3.5546l-30.25-221.58L245.248,1.1941c-1.3171-.188-32.789-4.2812-75.9851,3.8637C111.846,15.881,60.604,43.5179,21.0766,84.9793l-5.778,6.0574v380.578H0V512H512V471.6147Zm-397.8445,0H70.771V437.9339c0-9.9885,6.29-18.092,14.043-18.092a12.6191,12.6191,0,0,1,9.927,5.3041,20.9594,20.9594,0,0,1,4.1166,12.7893Zm0-93.1282H70.771V335.3146c0-9.9885,6.29-18.0791,14.043-18.0791a12.6432,12.6432,0,0,1,9.927,5.29,20.9594,20.9594,0,0,1,4.1166,12.7893Zm0-126.6081v14.5383H70.771V223.2454c0-9.9885,6.29-18.0919,14.043-18.0919a12.6187,12.6187,0,0,1,9.927,5.304,20.96,20.96,0,0,1,4.1166,12.7893Zm65.2,219.7363H131.437V435.2413c0-11.6181,7.304-21.0269,16.3111-21.0269a14.7255,14.7255,0,0,1,11.5359,6.1519,24.4085,24.4085,0,0,1,4.775,14.8749Zm0-108.2055H131.437v-40.25c0-11.604,7.304-21.0138,16.3111-21.0138a14.7253,14.7253,0,0,1,11.5359,6.1517,24.3977,24.3977,0,0,1,4.775,14.8621Zm0-126.81v14.0943H131.437V210.4561c0-11.604,7.304-21.0138,16.3111-21.0138a14.7256,14.7256,0,0,1,11.5359,6.1517,24.3977,24.3977,0,0,1,4.775,14.8621Zm65.223,235.0157H196.66V435.2413c0-11.6181,7.304-21.0269,16.311-21.0269a14.7254,14.7254,0,0,1,11.5359,6.1519,24.4079,24.4079,0,0,1,4.775,14.8749Zm0-115.1392H196.66v-40.25c0-11.6039,7.304-21.014,16.311-21.014a14.7241,14.7241,0,0,1,11.5359,6.1517,24.3968,24.3968,0,0,1,4.775,14.8623Zm0-129.1242v11.6849H196.66V198.7991c0-11.604,7.304-21.0139,16.311-21.0139a14.7235,14.7235,0,0,1,11.5359,6.1518,24.3962,24.3962,0,0,1,4.775,14.8621Zm141.04,244.2634H337.69V440.869c0-11.6183,7.304-21.0269,16.321-21.0269a14.7245,14.7245,0,0,1,11.536,6.1517,24.4092,24.4092,0,0,1,4.775,14.8752Zm0-115.138H337.69v-40.25c0-11.6039,7.304-21.014,16.321-21.014a14.7248,14.7248,0,0,1,11.536,6.1517,24.3981,24.3981,0,0,1,4.775,14.8623Zm62.621,115.138H400.311V440.869c0-11.6183,7.304-21.0269,16.311-21.0269a14.7276,14.7276,0,0,1,11.546,6.1517,24.41,24.41,0,0,1,4.775,14.8752Zm0-101.6362H400.311v-40.25c0-11.6039,7.304-21.0138,16.311-21.0138a14.7273,14.7273,0,0,1,11.546,6.1517,24.3977,24.3977,0,0,1,4.775,14.8621Z"/></svg>