<svg id="f01173cb-12da-4665-a039-ad5cf930682b" data-name="Layer 1" xmlns="http://www.w3.org/2000/svg" viewBox="0 0 469 501.8398"><defs><style>.fec4c2c8-c606-44ff-9a56-d6013f062c2b{fill:#d99938;}</style></defs><g id="abe17ebe-63b2-43f9-ad38-c2e011fb67c4" data-name="Layer 2"><g id="b324bca2-f521-432b-8916-8c46558a7f5a" data-name="Layer 1-2"><path class="fec4c2c8-c606-44ff-9a56-d6013f062c2b" d="M234.5,501.84A127.5,127.5,0,1,1,362,374.34,127.6444,127.6444,0,0,1,234.5,501.84Zm0-247A119.5,119.5,0,1,0,354,374.34,119.6353,119.6353,0,0,0,234.5,254.84Z"/><path class="fec4c2c8-c606-44ff-9a56-d6013f062c2b" d="M234.5,380A127.5,127.5,0,1,1,362,252.5,127.6445,127.6445,0,0,1,234.5,380Zm0-247A119.5,119.5,0,1,0,354,252.5,119.6352,119.6352,0,0,0,234.5,133Z"/><path class="fec4c2c8-c606-44ff-9a56-d6013f062c2b" d="M234.5,255A127.5,127.5,0,1,1,362,127.5,127.6445,127.6445,0,0,1,234.5,255Zm0-247A119.5,119.5,0,1,0,354,127.5,119.6352,119.6352,0,0,0,234.5,8Z"/><path class="fec4c2c8-c606-44ff-9a56-d6013f062c2b" d="M341.5,317A127.5,127.5,0,1,1,469,189.5,127.6445,127.6445,0,0,1,341.5,317Zm0-247A119.5,119.5,0,1,0,461,189.5,119.6352,119.6352,0,0,0,341.5,70Z"/><path class="fec4c2c8-c606-44ff-9a56-d6013f062c2b" d="M340.5,442A127.5,127.5,0,1,1,468,314.5,127.6445,127.6445,0,0,1,340.5,442Zm0-247A119.5,119.5,0,1,0,460,314.5,119.6352,119.6352,0,0,0,340.5,195Z"/><path class="fec4c2c8-c606-44ff-9a56-d6013f062c2b" d="M128.5,316A127.5,127.5,0,1,1,256,188.5,127.6445,127.6445,0,0,1,128.5,316Zm0-247A119.5,119.5,0,1,0,248,188.5,119.6352,119.6352,0,0,0,128.5,69Z"/><path class="fec4c2c8-c606-44ff-9a56-d6013f062c2b" d="M127.5,441A127.5,127.5,0,1,1,255,313.5,127.6445,127.6445,0,0,1,127.5,441Zm0-247A119.5,119.5,0,1,0,247,313.5,119.6352,119.6352,0,0,0,127.5,194Z"/><path class="fec4c2c8-c606-44ff-9a56-d6013f062c2b" d="M235.5,246.42c-37-60,0-112,0-112"/><path class="fec4c2c8-c606-44ff-9a56-d6013f062c2b" d="M232.45,370.33c37.65-59.62,1.21-112,1.21-112"/><path class="fec4c2c8-c606-44ff-9a56-d6013f062c2b" d="M239.64,248.22C273.57,186.41,337,192.91,337,192.91"/><path class="fec4c2c8-c606-44ff-9a56-d6013f062c2b" d="M336.5,310.42c-32.47-62.59-96.81-56.34-96.81-56.34"/><path class="fec4c2c8-c606-44ff-9a56-d6013f062c2b" d="M228,254.91c-33.92,61.82-97.39,55.31-97.39,55.31"/><path class="fec4c2c8-c606-44ff-9a56-d6013f062c2b" d="M132,192c32.8,62.41,97.11,55.81,97.11,55.81"/></g></g></svg>