<svg id="ed6b864a-7a8f-420c-adf4-035fbf955eb2" data-name="Layer 1" xmlns="http://www.w3.org/2000/svg" viewBox="0 0 1000 1000"><path d="M875.4,921.8c.4-34.7-.6-69.2-6.1-103.6-7.4-46.8-28.7-82.5-74.6-100.4l-5-2.3c-33.1-15-68-24.2-102.7-34.5-20.3-6-40.6-12.2-61.1-18.3a15.067,15.067,0,0,0-.4,2.6l.7,5.4c1.9,22.8,2.9,45.6-6,67-24.2,57.9-59.9,107-111.6,143.7-6.4,4.5-10.8,4.5-17.1,0C440,844.8,404.4,795.7,380,737.8c-4.6-11-6.4-23-6.8-35.1a254.2947,254.2947,0,0,1,1.7-39.9,23.3691,23.3691,0,0,0-2.7.4c-40.1,12.1-80.2,23.9-120.1,36.5C222.4,709.1,194,721,169,740.1c-10.2,7.8-17.9,17-22.8,29a243.46,243.46,0,0,0-16.3,58.5c-1.9,13.1-3.3,26.3-4.9,39.4,0,21.1.3,42.2-.2,63.3-.1,5.7,1.1,7.3,7.1,7.3q372-.3,743.9-.2c-.2-5.2-.4-10.5-.4-15.6ZM201.4,458c0,4.2-.1,8.6,0,13,.3,22.3,17.2,41.5,43,45.1,16.4,2.3,33.4,1.7,50.1.9,4.8-.3,10.3-5.2,13.5-9.1,2.5-3.1,2.2-8,2.2-12.1V464.6c17.1,42.2,47.3,74.2,86.6,97.7,12.2,7.3,24.9,13.5,39.7,17.7-76.7-71.3-69.4-191-45.2-239,2.4,1.3,3.2,3.9,4.5,5.9,40.3,59.2,96.7,91,167.8,97.4a213.21,213.21,0,0,0,75.8-7.1c5.9-1.6,7.1.4,6.4,5.6-.8,6.2-1.2,12.4-2.2,18.6-7,44.5-24,84.1-57.5,115.9l-3,.3c-17.9,4.4-28.4,18-26.4,33.9,1.9,14.8,17.2,26.3,36.9,26.9,17.1.5,34.2.3,51.3.1,10.1-.1,20-2.3,26.3-9.1,5.5-6,12.1-6.7,19.8-7.1,26-1.3,51.4-5.5,75.4-14.3,54.4-19.8,87.9-54,92.9-104.7,2.9-28.4.6-57.2.6-85.8,0-22.8-9-32.6-35.8-38.3,0-4.6,1.2-9.9-.4-14.4-1.6-4.6-4.6-10.7-9-12.3-7.6-2.9-8.3-6.7-8.1-12.6.4-14.4-2.5-29.6-16.9-36.9-17.5-8.8-20.6-20.7-20.3-35.4a8.7524,8.7524,0,0,0-.2-1.6c-7-54.5-33.3-101.1-79.8-139-61.5-50.5-135.5-72-220-62.3-95.7,11.1-164.3,55.7-207.1,129-16.9,29-24.4,60.2-25.1,92.6-.1,4.2-1.8,6.2-6.3,8.2-15.8,7.1-25.6,18.3-28.4,33.4-1,5.3-.5,10.9-1.1,16.3-.3,2-1.4,5.3-2.9,5.6-13,3.3-14.9,11.6-14.7,21.4.3,21.4.1,42.7.1,64-.1,14.1,2.4,17.3,17.5,22.8Zm604.7,16.1c.9-10.3,1.8-18.9,14.5-23,.4-.2,1.1,0,1.9,0,0,15.1-.1,30.2,0,45.2.2,24.9-11.1,45.6-32.5,62.1-30.9,23.9-69.1,30.4-109,32.3-2.2.1-5.1-1.5-6.7-3-8.1-7.7-17.9-11.4-29.9-11.2-16.8.2-33.6,0-50.4.1,27.8-11.3,52.7-27.1,74.2-48.4A196.2359,196.2359,0,0,0,698,490.1v8.5c.1,12.6,7.4,18.6,22,18.7h30.3c31.2.1,53.5-16.4,55.8-43.2ZM736.7,321c6,0,11.4-.4,16.7.1,10.6.9,15.8,6.8,15.9,17.6.1,38.4,0,76.9,0,115.3,0,2.4-.2,4.7,0,7,1.8,24.7-10.6,25.7-32.6,23.7V321ZM389.1,121.4C474.2,80,559.7,84.3,639.4,132.5c62,37.5,92.1,90.8,94.3,156.3-4.1.2-6.8.7-9.5.4-9.7-.9-16.3,1.2-20.5,5.2a203.1661,203.1661,0,0,0-20.8-31.1c-40.8-50-94.2-76.4-158.5-80.3-64.8-3.9-122.2,15.2-168.5,60.8-20.4,20.1-35.4,41.8-45.9,64.6-.1-1.6-.2-3.2-.4-4.6-1.5-9.3-8-14.2-19.1-14.4-5.1-.1-10.2,0-16.5,0,4.4-73.9,40.4-131.7,115.1-168ZM239.6,340.6c0-15.4,5.1-19.7,23.5-19.6H272V484.8a10.2666,10.2666,0,0,1-2.5.4c-26,1.3-29.9-1.9-29.9-23.9Z"/></svg>