<svg id="aada9497-467b-4f28-9515-44948d5caa17" data-name="ece32463-6df5-4d17-b69d-6246d2e7e603" xmlns="http://www.w3.org/2000/svg" viewBox="0 0 1000 1000"><path d="M928.6056,981.9464c.4571-39.6495-.6855-79.07-6.97-118.377-8.4555-53.4753-32.7937-94.2674-85.2406-114.7206l-5.7131-2.628c-37.8212-17.14-77.6992-27.6518-117.3487-39.421-23.1955-6.8558-46.3909-13.94-69.815-20.91a17.22,17.22,0,0,0-.457,2.9709l.8,6.17c2.171,26.0521,3.3137,52.1042-6.8558,76.5566-27.6518,66.1586-68.4439,122.2619-127.5181,164.1967-7.3128,5.1418-12.34,5.1418-19.5391,0-58.8457-41.8205-99.5236-97.9239-127.4038-164.0825-5.2562-12.569-7.3129-26.2806-7.77-40.1065a290.57,290.57,0,0,1,1.9424-45.5911,26.684,26.684,0,0,0-3.0851.4571c-45.82,13.8258-91.6393,27.309-137.23,41.7061-33.9362,10.7408-66.3871,24.3382-94.953,46.1625-11.6548,8.9125-20.4531,19.4248-26.052,33.1364A278.1819,278.1819,0,0,0,76.7711,874.31C74.6,889.2786,73,904.3614,71.1722,919.33c0,24.11.3428,48.2192-.2285,72.3288-.1143,6.513,1.2569,8.3412,8.1127,8.3412q425.06-.3428,850.0063-.2285C928.8342,993.83,928.6056,987.7738,928.6056,981.9464ZM158.47,451.9922c0,4.7991-.1143,9.8267,0,14.8543.3428,25.4807,19.6533,47.4193,49.1333,51.5328,18.7392,2.628,38.164,1.9425,57.2461,1.0284,5.4846-.3428,11.7691-5.9417,15.4255-10.398,2.8566-3.5422,2.5138-9.1411,2.5138-13.8259v-35.65c19.5391,48.2192,54.0467,84.7835,98.9522,111.6354,13.94,8.3413,28.4517,15.4256,45.3627,20.2247-87.64-81.47-79.2989-218.2433-51.6471-273.09,2.7423,1.4854,3.6564,4.4563,5.1418,6.7415C426.646,392.69,491.0906,429.0252,572.332,436.3381a243.6215,243.6215,0,0,0,86.6117-8.1127c6.7416-1.8282,8.1127.457,7.3129,6.3987-.9141,7.0844-1.3711,14.1687-2.5138,21.2531-7.9984,50.8472-27.4232,96.0956-65.7015,132.4314l-3.4279.3427c-20.4532,5.0277-32.4509,20.5675-30.1656,38.7354,2.171,16.911,19.6533,30.0513,42.1633,30.7369,19.539.5713,39.0781.3428,58.6171.1143,11.5406-.1143,22.8527-2.6281,30.0513-10.398,6.2845-6.8558,13.8259-7.6557,22.6242-8.1127,29.7085-1.4854,58.7315-6.2845,86.1547-16.34,62.1594-22.6242,100.4377-61.7023,106.1508-119.634,3.3137-32.4508.6856-65.3587.6856-98.038,0-26.0521-10.2837-37.25-40.9063-43.763,0-5.2561,1.3711-11.312-.4571-16.4539-1.8282-5.2561-5.2561-12.2262-10.2837-14.0544-8.684-3.3136-9.4839-7.6557-9.2553-14.3972.457-16.4539-2.8566-33.822-19.3106-42.1632-19.9961-10.0552-23.5383-23.6526-23.1955-40.4493a9.9912,9.9912,0,0,0-.2285-1.8282c-7.9985-62.2736-38.05-115.5205-91.1823-158.8263C645.8034,16.077,561.2484-8.49,464.6958,2.5939c-109.35,12.6833-187.735,63.6448-236.64,147.4-19.3105,33.1365-27.88,68.7867-28.68,105.808-.1143,4.7991-2.0568,7.0844-7.1986,9.37-18.0537,8.1127-29.2515,20.91-32.4509,38.164-1.1426,6.0559-.5713,12.4547-1.2569,18.6249-.3428,2.2853-1.6,6.056-3.3136,6.3988-14.8543,3.7707-17.0253,13.2546-16.7967,24.4524.3428,24.4523.1142,48.7905.1142,73.1286-.1142,16.1112,2.7423,19.7676,19.9961,26.0521ZM849.421,470.3886c1.0284-11.7691,2.0567-21.5958,16.5682-26.2806.4571-.2285,1.2568,0,2.171,0,0,17.2538-.1142,34.5076,0,51.6472.2286,28.4516-12.6832,52.1041-37.1356,70.9576-35.3075,27.309-78.9561,34.7361-124.5473,36.9071-2.5138.1142-5.8274-1.7139-7.6556-3.4279-9.2553-8.7983-20.4532-13.0261-34.1649-12.7975-19.1962.2285-38.3925,0-57.5888.1142,31.7653-12.9118,60.2169-30.9654,84.7836-55.3036a224.2251,224.2251,0,0,0,34.0505-43.5343v9.7124c.1143,14.3972,8.4556,21.253,25.138,21.3673h34.6218c35.65.1142,61.131-18.7392,63.7591-49.3619ZM770.1221,295.4512c6.8558,0,13.0261-.4571,19.082.1143,12.112,1.0283,18.0537,7.77,18.168,20.11.1142,43.8771,0,87.8686,0,131.7458,0,2.7423-.2286,5.37,0,7.9984,2.0567,28.2231-12.1119,29.3658-37.25,27.0805V295.4512Zm-397.18-228.07C470.18,20.0761,567.8757,24.99,658.9437,80.0645c70.8434,42.8488,105.2367,103.7512,107.75,178.5938-4.6848.2286-7.77.8-10.855.4571-11.0836-1.0284-18.625,1.3712-23.424,5.9417a232.1511,232.1511,0,0,0-23.7668-35.536c-46.62-57.1317-107.6363-87.2973-181.1077-91.7536-74.0427-4.4562-139.63,17.3681-192.534,69.4722-23.31,22.967-40.4493,47.7622-52.447,73.8143-.1142-1.8282-.2285-3.6565-.457-5.2561-1.714-10.6265-9.1411-16.2255-21.8244-16.454-5.8274-.1143-11.6548,0-18.8534,0,5.0276-84.4407,46.1624-150.485,131.5173-191.9627ZM202.1182,317.8469c0-17.5966,5.8274-22.51,26.8519-22.3957h10.17V482.6148a11.732,11.732,0,0,1-2.8566.4571c-29.7085,1.4854-34.1648-2.171-34.1648-27.309Z"/></svg>