<svg id="a028eed6-45c2-4f19-a3d3-ceb89a4bbbb3" data-name="Layer 1" xmlns="http://www.w3.org/2000/svg" viewBox="0 0 1000 1000"><path d="M144.5,807.2c2-3.2,4.3-6.3,5.8-9.7Q181.35,729.25,212,661c1.3-2.9,2.8-5.8,4.1-8.4,37.4,10.8,74.4,21.5,112.8,32.5-47.3,103.9-89.3,211-144.2,314.8-6.4-30.1-12.4-58-18.3-85.8l-20.1-95.8a15.1888,15.1888,0,0,0-1.8-3.3v-7.8ZM485,0c2.5,3.9,7.1,7.8,7.2,11.8.6,28.4.3,56.7.3,85.7-30.9-7.8-61.2-6.1-92.8,1.9V54.9c0-9.5.2-19,.1-28.4-.2-18.1.8-19.7,16.7-26.5ZM440.2,432.3C418.7,481.1,397.8,528.5,377,576c16.8,7.5,101.2,8.9,150.4-1.8C507,527.1,486.7,480.4,466,432.7c40-4.6,74-20.1,102.4-49.7,23.9,53.4,47.4,105.9,71.3,159.1C707.6,513.7,766.5,473.5,817,420c12.7,13.7,25.1,26.9,38,40.8-75.9,79.6-168.4,135.1-277.4,161-113.5,26.9-226,20.8-336.2-15.5,32.4-72.9,64.3-144.7,96.8-217.8,27.8,28.3,62.5,40.1,102,43.8Zm-109.9-175c-.3-64,51.3-116.5,114.9-116.8,63.9-.4,117.4,51.6,117.7,114.4.3,66.8-51.5,119.4-117.7,119.4C382.3,374.3,330.6,321.7,330.3,257.3Zm162.7.2c0-25.3-20.7-46.7-45.5-46.9-27-.3-47.3,20.2-47.4,47.7-.1,25,21,46.1,46.2,46.1,25.2.1,46.7-21.6,46.7-46.9ZM714.7,999.7,573.8,682.5c38.1-12,74.8-23.5,112.6-35.4,6.8,14.9,14.1,30.8,21.3,46.8,15.5,34.5,30.5,69.3,46.5,103.6,4.5,9.8,5.3,18.6,2.9,29-12.8,55.7-24.9,111.5-37.2,167.2-.3,1.5-.8,3-1.2,4.5l-4,1.5Z"/></svg>