<svg id="affea054-50a0-4554-af82-d298a415ae21" data-name="ece32463-6df5-4d17-b69d-6246d2e7e603" xmlns="http://www.w3.org/2000/svg" viewBox="0 0 1000 1000"><path d="M144.75,807.25c2-3.2,4.3-6.3,5.8-9.7q31.05-68.25,61.7-136.5c1.3-2.9,2.8-5.8,4.1-8.4,37.4,10.8,74.4,21.5,112.8,32.5-47.3,103.9-89.3,211-144.2,314.8-6.4-30.1-12.4-58-18.3-85.8l-20.1-95.8a15.19,15.19,0,0,0-1.8-3.3v-7.8ZM485.25.05c2.5,3.9,7.1,7.8,7.2,11.8.6,28.4.3,56.7.3,85.7-30.9-7.8-61.2-6.1-92.8,1.9V54.95c0-9.5.2-19,.1-28.4-.2-18.1.8-19.7,16.7-26.5Zm-44.8,432.3c-21.5,48.8-42.4,96.2-63.2,143.7,16.8,7.5,101.2,8.9,150.4-1.8-20.4-47.1-40.7-93.8-61.4-141.5,40-4.6,74-20.1,102.4-49.7,23.9,53.4,47.4,105.9,71.3,159.1,67.9-28.4,126.8-68.6,177.3-122.1,12.7,13.7,25.1,26.9,38,40.8-75.9,79.6-168.4,135.1-277.4,161-113.5,26.9-226,20.8-336.2-15.5,32.4-72.9,64.3-144.7,96.8-217.8,27.8,28.3,62.5,40.1,102,43.8Zm-109.9-175c-.3-64,51.3-116.5,114.9-116.8,63.9-.4,117.4,51.6,117.7,114.4.3,66.8-51.5,119.4-117.7,119.4-62.9,0-114.6-52.6-114.9-117Zm162.7.2c0-25.3-20.7-46.7-45.5-46.9-27-.3-47.3,20.2-47.4,47.7-.1,25,21,46.1,46.2,46.1,25.2.1,46.7-21.6,46.7-46.9Zm221.7,742.2-140.9-317.2c38.1-12,74.8-23.5,112.6-35.4,6.8,14.9,14.1,30.8,21.3,46.8,15.5,34.5,30.5,69.3,46.5,103.6,4.5,9.8,5.3,18.6,2.9,29-12.8,55.7-24.9,111.5-37.2,167.2-.3,1.5-.8,3-1.2,4.5l-4,1.5Z"/></svg>