<svg id="e7b1719f-61a2-4dc1-9126-40f98bc7519d" data-name="ece32463-6df5-4d17-b69d-6246d2e7e603" xmlns="http://www.w3.org/2000/svg" viewBox="0 0 1000 1000"><path d="M999.9683,245.2376A82.8634,82.8634,0,0,0,917.2307,162.5H82.7693A82.8633,82.8633,0,0,0,.0317,245.2376v46.3971H999.9683ZM.146,430.7115V755.1481A82.8138,82.8138,0,0,0,82.8836,838H917.1164a82.9115,82.9115,0,0,0,82.8519-82.8519V430.7115ZM307.098,719.95a6.2188,6.2188,0,0,1-6.1711,6.171H122.8811a6.2188,6.2188,0,0,1-6.1711-6.171V662.0112a6.2957,6.2957,0,0,1,6.1711-6.1711H300.9269a6.2956,6.2956,0,0,1,6.171,6.1711Z"/></svg>