<svg id="e936e4ea-2ae6-4e9d-9894-917efd1f15fa" data-name="Layer 1" xmlns="http://www.w3.org/2000/svg" viewBox="0 0 50 50"><g id="e0f5fd48-a326-4201-96b6-48c50e7544a5" data-name="left"><path d="M5.9245,8.7745q1.32.459,2.6393.9184a.9613.9613,0,0,1,.6618,1.42c-.4886,1.3075-.9855,2.6118-1.4782,3.9177Q6.0857,19.4347,4.42,23.8371a2.1,2.1,0,0,1-.3524.6106.77.77,0,0,1-.8864.2329C2.3,24.3785,1.411,24.0935.5452,23.7511.3249,23.6639.18,23.3878,0,23.1985v-.52a.4882.4882,0,0,0,.05-.082q2.4249-6.44,4.844-12.8822a1.3656,1.3656,0,0,1,.9-.94Z"/><path d="M10.5713,28.1133l-.8017.8582c-.4853-.5076-.9882-1.0137-1.4683-1.54-.7006-.7687-1.3831-1.5536-2.0766-2.3287a1.3078,1.3078,0,0,1-.259-1.4441q2.2835-6.0264,4.5556-12.057a1.1645,1.1645,0,0,1,1.0035-.8531,1.2366,1.2366,0,0,1,1.1131.5914,2.3134,2.3134,0,0,0,1.7113.81,4.1445,4.1445,0,0,0,2.12-.5394c.7747-.3884,1.5219-.8308,2.2936-1.2255a5.8159,5.8159,0,0,1,2.8619-.7554,3.32,3.32,0,0,1,1.8807.6391,2.3712,2.3712,0,0,1,.2231.1886.6594.6594,0,0,1,.0777.12c-.3171.188-.62.3754-.9326.5465a.284.284,0,0,1-.2334-.002,2.6682,2.6682,0,0,0-2.3008-.0945c-.6662.25-1.2991.5905-1.9424.9-.78.3751-1.5348.8129-2.3381,1.1283A3.8446,3.8446,0,0,1,12.1,12.4887c-.17-.1306-.3216-.2854-.5014-.4466-.0441.1089-.0895.2146-.13.3221Q9.2934,18.12,7.1127,23.8725a.5.5,0,0,0,.1114.6019c1.0533,1.136,2.0968,2.281,3.1439,3.4228C10.4481,27.9845,10.53,28.07,10.5713,28.1133Z"/><path d="M40.2648,31.082a2.5558,2.5558,0,0,1-.6322,2.3879,2.88,2.88,0,0,1-3.4345.6452,3.3,3.3,0,0,1-1.3959,2.5815,2.6366,2.6366,0,0,1-2.8969.0493,3.1883,3.1883,0,0,1-2.025,2.87,2.3279,2.3279,0,0,1-2.0409-.2172l.5858-.9867c.06.0168.13.0352.2.056A1.4247,1.4247,0,0,0,30.23,37.98a2.1364,2.1364,0,0,0-.003-2.7756c-1.0725-1.25-2.163-2.4839-3.2437-3.7265a.74.74,0,0,1-.1191-.9737.45.45,0,0,1,.7964-.06q2.0961,2.3334,4.1893,4.6695a2.0833,2.0833,0,0,0,1.32.8183,1.7644,1.7644,0,0,0,1.8473-1.7015,2.3244,2.3244,0,0,0-.66-1.8668q-1.7988-1.9669-3.5812-3.9489a.6233.6233,0,0,1-.0976-.8526.5437.5437,0,0,1,.9707-.0959q2.2289,2.52,4.4546,5.0425a1.7507,1.7507,0,0,0,2.7048.128.72.72,0,0,0,.2044-.2883C39.1535,31.6683,39.7759,31.4574,40.2648,31.082Z"/></g><g id="e8a5c36c-f733-4442-b11c-9f807a816f10" data-name="right"><path d="M50,22.6787a1.4427,1.4427,0,0,1-.7528.7147c-.7352.37-1.4583.7642-2.1877,1.1458a.9874.9874,0,0,1-1.5092-.4723c-.726-1.3907-1.444-2.7856-2.1652-4.1788q-2.0442-3.9489-4.084-7.9a1.8086,1.8086,0,0,1-.2143-.67.8578.8578,0,0,1,.5148-.8635c.8182-.4223,1.63-.857,2.4454-1.2844a.9724.9724,0,0,1,1.4611.4576c.5051.9568.9971,1.9205,1.4946,2.8812l4.7619,9.1941q.118.228.2354.4563Z"/><path d="M38.04,12.5551c.7812,1.509,1.5418,2.9912,2.3143,4.4673q1.9271,3.6825,3.8714,7.3561a.4905.4905,0,0,1-.0063.5348,16.8994,16.8994,0,0,1-3.4949,4.1618c-.4369.4-.8971.7743-1.3609,1.1726-.9563-1.0625-1.8786-2.0961-2.8106-3.121q-4.5366-4.9886-9.08-9.971c-.1166-.128-.245-.2452-.368-.3673-.5311-.5273-.8007-.5612-1.4692-.2012-1.24.6678-2.4786,1.3391-3.7253,1.9948-1.189.6253-2.3866,1.2345-3.5826,1.8468a3.3923,3.3923,0,0,1-1.5814.441,1.464,1.464,0,0,1-1.5118-1.2517,2.145,2.145,0,0,1,.7732-2.18,63.0353,63.0353,0,0,1,9.49-6.4216,6.6372,6.6372,0,0,1,2.6321-.881,5.0158,5.0158,0,0,1,2.885.6207c.9189.5066,1.8,1.082,2.7,1.6224.3988.2393.7935.49,1.21.6938a2.34,2.34,0,0,0,2.1328-.0164C37.379,12.9022,37.6925,12.7331,38.04,12.5551Z"/><path d="M25.0142,33.0728a2.0945,2.0945,0,0,1-.7,1.6155Q22.5023,36.34,20.686,37.9861a1.56,1.56,0,0,1-1.7127.3612,1.7671,1.7671,0,0,1-1.1219-1.5129,2.0656,2.0656,0,0,1,.6852-1.9021c1.169-1.063,2.343-2.1207,3.5033-3.1931a1.6651,1.6651,0,0,1,1.8948-.4485A1.8846,1.8846,0,0,1,25.0142,33.0728Z"/><path d="M20.8282,30.6409a2.18,2.18,0,0,1-.6913,1.6312c-.959.8763-1.913,1.7586-2.885,2.6205a1.6326,1.6326,0,0,1-2.7155-.7384,2.0964,2.0964,0,0,1,.6151-2.3618c.8933-.82,1.8005-1.6248,2.69-2.449A1.6389,1.6389,0,0,1,19.7361,28.9,1.8776,1.8776,0,0,1,20.8282,30.6409Z"/><path d="M22.3979,38.9059a2.0538,2.0538,0,0,1,.572-1.4717c.5287-.557,1.0574-1.1145,1.6-1.6579a1.62,1.62,0,0,1,2.6668.4166,2.1285,2.1285,0,0,1-.2648,2.3692c-.5635.6272-1.15,1.2353-1.7546,1.8236a1.4884,1.4884,0,0,1-1.6788.3539,1.8312,1.8312,0,0,1-1.1395-1.607A1.7851,1.7851,0,0,1,22.3979,38.9059Z"/><path d="M10.3309,30.9667a2.0853,2.0853,0,0,1,.83-1.6894c.1632-.1251.3273-.2494.4845-.3818a1.6945,1.6945,0,0,1,2.7969.9951,2.014,2.014,0,0,1-.6393,2.0605c-.1969.1841-.4235.3362-.6321.5082a1.5915,1.5915,0,0,1-1.7519.3113A1.8136,1.8136,0,0,1,10.35,31.2518C10.336,31.1559,10.3366,31.0578,10.3309,30.9667Z"/></g></svg>