<svg id="ba54a59c-d092-4ac8-890f-ca87b8260499" data-name="ece32463-6df5-4d17-b69d-6246d2e7e603" xmlns="http://www.w3.org/2000/svg" viewBox="0 0 1000 1000"><g id="bf1c4f38-2cfd-4940-a8b1-40a4d7463213" data-name="e0f5fd48-a326-4201-96b6-48c50e7544a5"><path d="M118.49,153.4249q26.4,10.9695,52.786,21.9484c10.4425,2.2988,17.3482,14.2777,15.4244,26.7557a25.9731,25.9731,0,0,1-2.1884,7.18c-9.772,31.2472-19.71,62.4179-29.564,93.6269Q121.714,408.1871,88.4,513.3976A53.2875,53.2875,0,0,1,81.352,527.99c-4.2413,6.3131-11.4374,8.5724-17.728,5.566-17.624-7.22-35.404-14.0308-52.72-22.2136C6.498,509.2584,3.6,502.66,0,498.136V485.7088a12.2709,12.2709,0,0,0,1-1.96q48.498-153.906,96.88-307.8644c2.4363-10.6426,9.2078-19.0937,18-22.4646Z"/><path d="M211.426,615.5921l-16.034,20.51c-9.706-12.1308-19.764-24.2258-29.366-36.8036-14.012-18.3707-27.662-37.1286-41.532-55.6523-7.4728-9.1543-9.5246-22.8248-5.18-34.5117q45.67-144.0216,91.112-288.1435c2.5221-11.0982,10.4973-19.2,20.07-20.3878,9.0239-.5006,17.5584,4.9177,22.262,14.1336,8.5754,11.991,21.0288,19.0345,34.226,19.3577a72.5362,72.5362,0,0,0,42.4-12.8908c15.494-9.2822,30.438-19.8548,45.872-29.2875,17.4571-11.8155,37.175-18.0345,57.238-18.0529,13.5486.3851,26.6742,5.7148,37.614,15.2735a50.7657,50.7657,0,0,1,4.462,4.5072,16.3808,16.3808,0,0,1,1.554,2.8678c-6.342,4.4929-12.4,8.9715-18.652,13.06a4.8432,4.8432,0,0,1-4.668-.0478,45.6386,45.6386,0,0,0-46.016-2.2584c-13.3241,5.9747-25.9821,14.1121-38.848,21.5086-15.6,8.9643-30.696,19.4271-46.762,26.9646-26.4365,13.5326-56.9831,8.3049-79.178-13.55-3.4-3.1211-6.432-6.8206-10.028-10.673-.882,2.6025-1.79,5.1286-2.6,7.6977q-43.5041,137.5546-87.118,275.03a13.6423,13.6423,0,0,0,2.228,14.3844c21.066,27.1487,41.936,54.5124,62.878,81.8C208.962,612.514,210.6,614.5573,211.426,615.5921Z"/><path d="M805.296,686.5394c4.2688,20.3548-.5054,41.9029-12.644,57.0671-17.3731,23.0481-45.5015,29.3623-68.69,15.4193-.7205,24.65-11.05,47.4772-27.918,61.6938-17.3855,14.1732-40.159,14.6363-57.938,1.1782-.7935,30.4887-16.7276,57.4736-40.5,68.5885-13.5445,5.917-28.6191,4-40.818-5.1908l11.716-23.58c1.2.4015,2.6.8412,4,1.3383,11.683,4.8475,24.6491.1361,32.0959-11.6625,13.64-19.1174,13.6144-47.25-.06-66.3325-21.45-29.8731-43.26-59.3614-64.874-89.0575-5.6005-5.9233-6.6226-15.9083-2.382-23.27,1.9537-5.4615,7.2425-7.9964,11.8131-5.662a9.6757,9.6757,0,0,1,4.1149,4.2281q41.922,55.7646,83.786,111.5937c6.3617,10.3411,15.82,17.3471,26.4,19.5561,19.467,1.1081,36-16.8508,36.9271-40.1123q.0111-.2754.019-.5509c1.3858-16.479-3.4543-32.8373-13.2-44.6136q-35.976-47.0058-71.624-94.3725c-5.083-5.09-5.9408-14.0447-1.952-20.3758,2.1118-6.7179,8.3813-10.1181,14.0033-7.5946a11.55,11.55,0,0,1,5.4106,5.3027q44.5781,60.2241,89.092,120.5079c11.5389,18.5425,33.4727,22.3966,48.99,8.6084a38.2052,38.2052,0,0,0,5.1056-5.5495,17.5058,17.5058,0,0,0,4.088-6.89C783.07,700.5511,795.518,695.5108,805.296,686.5394Z"/></g><g id="e758753f-87fa-478f-8499-4301c1a765a8" data-name="e8a5c36c-f733-4442-b11c-9f807a816f10"><path d="M1000,485.7136c-3.0713,7.7284-8.4376,13.8162-15.056,17.08-14.704,8.8425-29.166,18.2632-43.7539,27.3829-8.8429,7.6284-21.1867,5.2466-27.5708-5.32a25.49,25.49,0,0,1-2.6133-5.9674q-21.78-49.8532-43.3039-99.8668Q826.818,324.65,786.022,230.225a49.3826,49.3826,0,0,1-4.286-16.012c-.6543-8.8129,3.4969-17.1331,10.296-20.6363,16.364-10.0923,32.6-20.4809,48.908-30.6951,8.8475-7.2771,20.9567-4.6061,27.0467,5.9659a25.1053,25.1053,0,0,1,2.1754,4.97c10.102,22.866,19.942,45.8969,29.8919,68.8562l95.238,219.7246q2.36,5.4489,4.708,10.9049Z"/><path d="M760.8,243.7754c15.624,36.0627,30.836,71.485,46.286,106.7615q38.5419,88.0061,77.4279,175.7993a13.6669,13.6669,0,0,1-.126,12.7809,395.43,395.43,0,0,1-69.898,99.46c-8.738,9.5594-17.942,18.5046-27.218,28.0233-19.126-25.3921-37.572-50.0935-56.212-74.587q-90.7321-119.22-181.6-238.2913c-2.332-3.059-4.9-5.86-7.36-8.7779-10.622-12.6017-16.014-13.4118-29.384-4.8084-24.8,15.9594-49.572,32.0024-74.506,47.6726-23.78,14.9437-47.732,29.5027-71.652,44.1356a59.722,59.722,0,0,1-31.628,10.5393c-15.0082.7734-28.0715-12.1506-30.236-29.9137-3.7941-19.4841,2.2437-39.8255,15.464-52.0986a1274.9119,1274.9119,0,0,1,189.8-153.4662A118.7392,118.7392,0,0,1,562.6,185.9507c20.043-2.081,40.1466,3.0874,57.7,14.8338,18.378,12.107,36,25.8581,54,38.7728,7.976,5.7189,15.87,11.71,24.2,16.5808a40.0877,40.0877,0,0,0,42.656-.392C747.58,252.0705,753.85,248.0293,760.8,243.7754Z"/><path d="M500.284,734.1164c.3063,14.7019-4.8135,28.8211-14,38.6079q-36.2381,39.4731-72.564,78.8123c-8.8642,10.9817-22.4335,14.4012-34.254,8.6321-12.6791-5.8879-21.405-19.9485-22.438-36.156-2.374-16.9707,2.8183-34.1941,13.704-45.4572,23.38-25.4041,46.86-50.6815,70.066-76.31,9.3852-12.9458,24.65-17.2632,37.896-10.7185C492.4009,699.2469,500.9061,716.0247,500.284,734.1164Z"/><path d="M416.564,675.9978c.2171,14.7471-4.8071,28.9131-13.826,38.9831-19.18,20.9422-38.26,42.0277-57.7,62.6258-12.9035,15.053-33.5761,14.7566-46.1736-.662A41.4122,41.4122,0,0,1,290.728,759.96c-6.4318-20.0214-1.4859-42.7142,12.302-56.4433,17.866-19.5967,36.01-38.83,53.8-58.5273,9.32-13.0788,24.6832-17.3753,37.892-10.5965C408.2717,641.8467,416.8448,658.1767,416.564,675.9978Z"/><path d="M447.958,873.5184c-.2612-13.077,3.8568-25.7375,11.44-35.1713,10.574-13.3115,21.148-26.6348,32-39.6213,12.0806-15.7736,32.575-16.8585,45.7756-2.4231a39.1719,39.1719,0,0,1,7.56,12.3792c8.075,18.3951,5.9785,40.8092-5.296,56.62q-16.905,22.4837-35.092,43.5812c-8.57,11.019-22.0133,14.4054-33.576,8.4577-13.2032-6.4125-22.094-21.395-22.79-38.4048A50.9424,50.9424,0,0,1,447.958,873.5184Z"/><path d="M206.618,683.7839c-.1536-15.8464,6.0092-30.8354,16.6-40.374,3.264-2.99,6.546-5.96,9.69-9.1245,14.002-14.8414,35.4216-13.3094,47.842,3.4218a44.2384,44.2384,0,0,1,8.096,20.36c4.0751,17.9879-.9057,37.17-12.786,49.2427-3.938,4.4-8.47,8.0347-12.642,12.1452-9.32,10.7785-23.181,13.7215-35.038,7.44-12.1639-6.49-20.372-20.4247-21.38-36.297C206.72,688.3055,206.732,685.961,206.618,683.7839Z"/></g></svg>