<svg id="b135ee5f-8b88-4828-800d-845b8e72fd2d" data-name="Layer 1" xmlns="http://www.w3.org/2000/svg" viewBox="0 0 1280 1280"><path d="M774.1762,358.1045c.4783.636,9.01,12.6424,19,26.6584,9.9662,13.9145,18.2447,25.7675,18.3937,26.3765.1986.8121-66.5563,149.6819-69.1655,154.4083-.6134,1.0107-39.6143,14.8542-123.8327,43.9543-147.4387,50.8045-146.6515,50.5043-181.9762,59.1453-29.7418,7.2753-40.1678,9.0726-73.8465,13.0077-22.7992,2.6723-33.5977,2.947-45.8042.9841-12.3081-1.938-11.2251-.5892-11.938-14.9383-.2944-6.9208-.5391-13.6386-.5573-15.0327-.0388-2.3573-.0388-2.3573-13.2348.8706l-13.2975,3.2528-2.4916,6.5265c-1.3868,3.5667-2.7962,6.601-3.1007,6.6755-1.0151.2483-26.9567-12.1252-46.7757-22.3386-35.0628-17.9958-98.3012-52.66-136.2836-74.6748-8.0112-4.6029-15.368-8.29-16.2816-8.0665-2.2331.5463-39.1037,19.14-39.64,20.0245-.23.3791.2213,1.3445,1.0538,2.1091C38.66,591.2761,202.7132,767.6,203.67,768.8725c.83,1.1954.4221,1.7256-1.3035,2.1477-4.1618,1.0181-9.5526,4.4884-9.205,5.9095a52.86,52.86,0,0,0,3.9172,7.218c1.9609,3.1781,3.6193,6,3.6442,6.1014.1986.812-12.1283,7.5927-50.7063,28.0028-73.1408,38.7622-130.8846,70.1-140.5475,76.337-9.2051,5.9095-11.0563,11.0959-5.4521,15.5344,4.3678,3.3424,10.12,3.549,27.2414.9746L47.34,908.67l23.4044-12.0724c35.145-18.1717,45.2592-23.4429,106.7318-55.37l56.4922-29.4182,5.951,1.0187c21.0428,3.7818,96.6861,11.3131,133.0727,13.1705,16.242.8681,16.5714.8951,66.4081-5.5939,31.9056-4.1468,37.0555-5.0838,59.7435-10.8488,13.6787-3.4536,27.7138-7.21,31.2936-8.408,8.3528-2.7963,7.4371-2.142-17.2255,13.1429-23.3657,14.43-96.7942,59.9324-129.5679,80.3212-12.5344,7.6921-32.9768,20.4385-45.5878,28.257s-33.1549,20.59-45.7659,28.4081-33.0534,20.5648-45.4862,28.2321c-12.51,7.7936-28.1205,17.4217-34.6549,21.4945l-11.95,7.4416-3.869-1.7431c-2.1748-.9741-12.5929-5.7413-23.2389-10.56-16.4619-7.4844-19.8774-8.693-22.9226-7.9481-4.06.9932-39.1477,12.8036-39.4544,13.3089-.1782.1512,8.8955,5.14,19.941,11.1518,22.0164,11.72,35.054,19.7192,43.9386,27.0131,10.879,8.85,18.9865,9.4488,44.3386,3.14,16.85-4.1218,17.536-4.3971,28.5434-10.8551,6.2029-3.6689,28.7-16.81,49.8758-29.1983,21.2772-12.4127,54.8834-32.0369,74.8387-43.696,19.93-11.76,51.9353-30.4551,71.0267-41.6876,28.0394-16.4337,177.0332-103.9812,191.88-112.7767,3.6608-2.1865,3.8638-2.2362,10.0069.8872,6.4725,3.15,8.8276,3.5424,8.2565,1.2077-.9187-3.7557,6.741-9.8251,14.7353-11.8882l2.9437-.72-3.4775,6.0145c-5.3717,9.7054-6.19,16.0376-2.2709,17.9838,1.7191.87,3.7244.2723,9.6206-2.8913,2.0075-1.0289,2.7655-.5689,5.99,3.376,4.6344,5.7516,14.0623,10.8685,21.5856,11.7178,6.763.82,38.5467-4.2653,47.1047-7.5421,2.9459-1.1509,17.008-5.2362,31.1964-9.2448,16.6247-4.6046,26.9062-7.8727,29.0174-9.3573,5.6457-3.7479,18.2354-17.37,20.795-22.3,2.97-5.89,5.3746-20.2491,4.6-27.3751-.6529-6.1876-2.7314-11.1658-9.09-21.7671-5.5531-9.5074-12.0438-14.0518-21.0875-14.9594-3.2169-.3966-5.8247-.942-5.8992-1.2466s7.29-3.1818,16.4822-6.5061c9.1153-3.198,29.5044-10.4447,45.222-16.1184,15.844-5.597,47.3515-16.2089,70.0732-23.5959,95.125-30.6922,201.941-67.6868,244.9882-84.7793,32.9644-13.0123,53.5916-27.2025,78.0065-53.6153,14.45-15.6915,22.5243-28.4246,22.7645-35.7989.2109-6.6141-1.969-11.5675-6.7158-15.14-5.3018-4.0822-23.593-10.6888-42.4772-15.3214-8.8093-2.1484-16.7818-4.3939-17.7158-5.1336-6.06-4.5423-28.0681-7.8728-53.5138-8.1033-49.8265-.5063-59.3865.4337-93.9035,9.7377-35.4554,9.426-112.756,33.8216-179.3261,56.3454-12.3138,4.1956-23.5607,7.915-25.0833,8.2874-2.7407.6705-2.7655.569-2.24-3.0021.39-1.9243,3.4779-31.0812,6.8675-64.7227,5.5678-53.3239,6.065-61.4066,4.5263-62.8591-.9837-.9427-14.385-12.1881-29.8575-24.8633l-28.1179-23.03-17.8654,4.37C777.3294,356.0421,773.5466,357.29,774.1762,358.1045Z"/></svg>