<svg id="a739a732-1166-4b6c-be9d-130585afef34" data-name="a14d92bd-57f2-4768-8343-b3bf84968d76" xmlns="http://www.w3.org/2000/svg" viewBox="0 0 1280 1280"><defs><style>.a1b36e78-31a3-4d81-a538-1957ee53c883{isolation:isolate;}</style></defs><path d="M171.8634,690.71,59.3432,561.634l82.6148-31.6917L363.2363,629.301C365.8013,654.0071,171.8634,690.71,171.8634,690.71Z"/><polygon points="624.366 536.747 557.73 486.466 367.584 442.408 427.322 417.074 835.323 449.125 624.366 536.747"/><path d="M198.3749,728.4757,110.346,826.5973l44.37-3.7608,158.8925-104.71C318.1482,677.0946,198.3749,728.4757,198.3749,728.4757Z"/><path class="a1b36e78-31a3-4d81-a538-1957ee53c883" d="M1206.8883,380.0873a158.1,158.1,0,0,0-26.1081-9.61l-.6969-.467a126.0707,126.0707,0,0,0-20.1573-10.0267c-20.6216-8.2108-54.2678-16.1262-90.6-2.35L171.8634,690.71s-28.2093,35.3,20.079,43.0373c12.9762,2.0676,34.945,1.5349,60.115-.375,68.44-5.1841,160.6186-20.4341,160.6186-20.4341s478.6852-53.9744,802.9709-268.9764C1215.6469,443.9618,1261.6722,406.9044,1206.8883,380.0873Zm-79.4651,5.5306c8.6275-1.3937,21.8722-16.4833,29.1986-25.6216A111.2066,111.2066,0,0,1,1175,370.0229c-9.0354,11.6312-23.77,29.1924-31.3127,30.685C1132.325,402.9383,1114.9846,387.7337,1127.4232,385.6179Zm81.8057,58.9363c-321.4,211.5036-797.9815,263.3442-797.9815,263.3442S319.8887,722.9,252.0578,728L780.6912,559.5855c352.2631-112.9911,410.8905-172.8307,410.8905-172.8307l7.1291-6.2913c15.1984,3.5681,30.3838,13.9251,31.12,28.7413C1230.47,422.0388,1220.9507,438.1982,1209.2289,444.5542Z"/><path d="M643.4648,701.617s-.4515-.5926-1.216-1.728c-3.1645-4.6233-11.5587-17.5525-14.28-29.4411-1.4477-6.3515-1.2776-12.3928,2.158-16.6861,0,0,203.1925-104.0071,264.7753-69.8624l-24.379,24.5359-50.2,50.5014L549.8887,930.9375l-112.114,16.1139Z"/></svg>