<svg id="e4474980-2ea6-4552-b95d-d8d9e94cfae8" data-name="Layer 1" xmlns="http://www.w3.org/2000/svg" viewBox="0 0 1000 1000"><path d="M187.3922,158.591,705.266,399.15l50.6536,153.15,33.9215-196.8542Z"/><path d="M81.9705,115.3434l730.6372,208.649L948.0193,210.3418,51.9807,103l436.59,584.9852,186.7052-261.04Z"/><path d="M690.82,446.512,643.5491,507.04l104.9645,70.1288Z"/><path d="M701.9745,897l-6.8575-12.7091c34.1958-18.378,88.141-51.8423,111.2734-90.4268-17.0979,14.5378-40.4132,28.71-64.6428,28.07-19.2008-.3658-36.0244-10.0576-49.7393-28.527-24.5039-32.9157-10.4233-76.1633,17.555-99.3871,23.9554-19.7494,64.2771-29.0756,98.93,9.3261,12.0691,13.2577,19.5666,27.2469,22.31,41.7847,20.298-30.4471,28.9841-64.9171,24.5039-98.7472-4.8459-37.67-25.6011-71.1344-58.4254-94.1755l8.32-11.8862c36.2073,25.51,59.0654,62.4484,64.5514,104.1417,5.5773,43.43-8.1376,87.5009-38.4931,124.3482a4.7671,4.7671,0,0,0-.1829,1.28C821.8425,822.5739,755.7368,868.1073,701.9745,897Zm52.8479-205.54c-13.6234,0-26.2411,5.6688-35.9329,13.8063-22.8582,18.7437-34.7444,53.6709-15.3607,79.4549,11.1548,14.8121,24.1382,22.4924,38.676,22.9495h1.3714c31.6357,0,62.8142-32.1842,73.8775-45.0762,1.5544-17.1893-4.9374-33.4643-19.5666-49.7393C783.7151,697.4028,768.72,691.46,754.8224,691.46Z"/></svg>