<svg id="f8cb80fd-2919-421e-8e6a-ad57a102863e" data-name="Layer 1" xmlns="http://www.w3.org/2000/svg" viewBox="0 0 500 500"><path d="M481.9965,346.1576c1.8317-1.5034,3.7282-2.9273,5.4848-4.5227,13.865-12.5931,16.8448-34.0648,6.9951-50.157-9.8946-16.1655-29.54-22.2377-46.13-14.2582-16.5457,7.9585-25.0163,27.682-19.8307,46.175,5.9016,21.0464,26.8726,32.5222,46.7531,25.5963a14.1278,14.1278,0,0,1,1.8358-.3857Z"/><path d="M357.0711,293.5093c-34.8417,19.4836-71.7346,33.3586-109.7262,44.1347-35.18,9.9786-70.9115,17.2118-106.783,23.7112-31.5884,5.7234-63.2208,11.1788-94.7861,17.04-11.9993,2.228-21.71-1.7772-29.7992-10.7188C4.5348,355.0287.1545,339.3737-.1123,322.3091c-.2272-14.535,3.0033-28.1371,11.5568-39.9,3.6143-4.97,7.956-9.164,13.66-11.2781,11.0785-4.1063,20.82-1.2532,29.1442,7.0785,8.461,8.4691,12.0951,19.3509,13.2415,31.3389.9983,10.4388-.91,20.4227-3.9947,30.2865-.6159,1.9689-.1805,4.3032-.23,6.469,1.9156-.6124,4.035-.8582,5.7133-1.8975,9.8756-6.1156,19.66-12.3963,29.4533-18.6588q23.3657-14.9409,46.7044-29.9291,23.6955-15.1945,47.3852-30.399,21.3806-13.7163,42.7613-27.4323c9.4766-6.08,18.8818-12.2883,28.4473-18.2082,10.1785-6.2992,21.4532-6.69,32.8-5.9821,13.1473.82,23.3758-5.0212,31.7138-15.17,3.3-4.0168,6.1384-8.4519,9.3474-12.5569,4.4418-5.6818,9.4092-10.7111,15.8069-14.0185,4.2956-2.2208,7.474-5.8429,10.15-10.0173,8.0195-12.51,4.8427-25.5966,2.0747-38.8974-.7458.3313-1.332.5458-1.8787.8416-7.867,4.2574-15.6586,8.6775-23.6039,12.765q-49.2567,25.34-98.6032,50.486a10.6564,10.6564,0,0,1-14.7282-4.7221,11.8968,11.8968,0,0,1,3.8837-15.918c8.4473-5.66,16.9614-11.22,25.5862-16.5726,19.6662-12.2051,39.296-24.485,59.1664-36.3118,20.9756-12.4847,42.1727-24.5581,63.3555-36.65A106.5388,106.5388,0,0,1,407.819,65.4993c6.1861-1.4191,11.5388.8094,14.2626,5.8959a12.7972,12.7972,0,0,1-2.723,16.0206,158.5172,158.5172,0,0,1-17.183,14.21c-6.5806,4.6322-13.6773,8.4478-20.6939,12.7073.9369,5.5919,1.5942,11.3757,2.9427,16.9735a59.4582,59.4582,0,0,0,4.6362,12.9782c2.935,5.7618,6.6533,6.67,12.186,3.902q27.6373-13.8271,55.2754-27.6523c1.3855-.6927,2.7775-1.3806,4.2029-1.9728,6.556-2.7232,10.2476-1.3755,13.6882,4.9332.071.13.2944.1678.5381.2972,3.4209-3.27,7.124-2.7929,10.6441-.3155,9.4968,6.6835,13.9017,16.4776,14.38,28.2059.2246,5.5084-.99,10.7554-7.42,11.99.132.518.1754.8.2737,1.0579a38.9957,38.9957,0,0,1-10.35,43.3639c-15.4847,13.8784-32.134,26.0728-49.0586,37.8637-7.6529,5.3316-15.4435,10.4431-23.469,15.855l5.0129,3.6087c.6659-.63,1.2088-1.1133,1.72-1.6314,7.39-7.4874,15.7827-13.257,25.6-16.5481a57.9125,57.9125,0,0,1,36.719-.5235,9.7519,9.7519,0,0,1,6.18,12.2,9.1043,9.1043,0,0,1-11.4178,6.4077c-1.8346-.4827-3.671-.9924-5.5337-1.3168-28.5472-4.9712-62.6548,24.1767-49.2156,64.5436,1.8386,5.5228-.3662,11.1783-5.0992,13.001a9.0993,9.0993,0,0,1-12.23-6.5394,138.5029,138.5029,0,0,1-3.7544-19.4825,63.9626,63.9626,0,0,1,3.8989-28.8668C386.1164,284.084,371.23,285.5919,357.0711,293.5093Zm69.5122-107.9436a12.0629,12.0629,0,0,0,6.4285-13.4136c-1.1049-5.3667-5.6756-9.4238-10.92-9.1976a13.0883,13.0883,0,0,0-6.109,1.8563q-37.0744,22.9731-74.028,46.164-30.1237,18.84-60.22,37.7291c-3.1617,1.9825-4.158,4.3463-3.01,6.9679,1.1761,2.6874,3.8345,3.5117,6.9013,1.9635,8.6225-4.3528,17.1961-8.8136,25.8239-13.1545q22.4637-11.3023,44.9689-22.5126l-.468-1.0421Q391.27,203.2531,426.5833,185.5657Z"/></svg>