<svg id="f8431c5b-0779-4a63-9d42-fbcd15c6e5d4" data-name="f0595910-bae8-4a95-a6f7-b55567ef437e" xmlns="http://www.w3.org/2000/svg" viewBox="0 0 1000 1000"><path id="b5a32b60-0929-473a-a5c4-ee7b20850f96" data-name="path4190" d="M178.3907,468.94a124.7862,124.7862,0,0,0-13.6524,8.8872c-2.7689,2.3409-13.6814,13.4572-13.5069,13.7627.0938.1643,19.1753,21.4661,42.4455,47.3137,23.2244,25.8721,42.1833,47.1967,42.131,47.3885s-32.1359,23.2092-71.2978,51.15-71.5055,51.0415-71.8752,51.335l-.6722.5338,1.7333.7808c2.1183.9549,5.9508,1.5629,10.2192,1.621l3.2042.0437,8.5007-4.8583c14.9375-8.5373,51.3452-30.8182,113.7253-69.597,13.8433-8.6058,25.3347-15.59,25.5363-15.5215s8.5329,8.2808,18.5141,18.25l18.1475,18.1251,3.036.7c16.3463,3.7729,60.5793,12.536,73.8416,14.631,11.1831,1.768,29.8681,2.1393,52.8915,1.0527l11.345-.5355-1.8823,1.3306c-1.0326.73-72.1949,49.0519-158.1309,107.378s-156.55,106.3159-156.9169,106.6424c-2.04,1.8146,31.76,8.0848,43.925,8.1484,8.8194.0462,9.9181-.3693,23.1617-8.7641,43.4034-27.5131,401.3177-250.6557,403.3172-251.45.5635-.2238,5.7836-1.3177,11.6-2.4306,54.4654-10.4217,89.4846-23.3828,130.5651-48.3246,47.11-28.6023,82.2181-59.729,96.0559-85.1628l.7888-1.45-5.7458,2.9908c-27.5861,14.3609-43.2684,10.9219-47.8758-10.4989-4.895-22.7551,28.6965-57.2388,53.3143-54.73,13.9429,1.4208,24.88,12.092,23.4462,22.8753l-.2057,1.55.55-.8682c2.9083-4.5917,3.4535-21.3611.84-25.8286-12.6468-21.6192-62.52-24.07-150.0166-7.3734l-5.3919,1.0293-4.1911-1.7541c-45.8762-19.1972-83.9461-21.1145-114.6876-5.775-15.1354,7.5526-75.8184,51.2609-127.9447,92.1542-44.6645,35.0391-88.318,64.7942-95.4476,65.0587-13.5768.511-68.3282-29.1769-157.4879-85.2866l-11.0392-6.9522-3.296,1.6037c-.439.2136-.9659.4917-1.5568.8189Zm249.9225-8.2881-56.6544,36.8832c-31.1528,20.28-57.3872,37.36-58.2447,37.9131l-1.6038,1.0447,9.8138,4.5546,9.8144,4.5543,1.4138-.8542c.7776-.47,4.2777-2.9374,7.7777-5.4838,47.0441-34.2255,106.6576-79.34,107.19-81.1185.6284-2.1-3.9114-1.6828-15.4941,1.4219l-3.997,1.0712ZM855.6783,252.2868,795.636,323.5813c-33.0249,39.2129-60.32,71.6326-60.6607,72.0458-.5487.6663-.0117.6536,4.7556-.11,11.0839-1.7753,29.1729-3.87,42.6393-4.9389,6.93-.55,20.8873.7227,37.35,3.4057,8.3752,1.3651,6.0431,3.3257,15.8516-13.3255,18.2132-30.9177,47.4351-79.5534,74.5333-124.0439,16.6868-27.3971,17.773-29.4,16.8358-31.04-2.4849-4.35-23.8836,3.277-61.7892,22.026l-9.4737,4.6865ZM598.2169,408.39a86.4325,86.4325,0,0,1,19.47-8.697c11.2127-3.0866,31.15.9677,59.0782,12.0153,4.1162,1.6281,7.5333,3.0431,7.5936,3.1435a52.83,52.83,0,0,1-5.4392,3.8541c-11.28,7.4648-38.6271,27.339-43.734,31.783-15.8828,13.8211-35.2076,35.74-50.5641,57.3518-3.0492,4.2911-3.3033,4.5925-3.5492,4.2074-.0807-.1265-9.2752-12.3292-20.4317-27.1166-17.8667-23.6813-20.2444-26.9509-19.9449-27.4249,1.3305-2.1062,17.16-18.0014,24.6522-24.7549a201.1943,201.1943,0,0,1,32.868-24.3626Zm-77.6716,63.6125a.4375.4375,0,0,1,.1286-.0686c.3918.1072,12.972,63.7479,12.6381,63.934-.1755.0977-7.6076,3.04-16.5156,6.5388s-16.33,6.3239-16.4928,6.2794c-.3143-.0844-15.0341-49.4915-14.9065-50.0349.0884-.3807,32.8182-25.1764,35.1493-26.6478Zm12.0392-5.2615c.0876-.0526,8.6232,11.8036,18.9673,26.3467s19.27,27.0735,19.8355,27.8452c1.2544,1.712,2.5876.98-11.0813,6.0811-6.1734,2.3039-11.2643,4.119-11.3132,4.0335-.2761-.4833-16.54-64.2276-16.4083-64.3068Z"/><path id="bad28f5d-81c3-4bfc-80d0-13a75eb23ecb" data-name="path4182" d="M282.4607,728.7134c-11.2618,3.0689-17.7488-2.9143-17.8665-16.479-.19-21.8012,39.1839-36.66,51.9142-19.591,7.427,9.96,4.4509,16.9656-10.9826,25.8525-5.7775,3.3268-18.5631,8.9907-23.0641,10.2173Z"/></svg>