<svg id="f0595910-bae8-4a95-a6f7-b55567ef437e" data-name="Layer 1" xmlns="http://www.w3.org/2000/svg" viewBox="0 0 1000 1000"><path d="M560.9988,647.78q24.2919,41.7519,24.292,101.8071v48.584h-24.292v24.292c0,3.2895-2.9522,6.1573-8.9408,8.5191-5.9886,2.446-13.0738,3.6269-21.4242,3.6269a69.1761,69.1761,0,0,1-18.6407-2.6991c-.5061,14.6764-1.8556,26.9067-3.9643,36.691-2.193,9.7843-4.7234,14.5921-7.76,14.5921s-5.6512-4.8922-7.76-14.5921c-2.193-9.7843-3.4582-21.93-3.9643-36.691a69.1761,69.1761,0,0,1-18.6407,2.6991c-8.35,0-15.52-1.1809-21.4242-3.6269-5.9886-2.4461-8.9408-5.23-8.9408-8.5191v-24.292H415.247v-48.584q0-59.9707,24.292-101.8071V224.9473q2.6569-15.9416,6.8321-40.4867t5.3139-30.618q5.6936-33.7811,15.3512-57.0187c6.4947-15.4355,12.4834-25.9789,18.05-31.7145s10.6277-8.519,15.1825-8.519,9.6156,2.8678,15.1825,8.519c5.5669,5.7356,11.5556,16.279,18.05,31.7145s11.5556,34.4137,15.3512,57.0187q1.1388,6.073,5.3139,30.618t6.8321,40.4867V647.78ZM465.2647,222.67q13.6644-20.1168,34.92-20.159,21.2554,0,34.92,20.159l11.3869-30.7867q-18.219-25.81-46.3066-25.81t-46.3067,25.81ZM567.0718,645.84V260.2888q14.4234,82.4916,30.365,173.2491a108.2234,108.2234,0,0,0,9.11,42.9327c6.073,14.17,12.146,24.7138,18.2189,31.5459l9.1095,10.6277L743.2731,628.0425c6.5791,6.5791,12.3147,15.52,17.1225,26.8224a86.1759,86.1759,0,0,1,7.2538,33.9919v36.438L591.3638,760.6363V749.5868Q591.3638,689.869,567.0718,645.84ZM409.0052,749.5868v11.0495L232.72,725.2948V688.8569a85.4423,85.4423,0,0,1,7.2539-34.1607c4.8077-11.1338,10.5434-19.99,17.1225-26.5693L366.4942,518.7285c1.0121-1.0121,2.3617-2.446,3.9642-4.2173a136.1859,136.1859,0,0,0,8.7722-11.5556A147.48,147.48,0,0,0,390.28,484.5679a136.8131,136.8131,0,0,0,8.7722-23.3642,97.7992,97.7992,0,0,0,3.9642-27.5815l30.365-173.2491V645.84Q408.9631,689.869,409.0052,749.5868Z"/><path d="M453.8779,954.65a9,9,0,0,1-9-9V886.6631a9,9,0,0,1,18,0V945.65A9,9,0,0,1,453.8779,954.65Z"/><path d="M546.4912,954.65a9,9,0,0,1-9-9V886.6631a9,9,0,0,1,18,0V945.65A9,9,0,0,1,546.4912,954.65Z"/></svg>