<svg id="aff65b28-ba23-4e6c-8749-df7f37ed81d7" xmlns="http://www.w3.org/2000/svg" viewBox="0 0 1085.9 458.5"><defs><style>.cls-1{fill:#adadad;}.cls-2{fill:#fb8e3b;}</style></defs><path class="cls-1" d="M175.9,97.1c62.8,2,115,24.8,162.1,60.9h0a2.2,2.2,0,0,1,.6,3.1,2.2,2.2,0,0,1-2.8.7l-1.1-.6c-24.9-16.9-52.4-28.1-81.3-35.4-52.8-13.4-103.9-11.3-149.5,22.6-30,22.4-49.6,51.8-56.4,89.3-13.3,73.4,41,138.5,116.1,139.8,45.2.8,85.8-13.6,124.4-34.8,64.6-35.4,119-83.5,170.6-135.6C531.7,133.5,608.9,64.9,707.7,26.3,758.1,6.6,810.3-3.9,864.3,1.3c112.3,10.8,190.6,86.7,214.8,185,29.1,117.9-39.2,211.1-131.8,250.9-46,19.7-93.9,24.7-143.4,19.1-71.2-8.1-133.3-37.4-190.5-78.8-12.5-9-24.6-18.6-36.7-28.1h0c-2.4-1.9.1-5.6,2.8-4.2h.3c24.9,13.9,49.3,28.8,74.7,41.7,43.8,22.1,90.9,35.9,139.3,38.8,79.1,4.8,149.6-17.3,201.7-81.6,15.4-18.9,27.6-40.2,30.7-64.4,2.3-18.3,1.2-37.4-1.1-55.9-9.4-78.2-67.4-139.6-150.5-153.5-40.7-6.8-80,.3-118.6,12.9-63.6,20.8-118.8,56.5-168.9,99.7-41.5,35.8-80.2,74.9-120.9,111.7s-83.4,69.1-131.5,94.7c-31.1,16.6-63.1,31.3-97.9,38.7-58.7,12.5-115.4,10.2-166-26.1C25,368.9-2.2,323.8.1,266.8,3.6,183.2,66.2,113.2,148.3,99.9,158.2,98.3,168.4,97.9,175.9,97.1Z" transform="translate(0 0)"/><path class="cls-2" d="M371.6,298.2a9.9,9.9,0,0,1,.8,3.4,2.3,2.3,0,0,1-.7,1.9,5.4,5.4,0,0,1-2.5.9,35.3,35.3,0,0,1-4.6.1h-4.7a8.6,8.6,0,0,1-2.7-.5,2,2,0,0,1-1.3-.9,6.4,6.4,0,0,1-.8-1.4L344.7,272H293.9l-10,29.3a4.1,4.1,0,0,1-.7,1.5,2.8,2.8,0,0,1-1.4,1,7.2,7.2,0,0,1-2.5.7,30.9,30.9,0,0,1-4.3.1,22.6,22.6,0,0,1-4.5-.2,4.2,4.2,0,0,1-2.4-.9,2.3,2.3,0,0,1-.7-1.9,13,13,0,0,1,.8-3.4l40.9-113.3a5.9,5.9,0,0,1,1-1.7,4,4,0,0,1,1.8-1,10.5,10.5,0,0,1,3-.5l4.7-.2,5,.2a11.3,11.3,0,0,1,3.2.5,4.5,4.5,0,0,1,1.9,1.1,5.9,5.9,0,0,1,1,1.7Zm-52.5-100H319L298,259h42.4Z" transform="translate(0 0)"/><path class="cls-2" d="M620.1,298.2a9.9,9.9,0,0,1,.8,3.4,2,2,0,0,1-.7,1.9,5.4,5.4,0,0,1-2.5.9,35.3,35.3,0,0,1-4.6.1h-4.7a7.5,7.5,0,0,1-2.6-.5,1.9,1.9,0,0,1-1.4-.9,6.4,6.4,0,0,1-.8-1.4L593.2,272H542.4l-9.9,29.3a10.9,10.9,0,0,1-.8,1.5,2.8,2.8,0,0,1-1.4,1,7.2,7.2,0,0,1-2.5.7,30.9,30.9,0,0,1-4.3.1,22.6,22.6,0,0,1-4.5-.2,4.2,4.2,0,0,1-2.4-.9,2.3,2.3,0,0,1-.7-1.9,13,13,0,0,1,.8-3.4l40.9-113.3a5.9,5.9,0,0,1,1-1.7,4,4,0,0,1,1.8-1,10.5,10.5,0,0,1,3-.5l4.7-.2,5,.2a11.3,11.3,0,0,1,3.2.5,3.7,3.7,0,0,1,1.9,1.1,5.9,5.9,0,0,1,1,1.7Zm-52.5-100h-.1l-21,60.8h42.4Z" transform="translate(0 0)"/><path class="cls-2" d="M728.2,297.3a5.9,5.9,0,0,1-.6,3.2,7.2,7.2,0,0,1-1.7,2.2,9.4,9.4,0,0,1-2.2,1.2,10.9,10.9,0,0,1-2.6.4h-5.3a17.4,17.4,0,0,1-4.5-.6,12.2,12.2,0,0,1-3.6-1.8,20.5,20.5,0,0,1-3.4-3.8,36.7,36.7,0,0,1-3.6-6l-37.2-69.4c-2-3.6-3.9-7.3-5.9-11.3s-3.8-7.7-5.5-11.4h-.2q.1,6.8.3,13.8v87.7a2,2,0,0,1-.4,1.3,2,2,0,0,1-1.3.9,10.2,10.2,0,0,1-2.5.6,33.9,33.9,0,0,1-7.8,0,10.2,10.2,0,0,1-2.5-.6,2.4,2.4,0,0,1-1.3-.9,2.8,2.8,0,0,1-.4-1.3V189c0-2.6.7-4.4,2.2-5.4a7,7,0,0,1,4.6-1.6h8a18.3,18.3,0,0,1,4.7.4,11.6,11.6,0,0,1,6.4,4.6,35,35,0,0,1,2.9,4.9l28.6,53.5,5.1,9.6c1.7,3.1,3.3,6.2,4.8,9.2l4.5,8.9,4.4,8.8h.1c-.1-5-.2-10.1-.2-15.5s-.1-10.5-.1-15.5V184.7a2.8,2.8,0,0,1,.4-1.2,2.8,2.8,0,0,1,1.4-1,10.5,10.5,0,0,1,2.4-.6,28.2,28.2,0,0,1,4.1-.2,24.2,24.2,0,0,1,3.8.2,10.5,10.5,0,0,1,2.4.6,2.6,2.6,0,0,1,1.3,1,1.7,1.7,0,0,1,.4,1.2Z" transform="translate(0 0)"/><path class="cls-2" d="M827.7,301.3a2.3,2.3,0,0,1-.4,1.4,2,2,0,0,1-1.2,1,11,11,0,0,1-2.6.6,18.8,18.8,0,0,1-4.1.2,32.5,32.5,0,0,1-5.4-.2,6.8,6.8,0,0,1-3.1-1.1,4.6,4.6,0,0,1-1.7-1.7l-44.9-61v61a2.3,2.3,0,0,1-1.7,2.2,10.2,10.2,0,0,1-2.5.6,33.9,33.9,0,0,1-7.8,0,10.2,10.2,0,0,1-2.5-.6,2.3,2.3,0,0,1-1.7-2.2V184.4a2,2,0,0,1,.4-1.3,3,3,0,0,1,1.3-.9l2.5-.6a33.9,33.9,0,0,1,7.8,0,11.4,11.4,0,0,1,2.5.6,3,3,0,0,1,1.3.9,2,2,0,0,1,.4,1.3v54.2l43.2-54.2a8.6,8.6,0,0,1,1.3-1.4,6.6,6.6,0,0,1,1.9-.9l2.6-.5,4-.2,4,.2,2.4.7a2.7,2.7,0,0,1,1.2.9,2.7,2.7,0,0,1,.3,1.2,5.4,5.4,0,0,1-.6,2.5,25.4,25.4,0,0,1-2.3,3.4l-40.4,48.3,43.5,57.9a16.3,16.3,0,0,1,1.9,3.4A5.7,5.7,0,0,1,827.7,301.3Z" transform="translate(0 0)"/><path class="cls-2" d="M933.6,301.5a2,2,0,0,1-.4,1.3,2,2,0,0,1-1.3.9,10.2,10.2,0,0,1-2.5.6,16.2,16.2,0,0,1-3.8.2,17.9,17.9,0,0,1-4-.2,10.5,10.5,0,0,1-2.4-.6,1.9,1.9,0,0,1-1.4-.9,2.8,2.8,0,0,1-.3-1.3V247.4H861.9v54.1a2.8,2.8,0,0,1-.3,1.3,1.9,1.9,0,0,1-1.4.9,10.2,10.2,0,0,1-2.5.6,33.1,33.1,0,0,1-7.7,0,11,11,0,0,1-2.6-.6,2,2,0,0,1-1.3-.9,2,2,0,0,1-.4-1.3V184.4a2,2,0,0,1,.4-1.3,3,3,0,0,1,1.3-.9,12.2,12.2,0,0,1,2.6-.6,33.1,33.1,0,0,1,7.7,0,11.4,11.4,0,0,1,2.5.6,4.2,4.2,0,0,1,1.4.9,3.1,3.1,0,0,1,.3,1.3v48.9h55.6V184.4a3.1,3.1,0,0,1,.3-1.3,4.2,4.2,0,0,1,1.4-.9l2.4-.6,4-.2,3.8.2,2.5.6a3,3,0,0,1,1.3.9,2,2,0,0,1,.4,1.3Z" transform="translate(0 0)"/><path class="cls-2" d="M1057.1,298.2a13,13,0,0,1,.8,3.4,2.3,2.3,0,0,1-.7,1.9,5.4,5.4,0,0,1-2.5.9,36.9,36.9,0,0,1-4.7.1h-4.6a8.6,8.6,0,0,1-2.7-.5,2,2,0,0,1-1.3-.9,6.4,6.4,0,0,1-.8-1.4L1030.1,272H979.4l-10,29.3a10.1,10.1,0,0,1-.7,1.5,4.5,4.5,0,0,1-1.4,1,7.7,7.7,0,0,1-2.6.7,29.5,29.5,0,0,1-4.2.1,22.6,22.6,0,0,1-4.5-.2,4.5,4.5,0,0,1-2.5-.9,2.2,2.2,0,0,1-.6-1.9,9.9,9.9,0,0,1,.8-3.4l40.9-113.3a4.2,4.2,0,0,1,1-1.7,4,4,0,0,1,1.8-1,10.5,10.5,0,0,1,3-.5l4.6-.2,5,.2a12.6,12.6,0,0,1,3.3.5,4.2,4.2,0,0,1,1.8,1.1,6.2,6.2,0,0,1,1.1,1.7Zm-52.5-100h-.1l-21,60.8h42.4Z" transform="translate(0 0)"/><path class="cls-2" d="M767.5,377.3a22.8,22.8,0,0,1-2.1-5.1c-1.2-5.3-4.3-9.6-7.3-13.8a19.5,19.5,0,0,0-2.4-2.6l-.7.9a15,15,0,0,1-19.6,5.2,23.2,23.2,0,0,1-9-8.3c-5.2-7.5-8.3-15.9-10.6-24.6v-.8c1.8.4,3,1,3.6,3a38.2,38.2,0,0,0,8.1,15.9,20.4,20.4,0,0,0,13.4,7.6c7.7.9,12-3.6,10.5-11.2a10.4,10.4,0,0,0-3-6c-.9-.9-1.7-1.1-2.7.2-2.2,2.9-5,4.6-8.9,3.8a6.8,6.8,0,0,1-5.3-7.2c.6-4.1,3.4-6.4,7.2-6.2a19,19,0,0,1,18.2,17.4,12.6,12.6,0,0,0,2,6.2c1.3,2.1,2.5,4.3,4,6.4V325.6h-50v-5.1H830.3v4.9H820.2v51.9h-.4l-4.5-5.1a3,3,0,0,1-.2-1.6c-.1-6.5,0-13-.1-19.4a10.3,10.3,0,0,0-4.1-7.9,3.8,3.8,0,0,0-5.2.4h-.1a76.2,76.2,0,0,0-4.8,6.4c-1.3,2-2.7,3.9-4.1,5.8-3.9,4.3-8.9,4.2-12.5-.4a46.3,46.3,0,0,1-4.3-7.1,1.1,1.1,0,0,1,.1-1.1c.7-1,1.6-1.9,2.5-3a35.8,35.8,0,0,0,2.4,4.8c1.8,2.8,3.9,2.8,5.9.2l5.5-7.4a3.9,3.9,0,0,0,.6-2.1,12.8,12.8,0,0,0-.5-2.7c-1.1-4.5-4-6.9-8.6-7.3h-3.3c-2.5,0-4.6-.8-5.9-3.1a2.4,2.4,0,0,0-2.4-1.3c-2.6.1-5.2,0-8,0V377Zm47.4-35V325.6H793.4a13.8,13.8,0,0,1,6.1,12.9l2.2-1.5c4.4-3.2,6.8-2.8,10.2,1.4Z" transform="translate(0 0)"/><path class="cls-2" d="M922.9,325.6H902v50.9l-.3.2a10.1,10.1,0,0,1-1.3-1.6c-.8-1.4-1.5-2.8-2.2-4.2-3.1-8-9-12.9-16.9-15.5a39.5,39.5,0,0,0-5.9-1.6,5.1,5.1,0,0,1-3.2-1.9c-2.2-3-4.6-5.9-7.2-9.1a27.4,27.4,0,0,0,12.4-1,18.2,18.2,0,0,0,8.3-4.7,5.4,5.4,0,0,0,.1-7.6l-1.1-.8a22.6,22.6,0,0,1-13.6,7.5,12.8,12.8,0,0,1-5.5-.2,6.4,6.4,0,0,1-4.3-7.8c.8-3.6,6.1-5.5,8.7-2.9.8.7,1.2,2.1,1.8,3.3,2.3.1,3.9-1.5,5.5-3.1s3-3.2,4.6-4.9c4.6,3.7,9,7.1,10.5,12.9a8.5,8.5,0,0,1-1,6.8,19.3,19.3,0,0,1-9.8,8,41.2,41.2,0,0,1,15.2,13.2v-50c2.9,1,3.1,1.3,3.2,4a13.6,13.6,0,0,0,.2,2c.4,2.3,1.2,2.9,3.5,2.9h30.2v5.1h-2.5c-5.2.1-8.5,2.8-8.5,7.9a129.9,129.9,0,0,0,1.1,14c.6,5.4,1.3,10.8,1.9,16.2a9.1,9.1,0,0,1-2.1,6.3,22.3,22.3,0,0,1-11.8,8.4,3.4,3.4,0,0,1-2.6-.5c-1.3-1-1.1-2.1.5-2.8l3.7-1.6c4.5-2.3,6.4-5.8,5.6-10.7s-1.5-7.6-2.3-11.3-2-8.9-.9-13.4a29.4,29.4,0,0,1,5.2-10.1Z" transform="translate(0 0)"/><path class="cls-2" d="M843.5,323.1c7.1,0,12.6,8,10.4,15a8.8,8.8,0,0,1-.5,1.5c-3.3,7.7-11.2,8.8-16.5,2.3-2.6-3.2-4.1-6.8-3.2-11A9.9,9.9,0,0,1,843.5,323.1Zm-6,14.4c-.1,3.3,1.4,4.7,4.2,3.9a15.5,15.5,0,0,0,7.5-5.3c1.7-2.2,1.1-4.1-1.4-5.2C843.3,329.1,837.6,330.4,837.5,337.5Z" transform="translate(0 0)"/><path class="cls-2" d="M835.9,348.8c4.2,4,8.6,7.9,12.6,12.2s9.7,11.2,14.3,17c.9,1.1.7,3,1,4.5l-.5.2a3.1,3.1,0,0,1-1.1-.9A140,140,0,0,0,836.4,361a3.3,3.3,0,0,1-1.1-1.5c-.1-3.4-.1-6.9-.1-10.3Z" transform="translate(0 0)"/></svg>