<svg id="ab3b9ba4-a044-4912-9f17-566701b4f671" xmlns="http://www.w3.org/2000/svg" viewBox="0 0 142.9 95.1"><defs><style>.cls-1{fill:#5757e0;}.cls-2{fill:#9b57e0;}</style></defs><path class="cls-1" d="M69.5,28.5h.1V.2L69.4,0H42.9c-.2,0-.2.1-.2.2s0,.2.1.2C54.4,5.4,63.9,15.5,69.5,28.5Z" transform="translate(0 0)"/><path class="cls-1" d="M.1,66.5H0V94.8a.2.2,0,0,0,.2.2H26.8a.2.2,0,0,0,.2-.2v-.2C15.3,89.6,5.7,79.5.1,66.5Z" transform="translate(0 0)"/><path class="cls-2" d="M69.6,69.1V67.2a17.1,17.1,0,0,0-1.1-5.9,21.2,21.2,0,0,0-4.9-6.9L61.8,53l-.9-.7-.9-.5-3.4-2.3c-4.4-3.1-9.1-6-13.8-8.9s-9.5-5.7-14.4-8.4l-3.7-2.1-.9-.5-.8-.5-1.5-.9A25.6,25.6,0,0,1,17,23.4c-4.5-7-5.7-14.1,2.7-23.4L15.1,3.2C12.9,5.1,10.8,7,8.7,9.1a34.6,34.6,0,0,0-6,8.2A26.1,26.1,0,0,0,0,25.9v1.9a19.9,19.9,0,0,0,1.1,5.9,21.5,21.5,0,0,0,5,6.9L7.8,42l1,.7.8.5L13,45.5c4.4,3.1,9.1,6,13.8,8.9s9.5,5.7,14.4,8.4l3.7,2.1.9.5.8.5,1.5.9a25.6,25.6,0,0,1,4.5,4.8c4.5,7,5.7,14.1-2.7,23.4l4.6-3.2c2.2-1.9,4.3-3.8,6.4-5.9a34.6,34.6,0,0,0,6-8.2A26.1,26.1,0,0,0,69.6,69.1Z" transform="translate(0 0)"/><path id="b620df2b-d642-4023-b65d-6c62e64f58ec" class="cls-1" d="M94.7,94.8a.2.2,0,0,1-.2-.2l.2-.2c8.3-1.4,13.2-4.3,18.4-8.4a22.9,22.9,0,0,0,6.4-7.1,20.1,20.1,0,0,0,2.7-7.9c.5-5.4-2.6-11.1-8.5-15.4s-11.3-7.3-20.5-8.1h0c9.2-.9,14.7-3.8,20.5-8.1s8.9-10,8.3-15.4a19.9,19.9,0,0,0-2.6-7.9A22.6,22.6,0,0,0,113.1,9,36.9,36.9,0,0,0,94.6.6c-.1,0-.1-.1-.1-.2s0-.1.1-.2c9.1-.9,27.2.8,34.9,4.9a29.4,29.4,0,0,1,10.1,8.1A16.1,16.1,0,0,1,142.9,24a19.1,19.1,0,0,1-4.2,10.4,31.7,31.7,0,0,1-9.8,8c-7.8,4.2-26.5,6-35.7,5.1h0c9.2-.8,27.8,1,35.6,5.2a30,30,0,0,1,9.8,7.9A19,19,0,0,1,142.7,71a15.3,15.3,0,0,1-3.2,10.7,30.6,30.6,0,0,1-10,8.2C121.9,93.9,103.7,95.7,94.7,94.8Z" transform="translate(0 0)"/></svg>