<svg id="Layer_1" data-name="Layer 1" xmlns="http://www.w3.org/2000/svg" viewBox="0 0 3786.8 786.8"><defs><style>.cls-1{fill:#e18e3c;}.cls-2{fill:#d6d6d6;}</style></defs><path id="Path_29" data-name="Path 29" class="cls-1" d="M767.1,573.2a229.7,229.7,0,0,0,27-21.3,608.3,608.3,0,0,0,44.2-46.6l-.2-.2L720,533a322.7,322.7,0,0,0,47.1,40.2" transform="translate(0 0)"/><path id="Path_30" data-name="Path 30" class="cls-1" d="M835.9,616a142.2,142.2,0,0,0,55.7-17.4,108.8,108.8,0,0,0,28.2-25.9l-10.9-18.2a355.7,355.7,0,0,1-45.6-28.1,385.4,385.4,0,0,1-58.5,70.2,282.4,282.4,0,0,0,28.9,13.7Z" transform="translate(0 0)"/><path id="Path_31" data-name="Path 31" class="cls-1" d="M851.2,716.4a149.9,149.9,0,0,0,14.1,13.5,507,507,0,0,1,55.9-100.2,182.9,182.9,0,0,1-93.7,23.5L816.4,676c11.9,13.2,22.7,27.1,34.8,40.3" transform="translate(0 0)"/><path id="Path_32" data-name="Path 32" class="cls-1" d="M843.4,761.9a272.6,272.6,0,0,1-43.9-51.3L793,724.1l-32.2-8.5a44.6,44.6,0,0,0-48.2,22.3c-7.2,13.1-15.5,29-22.1,44.1h154s2-5.6,5.6-15a52.9,52.9,0,0,1-6.6-5.1" transform="translate(0 0)"/><path id="Path_33" data-name="Path 33" class="cls-1" d="M502.9,577.9l-50,111.6a43.3,43.3,0,0,1,30,31.8c-4.9,18.3-16.2,52.6-32.5,60.5h41.3c41.3-67.6,29.5-154.6,11.2-203.9" transform="translate(0 0)"/><path id="Path_34" data-name="Path 34" class="cls-1" d="M418.6,661.1a288.1,288.1,0,0,1-27.9-32.5,271.9,271.9,0,0,1-26.6,111l-65.8-12.9a69.5,69.5,0,0,0-32.8,60.1H407l39.4-99.5c-10.3-8.9-19.7-18-27.9-26.1" transform="translate(0 0)"/><path id="Path_35" data-name="Path 35" class="cls-1" d="M1059.7,492.7c-57.7-21.8-84.3-46.8-82.7-120.2,0,0,3.1,37.5,50,65.6,20,12,43.3,21.7,64.7,33.2a337.1,337.1,0,0,1-.6-65.1,423.7,423.7,0,0,0-39.8-88.5q19-1.9,36.6-4.8c-6.8-18.1-13.4-36.2-19.9-54.5a12.1,12.1,0,0,1,0-8.8,815.5,815.5,0,0,1-97.4-24.3,257.8,257.8,0,0,0-35-23.5,191.1,191.1,0,0,1-39.7,41.1A185.4,185.4,0,0,0,824,325.7a164.8,164.8,0,0,1,40.6-92.1c21-22.7,33.1-29.8,41.1-44.9A237.5,237.5,0,0,0,782,180.9l-6.6,1.1c-22,13.9-52.3,44-59.1,106.2-11,99.9-53.2,156.1-156.3,171.7,0,0,82.8-29.7,110.9-110.9,22.1-64.1,8.4-110.6,46.8-161.1-23.4,1.2-47.2,1.2-70.1.4a138.5,138.5,0,0,0-15.8,73.4c3.5,71-39.7,123-104.8,130.2a122.3,122.3,0,0,0,71.8-85c6.8-37.3,2.4-82.6,7.1-121-10.7-.9-20.9-2-30.6-3.2-4.4,83.6-45,116.4-45,116.4A229.7,229.7,0,0,0,543.7,178a98.7,98.7,0,0,1-45.1-14.4,35.8,35.8,0,0,0-6.5-7.5,98.4,98.4,0,0,0-23.2,56.5C461,289.1,372,320.3,372,320.3a211.1,211.1,0,0,0,65.7-92.1c8.6-29.2,10.6-59,22.6-83.4H397a99.9,99.9,0,0,0-15.5,93.3c9.3,37.5-27.1,61.4-27.1,61.4s16.7-15.6-5.2-73.9a99.7,99.7,0,0,1,1.4-75.3l-27.2,6.2c-26.6,34.2-14.4,72,7.1,114.9a80.7,80.7,0,0,1-8.4,89.5,199.8,199.8,0,0,0-32.3-119.7,97.4,97.4,0,0,1-17.1-72.5l-27.3,6.7-21.5,19.3a49.7,49.7,0,0,0,4.3-50.4c-38.6,26.8-170.6,78.3-170.6,78.3L52.2,248A148,148,0,0,1,0,271.7a94.8,94.8,0,0,0,47.9,46.5l8-20.8c39.4-3.6,41.5,46.5,41.5,46.5l-32.2-7.8a115.5,115.5,0,0,1,24.3,54.3l55.1-42.9,50.8,2.9c47.9-40.8,7.8-98,7.8-98,47.3,43.6,15,100.8,15,100.8a175,175,0,0,1,41.3,22.2,71.7,71.7,0,0,0,6.3-52.9c-11.5-54.1-32.2-76-12.5-112.4a112,112,0,0,0,24,85.4,114.5,114.5,0,0,1,19.1,111.4,296.7,296.7,0,0,1,24.7,27.9l27.2-64.4-21.4,84.4,18.2,33.8a233.2,233.2,0,0,0,35.3-97.4C388.2,322.5,481.9,328.8,510,235c0,0,1.7,73.4-42.1,100a113.4,113.4,0,0,0-57.8,114c3.9,27.3-15.4,70.4-30.4,99,20.5,24,36.6,53.7,58.6,75.9,7.8,7.8,15.9,15.3,24.4,22.4l31.6-79.9-17.2-81.5c12.9-4.3,38.7-47.2,38.7-47.2A263.1,263.1,0,0,1,490,486.3L504.3,555l41.7-9.4a106.3,106.3,0,0,1,55.1-46.1c41.7-14.6,77-72.9,77-72.9s-11.5,60.4-44.8,75A76.7,76.7,0,0,0,601,533.1l33.3-7.5a186.3,186.3,0,0,0,90.6-121c21.8-114.8,46.8-152.8,90.2-182.4,0,0-56.8,90-49.1,171.5,3.7,39.6-15.8,79.6-36.8,110.4l91.3-20.6a449.7,449.7,0,0,1,8.6-101.6s4.3,85.8,7.2,90.1a148.2,148.2,0,0,0,44.8,43.7,202.3,202.3,0,0,1-13.5-93.3c10.4-79.1,68.7-95.7,77-149.9a139,139,0,0,1-8.3,77c-14.3,28.8-64.3,82.4,9.4,190.3a145.2,145.2,0,0,0,23.7,2.3l27.7,19.8c5.8-1.6,11.3-3.3,16.3-5.1a238.7,238.7,0,0,0,79-46.4,131,131,0,0,0-32.7-17.7" transform="translate(0 0)"/><path id="Path_36" data-name="Path 36" class="cls-1" d="M1105.4,662.9c4.5.8,9.5,1.6,15.6,2.4a218.2,218.2,0,0,0,70.3-.3,145.6,145.6,0,0,0,5.6-30c-2.8-4.3-41.5-1.4-78.7-64.4-2.5-4.2-4.7-8.6-6.8-13a225.6,225.6,0,0,1-65.6,44l-4.4,1.9,62.1,44.4Z" transform="translate(0 0)"/><path id="Path_37" data-name="Path 37" class="cls-1" d="M1160.1,713.8a206.5,206.5,0,0,1-48.4-3.3l3.6,27.5a208.6,208.6,0,0,0-51.5-8.6c-55.6,18.6-54.4,57.3-54.4,57.3h150.3s10.1-37.2,19.7-74.7c-6.4.8-12.9,1.4-19.3,1.7" transform="translate(0 0)"/><path id="Path_38" data-name="Path 38" class="cls-1" d="M1139.8,251a194,194,0,0,1-46.3,1.6l22.2,54.9c12-2.7,23.4-5.8,34-9.3a399.3,399.3,0,0,0-9.8-47.2" transform="translate(0 0)"/><path id="Path_39" data-name="Path 39" class="cls-1" d="M1234.4,8.1A91.2,91.2,0,0,0,1161.8,7a84.8,84.8,0,0,0-20,13,15.5,15.5,0,0,0-1.4,21.9h0a15.7,15.7,0,0,0,17.9,4.1,78.3,78.3,0,0,1,48.5-3.5,145.5,145.5,0,0,1,27.6-34.4" transform="translate(0 0)"/><path id="Path_40" data-name="Path 40" class="cls-1" d="M1237.8,57.5a72.6,72.6,0,0,1,27,52,153.9,153.9,0,0,1,32.3,5.6v-.9a113.8,113.8,0,0,0-29.8-83.4,125.1,125.1,0,0,0-29.5,26.7" transform="translate(0 0)"/><path id="Path_41" data-name="Path 41" class="cls-1" d="M1258.8,148.3a158.2,158.2,0,0,1-19.8,37.2,279.7,279.7,0,0,1,18.8,43.6,172.8,172.8,0,0,0,34-71.2,126.3,126.3,0,0,0-33-9.6" transform="translate(0 0)"/><path id="Path_42" data-name="Path 42" class="cls-1" d="M1226.7,255.7a329.9,329.9,0,0,0-11.3-42.6,141.2,141.2,0,0,1-44.4,29.1,348.1,348.1,0,0,1,12.8,42.6,222.3,222.3,0,0,0,43.4-26.1l-.6-3" transform="translate(0 0)"/><rect id="Rectangle_5" data-name="Rectangle 5" class="cls-2" x="1564.7" y="110" width="118.4" height="424.96"/><path id="Path_43" data-name="Path 43" class="cls-2" d="M1760.8,110h109.8l174.9,224.7V110H2162V535H2058.8L1877.3,301.8V534.9H1760.7Z" transform="translate(0 0)"/><path id="Path_44" data-name="Path 44" class="cls-2" d="M2237.2,110h163.9c151.8,0,239.9,87.4,239.9,210v1.2c0,122.7-89.3,213.7-242.2,213.7H2237.2ZM2403,430.6c70.4,0,117.2-38.9,117.2-107.5v-1.2c0-68-46.8-107.4-117.2-107.4h-48V430.6Z" transform="translate(0 0)"/><rect id="Rectangle_6" data-name="Rectangle 6" class="cls-2" x="2704.1" y="110" width="118.4" height="424.96"/><path id="Path_45" data-name="Path 45" class="cls-2" d="M3047.1,107h113.5l180.9,428H3215.2l-30.9-75.9H3020.4L2990,535H2866.1Zm103.2,260.4-47.4-120.8L3055,367.4Z" transform="translate(0 0)"/><path id="Path_46" data-name="Path 46" class="cls-2" d="M3382.7,110h110l174.8,224.7V110H3784V535H3680.8L3499.3,301.8V534.9H3382.6Z" transform="translate(0 0)"/><path id="Path_47" data-name="Path 47" class="cls-2" d="M1642.2,738.9h-.9l-59.8-87.6V783.9h-18v-164h18.7l59.8,89.5,59.8-89.5h18.7v164H1702V651Z" transform="translate(0 0)"/><path id="Path_48" data-name="Path 48" class="cls-2" d="M1885.5,636.8H1785.4v56h89.5v16.8h-89.5v57.5h101.2v16.8H1766.8v-164h118.7Z" transform="translate(0 0)"/><path id="Path_49" data-name="Path 49" class="cls-2" d="M2061.7,734.1a77.4,77.4,0,0,1-17.9,26.2,84,84,0,0,1-27.7,17.3,96.7,96.7,0,0,1-35.3,6.3h-57v-164h57a94.5,94.5,0,0,1,35.3,6.2,83.8,83.8,0,0,1,27.7,17.2,76.6,76.6,0,0,1,17.9,26,82,82,0,0,1,6.3,32.4,83.9,83.9,0,0,1-6.3,32.4M2044,676.7a61.5,61.5,0,0,0-13.6-20.8,63,63,0,0,0-21.4-13.8,72.8,72.8,0,0,0-28.1-5h-38.5V766.8h38.4a77.6,77.6,0,0,0,28.2-4.9,60.6,60.6,0,0,0,35-34.2,65.8,65.8,0,0,0,4.8-25.6,67.5,67.5,0,0,0-4.8-25.5" transform="translate(0 0)"/><rect id="Rectangle_7" data-name="Rectangle 7" class="cls-2" x="2108.8" y="619.9" width="18.5" height="164.05"/><path id="Path_50" data-name="Path 50" class="cls-2" d="M2328.1,783.9h-19.8l-19.2-43.3h-89.4l-19.4,43.3h-19L2236,618.7h17.4Zm-83.6-143.4L2207,724.2h74.8Z" transform="translate(0 0)"/><path id="Path_51" data-name="Path 51" class="cls-2" d="M2447,671.3a20.9,20.9,0,0,0,6.8,8.5,46.2,46.2,0,0,0,13.6,7,144,144,0,0,0,22.3,6,97.6,97.6,0,0,1,40.4,16.9,37,37,0,0,1,13,29.8,43.3,43.3,0,0,1-15.7,34,50,50,0,0,1-17.6,9.4,71.7,71.7,0,0,1-22.5,3.3,98.3,98.3,0,0,1-36-6.3,103.3,103.3,0,0,1-31.1-19.7l11.5-13.7a99,99,0,0,0,26,17.5,74.9,74.9,0,0,0,30.3,5.7,42,42,0,0,0,26.6-7.7,24.7,24.7,0,0,0,9.9-20.4,25.1,25.1,0,0,0-1.9-10.5,21.1,21.1,0,0,0-6.5-8.3,50.4,50.4,0,0,0-13-6.8,177,177,0,0,0-21.3-5.9,175.3,175.3,0,0,1-24.5-7,63.8,63.8,0,0,1-17.3-9.6,37.3,37.3,0,0,1-10.1-13.2,44.5,44.5,0,0,1-3.3-17.7,40.2,40.2,0,0,1,4-18.1,42.1,42.1,0,0,1,11.3-14.2,56,56,0,0,1,17.1-9.4,65.4,65.4,0,0,1,21.5-3.4,93.5,93.5,0,0,1,31.5,4.9,97.4,97.4,0,0,1,26.2,15l-10.8,14.3a80.4,80.4,0,0,0-23.1-13.6,71.7,71.7,0,0,0-24.2-4.2,44.7,44.7,0,0,0-14.5,2.1,40.8,40.8,0,0,0-11,5.6,26.2,26.2,0,0,0-7,8.5,24.1,24.1,0,0,0-2.4,10.5,27.6,27.6,0,0,0,1.9,10.6" transform="translate(0 0)"/><path id="Path_52" data-name="Path 52" class="cls-2" d="M2643.6,783.9h-18.5V719l-68.2-99.1h22.5l55.2,82,55.6-82h21.6l-68.2,98.9Z" transform="translate(0 0)"/><path id="Path_53" data-name="Path 53" class="cls-2" d="M2862.3,619.9h18v164h-14.8L2759.6,649.4V783.9h-18.1v-164h17.4l103.3,131.4Z" transform="translate(0 0)"/><path id="Path_54" data-name="Path 54" class="cls-2" d="M3064.5,734.1a77.4,77.4,0,0,1-17.9,26.2,89.7,89.7,0,0,1-27.7,17.3,96.7,96.7,0,0,1-35.3,6.3h-57v-164h57a94.5,94.5,0,0,1,35.3,6.2,81.7,81.7,0,0,1,27.6,17.2,75.5,75.5,0,0,1,18,26,86.5,86.5,0,0,1,0,64.8m-17.7-57.5a61,61,0,0,0-35.1-34.6,77.1,77.1,0,0,0-28.1-5h-38.4V766.8h38.4a77.6,77.6,0,0,0,28.2-4.9,61,61,0,0,0,35-34.2,67.7,67.7,0,0,0,4.8-25.6,69.5,69.5,0,0,0-4.8-25.5" transform="translate(0 0)"/><rect id="Rectangle_8" data-name="Rectangle 8" class="cls-2" x="3111.6" y="619.9" width="18.5" height="164.05"/><path id="Path_55" data-name="Path 55" class="cls-2" d="M3305.5,769.8a82.7,82.7,0,0,1-52.3,16.9,80.5,80.5,0,0,1-58.9-24.5,81.5,81.5,0,0,1-17.2-26.8,91.4,91.4,0,0,1,0-66.3,84.9,84.9,0,0,1,17.2-27.1,81.4,81.4,0,0,1,26.3-18.3,82.9,82.9,0,0,1,33.3-6.7,106.5,106.5,0,0,1,20.3,1.9,83.1,83.1,0,0,1,16.7,5.3,69.8,69.8,0,0,1,14.3,8.2,129.7,129.7,0,0,1,12.7,10.6l-12.7,13.6a102.2,102.2,0,0,0-22.6-16.1,63.2,63.2,0,0,0-74.3,13.1,64.6,64.6,0,0,0-13.3,21.5,76.4,76.4,0,0,0,0,53.3,63.3,63.3,0,0,0,13.4,21.5,64.2,64.2,0,0,0,20.1,14.5,60.5,60.5,0,0,0,25.2,5.2,62.3,62.3,0,0,0,29.1-6.2,102.4,102.4,0,0,0,23.9-17.4l12.1,11.9a113.5,113.5,0,0,1-13.2,11.8" transform="translate(0 0)"/><path id="Path_56" data-name="Path 56" class="cls-2" d="M3503.9,783.9H3484l-19.2-43.3h-89.3L3356,783.9h-19l74.8-165.2h17.3Zm-83.7-143.4-37.4,83.7h74.7Z" transform="translate(0 0)"/><path id="Path_57" data-name="Path 57" class="cls-2" d="M3577,783.9h-18.5v-147h-55.1V619.8h128.7v17.1H3577Z" transform="translate(0 0)"/><path id="Path_58" data-name="Path 58" class="cls-2" d="M3785.6,636.8H3685.5v56h89.6v16.8h-89.6v57.5h101.3v16.8H3667v-164h118.6Z" transform="translate(0 0)"/></svg>