<svg id="ab3b9ba4-a044-4912-9f17-566701b4f671" data-name="a3a896a5-85c6-47da-99bc-f17f7b4fd87e" xmlns="http://www.w3.org/2000/svg" viewBox="0 0 240.9535 112.9994"><defs><style>.bf3b9bdc-324e-4982-8868-6b078ab92231{fill:#5757e0;}.fd2e4903-1bd4-4629-8c21-cbd5bb6e3dcd{fill:#9b57e0;}</style></defs><path class="bf3b9bdc-324e-4982-8868-6b078ab92231" d="M118.47,37.494h.1366V9.2115A.2113.2113,0,0,0,118.3956,9H91.8634a.2091.2091,0,0,0-.0809.4024C103.3558,14.4139,112.882,24.5323,118.47,37.494Z"/><path class="bf3b9bdc-324e-4982-8868-6b078ab92231" d="M49.121,75.5058H49v28.2827a.2115.2115,0,0,0,.2116.2112H75.7773a.2091.2091,0,0,0,.0807-.4023C64.2652,98.5983,54.721,88.4775,49.121,75.5058Z"/><path class="fd2e4903-1bd4-4629-8c21-cbd5bb6e3dcd" d="M118.5622,78.0739c.0449-.6241.0495-1.2376.0418-1.847a18.4152,18.4152,0,0,0-1.1418-5.94,19.6069,19.6069,0,0,0-4.9082-6.8658c-.57-.483-1.1908-.9331-1.7916-1.3987l-.9076-.68-.8447-.5708-3.3792-2.2829c-4.4709-3.071-9.1259-5.9974-13.8009-8.9072-4.7358-2.862-9.4992-5.7021-14.4359-8.4053l-3.6753-2.05L72.8,38.6139l-.7575-.4783c-.4914-.32-1.0128-.6208-1.4934-.9511a19.9069,19.9069,0,0,1-4.5473-4.8C61.5147,25.3841,60.3317,18.3059,68.6877,9c.04-.0438-3.0591,2.0694-4.5869,3.24-2.1867,1.8568-4.3164,3.7951-6.3646,5.831a36.3875,36.3875,0,0,0-6.0493,8.203,25.3684,25.3684,0,0,0-2.6418,8.6519c-.0451.6241-.05,1.2377-.0418,1.8471a18.4183,18.4183,0,0,0,1.1417,5.94,19.6072,19.6072,0,0,0,4.9083,6.8658c.57.483,1.1907.9331,1.7916,1.3987l.9076.68.8447.5707,3.3791,2.283c4.4714,3.071,9.1259,5.9974,13.8013,8.9072,4.7358,2.862,9.4991,5.7021,14.4359,8.4053l3.6753,2.0491.9185.5123.7576.4783c.4914.32,1.0128.6208,1.4934.9511a19.9073,19.9073,0,0,1,4.5473,4.8c4.487,7.0009,5.67,14.0792-2.686,23.3845-.0405.0438,3.0591-2.0694,4.5869-3.24,2.1867-1.8564,4.3164-3.7947,6.3646-5.8305A36.3892,36.3892,0,0,0,115.92,86.725,25.3714,25.3714,0,0,0,118.5622,78.0739Z"/><path id="b620df2b-d642-4023-b65d-6c62e64f58ec" data-name="baee507e-c630-4877-8a2a-e31dba1162c4" class="bf3b9bdc-324e-4982-8868-6b078ab92231" d="M143.7076,103.77a.19.19,0,0,1-.0083-.3764c8.26-1.3664,13.2075-4.3083,18.4432-8.3806a24.5492,24.5492,0,0,0,6.3315-7.1006,18.8715,18.8715,0,0,0,2.6908-7.8788c.57-5.4669-2.6134-11.1641-8.43-15.4683-5.8049-4.3293-11.3772-7.2344-20.5079-8.0631h0c9.1351-.8863,14.6622-3.814,20.4256-8.1442,5.77-4.3062,8.9206-9.9737,8.3376-15.4077a19.4891,19.4891,0,0,0-2.6115-7.8557,23.8834,23.8834,0,0,0-6.2849-7.1146c-5.2307-4.0753-10.19-7.0191-18.4556-8.371a.19.19,0,0,1,.0077-.3765c9.0378-.8959,27.1721.809,34.8578,4.859a30.0319,30.0319,0,0,1,10.06,8.1306A15.9024,15.9024,0,0,1,191.9273,32.95a19.307,19.307,0,0,1-4.1842,10.4585,30.7569,30.7569,0,0,1-9.7975,7.9633c-7.855,4.24-26.58,6.009-35.7185,5.13h0c9.1324-.8263,27.8.9674,35.6087,5.1965a30.6923,30.6923,0,0,1,9.7383,7.93,19.2644,19.2644,0,0,1,4.1747,10.3974,15.9681,15.9681,0,0,1-3.237,10.7,29.4328,29.4328,0,0,1-9.9759,8.151C170.8749,102.94,152.744,104.6622,143.7076,103.77Z"/></svg>