<svg id="aff65b28-ba23-4e6c-8749-df7f37ed81d7" data-name="fe852d1b-3f62-4f08-a35e-10fb9fb2083d" xmlns="http://www.w3.org/2000/svg" viewBox="0 0 1085.8976 458.4144"><defs><style>.a2e3c151-1b20-46b1-9709-018a254e4ddd{fill:#adadad;}.a20021bc-eafc-4001-a00a-aedfa7660d1b{fill:#fb8e3b;}</style></defs><path class="a2e3c151-1b20-46b1-9709-018a254e4ddd" d="M175.8621,97.1445c62.8842,1.9383,115.0364,24.719,162.1124,60.8083l.0415.0324A2.2375,2.2375,0,0,1,335.79,161.78a5.6793,5.6793,0,0,1-1.1264-.5819c-24.8817-16.9073-52.388-28.0822-81.278-35.4194-52.8044-13.41-103.8651-11.2984-149.4387,22.6412-30.0239,22.3594-49.6158,51.7757-56.408,89.2633-13.311,73.4661,40.95,138.4946,116.105,139.8434,45.1632.8107,85.7962-13.637,124.399-34.7973,64.5516-35.3841,118.92-83.5311,170.5424-135.5853C531.6587,133.46,608.93,64.9453,707.6957,26.32,758.1026,6.6061,810.2627-3.8758,864.277,1.3242c112.3279,10.8139,190.6516,86.63,214.8637,184.9843,29.0152,117.8633-39.22,211.0945-131.8218,250.8459-45.9761,19.7362-93.8776,24.7013-143.4343,19.1134-71.16-8.0241-133.2726-37.3554-190.477-78.7425-12.4833-9.0316-24.5805-18.6038-36.6852-28.1445l-.0532-.0426c-2.3578-1.9106.1657-5.6423,2.8745-4.2741q.1373.0692.2718.1441c24.913,13.8783,49.2758,28.83,74.7033,41.68,43.7442,22.1059,90.8449,35.9279,139.2888,38.8313,79.1015,4.7406,149.5431-17.3607,201.6976-81.58,15.374-18.931,27.588-40.224,30.6606-64.4386,2.3239-18.3157,1.2015-37.4449-1.02-55.8952C1015.73,145.598,957.657,84.1752,874.5729,70.3007c-40.6357-6.7865-80.0018.2708-118.5887,12.9114-63.5794,20.8282-118.7809,56.4768-168.86,99.6953C545.6076,218.7363,506.94,257.8409,466.1676,294.56c-40.31,36.3028-83.3941,69.1555-131.4389,94.75-31.0881,16.5613-63.09,31.2724-97.8935,38.6924-58.7008,12.5155-115.4113,10.1889-166.009-26.1454C24.9783,368.9329-2.23,323.834.1435,266.7583,3.6176,183.203,66.1584,113.1524,148.2776,99.9014,158.2494,98.2929,168.4107,97.8656,175.8621,97.1445Z"/><path class="a20021bc-eafc-4001-a00a-aedfa7660d1b" d="M371.6221,298.2226a11.7092,11.7092,0,0,1,.8014,3.3469,2.31,2.31,0,0,1-.7069,1.9327,4.5587,4.5587,0,0,1-2.4987.8487,45.7823,45.7823,0,0,1-4.6667.1885q-2.9232,0-4.6668-.1413a10.5541,10.5541,0,0,1-2.64-.4716,2.7976,2.7976,0,0,1-1.32-.8954,7.2328,7.2328,0,0,1-.8013-1.4143l-10.4651-29.6986H293.9348l-9.994,29.3214a4.9386,4.9386,0,0,1-.7541,1.4612,3.6551,3.6551,0,0,1-1.3672,1.0371,8.39,8.39,0,0,1-2.5454.6129,39.4432,39.4432,0,0,1-4.29.1885,34.6749,34.6749,0,0,1-4.4787-.2358,4.4923,4.4923,0,0,1-2.451-.8953,2.3828,2.3828,0,0,1-.66-1.9327,11.6246,11.6246,0,0,1,.8014-3.3469l40.9179-113.3255a4.9121,4.9121,0,0,1,.99-1.6973,4.0957,4.0957,0,0,1,1.7914-1.0368,13.5906,13.5906,0,0,1,3.0167-.5188q1.8385-.1408,4.6671-.1412,3.0164,0,4.9966.1412a14.8745,14.8745,0,0,1,3.2057.5188,4.222,4.222,0,0,1,1.8859,1.0841,5.08,5.08,0,0,1,1.0367,1.7441ZM319.1076,198.1909h-.094l-21.0249,60.811h42.4264Z"/><path class="a20021bc-eafc-4001-a00a-aedfa7660d1b" d="M620.1306,298.2226a11.7126,11.7126,0,0,1,.8014,3.3469,2.31,2.31,0,0,1-.7069,1.9327,4.56,4.56,0,0,1-2.4988.8487,45.7819,45.7819,0,0,1-4.6668.1885q-2.9232,0-4.6666-.1413a10.5557,10.5557,0,0,1-2.64-.4716,2.7978,2.7978,0,0,1-1.32-.8954,7.2383,7.2383,0,0,1-.8014-1.4143l-10.4652-29.6986H542.4436L532.45,301.24a4.9409,4.9409,0,0,1-.7541,1.4612,3.6551,3.6551,0,0,1-1.3672,1.0371,8.3933,8.3933,0,0,1-2.5454.6129,39.4432,39.4432,0,0,1-4.29.1885,34.6749,34.6749,0,0,1-4.4787-.2358,4.4923,4.4923,0,0,1-2.451-.8953,2.3828,2.3828,0,0,1-.66-1.9327,11.628,11.628,0,0,1,.8015-3.3469l40.918-113.3255a4.91,4.91,0,0,1,.99-1.6973,4.0957,4.0957,0,0,1,1.7914-1.0368,13.5906,13.5906,0,0,1,3.0167-.5188q1.8384-.1408,4.6672-.1412,3.0162,0,4.9965.1412a14.8745,14.8745,0,0,1,3.2057.5188,4.2216,4.2216,0,0,1,1.8858,1.0841,5.078,5.078,0,0,1,1.0368,1.7441ZM567.6163,198.1909h-.0941L546.4976,259.002h42.4263Z"/><path class="a20021bc-eafc-4001-a00a-aedfa7660d1b" d="M728.2376,297.28a7.3724,7.3724,0,0,1-.6341,3.2057,6.3147,6.3147,0,0,1-1.6579,2.1684,6.4051,6.4051,0,0,1-2.292,1.2253,8.877,8.877,0,0,1-2.5342.3775h-5.3628a16.9987,16.9987,0,0,1-4.4372-.5188,9.9031,9.9031,0,0,1-3.6075-1.8854,19.0322,19.0322,0,0,1-3.4134-3.724,49.0652,49.0652,0,0,1-3.6211-6.0343l-37.217-69.39q-2.9189-5.3739-5.8836-11.2666-2.9655-5.891-5.5184-11.4551H651.87q.1875,6.7883.2824,13.8594.093,7.071.0945,14.0474v73.6332a2.3067,2.3067,0,0,1-.3977,1.273,2.51,2.51,0,0,1-1.3434.9427,14.2956,14.2956,0,0,1-2.487.5656,32.8712,32.8712,0,0,1-7.86,0,12.9163,12.9163,0,0,1-2.4369-.5656,2.4936,2.4936,0,0,1-1.2932-.9427,2.303,2.303,0,0,1-.3977-1.273V188.9516q0-3.77,2.14-5.3742a7.6318,7.6318,0,0,1,4.6711-1.6028h7.98a19.9645,19.9645,0,0,1,4.7184.4716,9.85,9.85,0,0,1,3.406,1.5556,13.4394,13.4394,0,0,1,2.92,3.0166,40.9553,40.9553,0,0,1,2.961,4.8558l28.6112,53.5515q2.6426,4.9031,5.1032,9.5692,2.4589,4.6668,4.7376,9.1927t4.51,8.9091q2.2317,4.3845,4.42,8.8155h.0945q-.19-7.4466-.2363-15.5094-.0473-8.06-.0472-15.509V184.7087a2.0925,2.0925,0,0,1,.3977-1.2258,3.1916,3.1916,0,0,1,1.3429-.99,8.8315,8.8315,0,0,1,2.488-.6129,34.68,34.68,0,0,1,4.0287-.1885,32.8262,32.8262,0,0,1,3.78.1885,8.2963,8.2963,0,0,1,2.4889.6129,3.2319,3.2319,0,0,1,1.2937.99,2.1,2.1,0,0,1,.3977,1.2258Z"/><path class="a20021bc-eafc-4001-a00a-aedfa7660d1b" d="M827.677,301.3337a2.8252,2.8252,0,0,1-.3308,1.3671,2.3487,2.3487,0,0,1-1.2721.99,11.5814,11.5814,0,0,1-2.546.6129,29.6288,29.6288,0,0,1-4.1488.2358,41.2541,41.2541,0,0,1-5.3737-.2826,6.9163,6.9163,0,0,1-3.1112-1.0372,7.2181,7.2181,0,0,1-1.6972-1.6973l-44.8773-61v61a2.2651,2.2651,0,0,1-1.6973,2.2157,14.2167,14.2167,0,0,1-2.4978.5656,32.1956,32.1956,0,0,1-7.7789,0,14.1734,14.1734,0,0,1-2.5451-.5656,2.2655,2.2655,0,0,1-1.6964-2.2157V184.4261a2.32,2.32,0,0,1,.3761-1.32,2.5231,2.5231,0,0,1,1.32-.8954,14.3094,14.3094,0,0,1,2.5451-.5656,32.1956,32.1956,0,0,1,7.7789,0,14.35,14.35,0,0,1,2.4978.5656,2.5337,2.5337,0,0,1,1.3212.8954,2.3342,2.3342,0,0,1,.3761,1.32v54.2112l43.18-54.2112a5.6874,5.6874,0,0,1,1.3213-1.4143,5.9076,5.9076,0,0,1,1.8372-.8959,15.8,15.8,0,0,1,2.6406-.5184,34.6855,34.6855,0,0,1,4.007-.1885,26.7527,26.7527,0,0,1,3.96.2358,10.6807,10.6807,0,0,1,2.4042.6129,2.4578,2.4578,0,0,1,1.2249.9427,2.3889,2.3889,0,0,1,.3308,1.2257,5.4466,5.4466,0,0,1-.6125,2.451,22.5362,22.5362,0,0,1-2.31,3.3942l-40.4469,48.366,43.558,57.8884a21.7525,21.7525,0,0,1,1.9316,3.347A4.4536,4.4536,0,0,1,827.677,301.3337Z"/><path class="a20021bc-eafc-4001-a00a-aedfa7660d1b" d="M933.5824,301.5223a2.3236,2.3236,0,0,1-.377,1.32,2.5243,2.5243,0,0,1-1.3194.8954,14.2453,14.2453,0,0,1-2.4986.5656,26.1414,26.1414,0,0,1-3.8182.2358,26.7264,26.7264,0,0,1-3.96-.2358,14.2181,14.2181,0,0,1-2.4516-.5656,2.515,2.515,0,0,1-1.32-.8954,2.3177,2.3177,0,0,1-.377-1.32V247.4056H861.93v54.1167a2.3318,2.3318,0,0,1-.377,1.32,2.5227,2.5227,0,0,1-1.32.8954,14.2254,14.2254,0,0,1-2.4988.5656,32.1873,32.1873,0,0,1-7.7779,0,14.1753,14.1753,0,0,1-2.5451-.5656,2.5106,2.5106,0,0,1-1.32-.8954,2.3177,2.3177,0,0,1-.377-1.32V184.4261a2.3208,2.3208,0,0,1,.377-1.32,2.5188,2.5188,0,0,1,1.32-.8954,14.3094,14.3094,0,0,1,2.5451-.5656,32.1873,32.1873,0,0,1,7.7779,0,14.3583,14.3583,0,0,1,2.4988.5656,2.5316,2.5316,0,0,1,1.32.8954,2.3353,2.3353,0,0,1,.377,1.32v48.8371h55.531V184.4261a2.3208,2.3208,0,0,1,.377-1.32,2.5231,2.5231,0,0,1,1.32-.8954,14.3558,14.3558,0,0,1,2.4516-.5656,26.74,26.74,0,0,1,3.96-.2358,26.1553,26.1553,0,0,1,3.8182.2358,14.3877,14.3877,0,0,1,2.4986.5656,2.5322,2.5322,0,0,1,1.3194.8954,2.3284,2.3284,0,0,1,.377,1.32Z"/><path class="a20021bc-eafc-4001-a00a-aedfa7660d1b" d="M1057.0937,298.2226a11.7259,11.7259,0,0,1,.8014,3.3469,2.31,2.31,0,0,1-.7079,1.9327,4.5548,4.5548,0,0,1-2.4978.8487,45.7739,45.7739,0,0,1-4.6678.1885q-2.9225,0-4.6667-.1413a10.5541,10.5541,0,0,1-2.64-.4716,2.8,2.8,0,0,1-1.32-.8954,7.3047,7.3047,0,0,1-.8014-1.4143l-10.4647-29.6986H979.4053l-9.993,29.3214a4.9639,4.9639,0,0,1-.7542,1.4612,3.6634,3.6634,0,0,1-1.3675,1.0371,8.3859,8.3859,0,0,1-2.5461.6129,39.4421,39.4421,0,0,1-4.29.1885,34.66,34.66,0,0,1-4.4777-.2358,4.496,4.496,0,0,1-2.4515-.8953,2.3823,2.3823,0,0,1-.66-1.9327,11.6133,11.6133,0,0,1,.8-3.3469l40.9185-113.3255a4.9084,4.9084,0,0,1,.9894-1.6973,4.1,4.1,0,0,1,1.7918-1.0368,13.5792,13.5792,0,0,1,3.0166-.5188q1.8388-.1408,4.6668-.1412,3.017,0,4.9975.1412a14.8911,14.8911,0,0,1,3.2056.5188,4.2236,4.2236,0,0,1,1.8854,1.0841,5.0762,5.0762,0,0,1,1.0367,1.7441Zm-52.5144-100.0317h-.0945L983.46,259.0019h42.4267Z"/><path class="a20021bc-eafc-4001-a00a-aedfa7660d1b" d="M767.55,377.3188a28.4364,28.4364,0,0,1-2.19-5.1134c-1.1581-5.3192-4.2317-9.5677-7.2854-13.8457a27.8656,27.8656,0,0,0-2.3645-2.5648c-.3153.4215-.5232.67-.7.94a15.0125,15.0125,0,0,1-19.5837,5.1811,24.9135,24.9135,0,0,1-9.0605-8.2871c-5.199-7.4992-8.2918-15.9125-10.557-24.6728a3.5112,3.5112,0,0,1-.0065-.7524c1.8178.3842,3.0193.9613,3.5653,3.01a39.5718,39.5718,0,0,0,8.0949,15.9023,20.8323,20.8323,0,0,0,13.4518,7.5386c7.6856.984,11.9841-3.5787,10.4614-11.1808a10.4265,10.4265,0,0,0-2.9453-5.9908c-.9647-.8754-1.7671-1.09-2.7666.2251-2.1822,2.8721-5.0076,4.61-8.8157,3.7842a6.6573,6.6573,0,0,1-5.311-7.2351c.6027-4.0105,3.3684-6.3915,7.1761-6.1783a18.966,18.966,0,0,1,18.1591,17.4257,13.0194,13.0194,0,0,0,1.9991,6.1714c1.3565,2.1145,2.5353,4.343,4.0575,6.4145V325.5963h-50.052v-5.0724H830.3286v4.9212h-10.11V377.31l-.3706.1392c-1.5125-1.7171-3.0635-3.403-4.5063-5.1767a2.7925,2.7925,0,0,1-.2749-1.61c-.0169-6.458.0523-12.9169-.0377-19.3737a10.2992,10.2992,0,0,0-4.0868-7.8748,3.74,3.74,0,0,0-5.2759.3748l0,.0006q-.0437.0505-.0858.1026c-1.7368,1.9979-3.2221,4.2169-4.78,6.3668a70.2164,70.2164,0,0,1-4.1335,5.7917c-3.8921,4.3547-8.8476,4.2346-12.4572-.358a60.9906,60.9906,0,0,1-4.354-7.0637,1.31,1.31,0,0,1,.139-1.1651c.742-.981,1.5866-1.8845,2.5009-2.9429a45.8744,45.8744,0,0,0,2.4,4.81c1.8488,2.7929,3.9354,2.8161,5.9411.1826,1.8527-2.4326,3.7066-4.8665,5.4637-7.3676a3.9811,3.9811,0,0,0,.5811-2.1638,10.8116,10.8116,0,0,0-.4522-2.6676c-1.1406-4.4734-4.0647-6.9319-8.6615-7.2834-1.0718-.0819-2.1511-.0748-3.227-.0879-2.5468-.0316-4.6726-.8742-5.9765-3.1914a2.2647,2.2647,0,0,0-2.3374-1.2483c-2.5992.0879-5.2032.0282-8.0224.0282v51.5815Zm47.3765-35.065V325.6429h-21.494A13.549,13.549,0,0,1,799.47,338.508c.9271-.63,1.5849-1.0582,2.223-1.5141,4.4164-3.1566,6.7642-2.8257,10.2051,1.454.9175,1.1409,1.8236,2.2908,3.0287,3.8059Z"/><path class="a20021bc-eafc-4001-a00a-aedfa7660d1b" d="M922.9345,325.6061H902.0419V376.535l-.3735.17a11.6773,11.6773,0,0,1-1.2908-1.6067,35.1248,35.1248,0,0,1-2.13-4.2394c-3.0982-7.97-9.0151-12.8342-16.9407-15.4848a48.4626,48.4626,0,0,0-5.8888-1.59,4.9069,4.9069,0,0,1-3.2052-1.9148c-2.2588-2.9546-4.6339-5.82-7.2123-9.0318a27.507,27.507,0,0,0,12.3814-1.0211,17.7567,17.7567,0,0,0,8.3155-4.7221,5.3663,5.3663,0,0,0-.9543-8.4181,22.3716,22.3716,0,0,1-13.6589,7.5252,12.5053,12.5053,0,0,1-5.4715-.1945,6.479,6.479,0,0,1-4.3219-7.84c.771-3.5876,6.084-5.43,8.7277-2.911.8262.7874,1.14,2.1123,1.7854,3.3807,2.2761.0463,3.9454-1.5129,5.5394-3.0982,1.5612-1.5527,2.9923-3.2361,4.5412-4.9283,4.6536,3.71,9.0357,7.0757,10.4821,12.8977a8.4846,8.4846,0,0,1-.9974,6.831,18.8185,18.8185,0,0,1-9.7316,7.9437,42.5512,42.5512,0,0,1,15.1839,13.2365v-50.06c2.9,1.0256,3.1219,1.3248,3.2038,4.0085a13.9766,13.9766,0,0,0,.1384,2.0306c.41,2.2918,1.199,2.9218,3.5516,2.9222q14.1049.0014,28.21,0h1.9723v5.1113c-.8573,0-1.6879-.0056-2.5184.001-5.1483.0407-8.4782,2.7915-8.5127,7.8826a126.961,126.961,0,0,0,1.1748,13.996c.5649,5.3942,1.2913,10.7719,1.8422,16.1674a8.9171,8.9171,0,0,1-2.037,6.3246,22.223,22.223,0,0,1-11.8355,8.3737,3.36,3.36,0,0,1-2.6-.4941c-1.3373-1.0267-1.0788-2.0789.4807-2.7868,1.2353-.561,2.5183-1.0229,3.7292-1.63,4.4821-2.2484,6.4107-5.725,5.6179-10.6958-.6046-3.7906-1.5243-7.5338-2.3784-11.2811-1.01-4.4336-1.964-8.858-.8415-13.4192a28.05,28.05,0,0,1,5.1971-10.026C921.745,327.2354,922.2639,326.5186,922.9345,325.6061Z"/><path class="a20021bc-eafc-4001-a00a-aedfa7660d1b" d="M843.5257,323.09c7.0528.048,12.578,8.014,10.4227,15.0331a14.34,14.34,0,0,1-.5127,1.4337c-3.318,7.7529-11.2727,8.8811-16.5522,2.3015-2.565-3.1966-4.11-6.7778-3.1817-10.9965A9.9564,9.9564,0,0,1,843.5257,323.09Zm-6.0623,14.4139c-.0413,3.28,1.4771,4.739,4.27,3.8518a15.181,15.181,0,0,0,7.5-5.2842c1.6494-2.14,1.067-4.0952-1.456-5.1339-4.4643-1.8375-10.1691-.5213-10.3139,6.5663Z"/><path class="a20021bc-eafc-4001-a00a-aedfa7660d1b" d="M835.8549,348.7637c4.2289,4.0613,8.6743,7.9237,12.6321,12.2339,5.0049,5.4506,9.7037,11.1935,14.3114,16.9876.87,1.0936.6955,3.0168,1.003,4.5572l-.5257.2043a13.35,13.35,0,0,1-1.06-.9087,142.5532,142.5532,0,0,0-25.7936-20.8567,2.3872,2.3872,0,0,1-1.1219-1.474c-.0991-3.4336-.0518-6.8715-.0518-10.3079Z"/></svg>