<svg id="eefb5704-ef79-4745-9028-160c375a5e07" xmlns="http://www.w3.org/2000/svg" viewBox="0 0 599.9 164"><defs><style>.cls-1{fill:#85be40;}.cls-2{fill:#3db694;}.cls-3{fill:#5db66a;}.cls-4{fill:#36a849;}</style></defs><path class="cls-1" d="M163.4,139.1a10.2,10.2,0,0,1-6.4-2.4l-54.2-48a11.7,11.7,0,0,1-.8-16.4l49.2-55.1a9.6,9.6,0,0,1,14.3,12.7L121.3,79.3l48.4,42.9a9.5,9.5,0,0,1,1,13.3h-.2a9.2,9.2,0,0,1-7.1,3.4" transform="translate(0 1.2)"/><path class="cls-2" d="M17.1,144a9.6,9.6,0,0,1-9.6-9.6,9.8,9.8,0,0,1,2.5-6.5L52.6,81.3,3.1,36.1a9.5,9.5,0,0,1-.7-13.4h.1a9.5,9.5,0,0,1,13.4-.8l.2.2L71.3,72.4A11.7,11.7,0,0,1,72,88.8L24.3,141a11.4,11.4,0,0,1-7.2,3" transform="translate(0 1.2)"/><path class="cls-3" d="M57.6,125.6a6.1,6.1,0,0,0-6.1,6.1,6.3,6.3,0,0,0,6.1,6.1,6.1,6.1,0,0,0,6.1-6.1h0a6.1,6.1,0,0,0-6.1-6.1" transform="translate(0 1.2)"/><path class="cls-3" d="M149.8,143.4,94.7,94.2a11.7,11.7,0,0,0-16.4.8l-2,2.2h0L54.7,120.8a11.3,11.3,0,0,1,10,2.2,12,12,0,0,1,4,11.1l18.8-20.6L137,157.7a9.7,9.7,0,0,0,13.6-.8,9.6,9.6,0,0,0-.7-13.5h-.1" transform="translate(0 1.2)"/><path class="cls-3" d="M49.5,140a12.2,12.2,0,0,1-3-9.8L31.3,146.6a9.6,9.6,0,1,0,14.1,13.1h0l15.5-16.6A12.2,12.2,0,0,1,49.5,140" transform="translate(0 1.2)"/><path class="cls-4" d="M137.4-1.2a6.1,6.1,0,0,0-6.1,6.1h0a6.3,6.3,0,0,0,6.1,6.1,6.1,6.1,0,0,0,6.1-6.1h0a6,6,0,0,0-5.9-6.1h-.2" transform="translate(0 1.2)"/><path class="cls-4" d="M129.2,13.3a11.7,11.7,0,0,1-3.1-9.8L111,20c0,.1-.1.1-.1.2L86,47.1,36.4,2.8A9.5,9.5,0,0,0,23,4.8a9.5,9.5,0,0,0,.7,12.3L78.8,66.3a11.7,11.7,0,0,0,16.4-.7l29.5-31.8.7-.7,15.3-16.7a12.5,12.5,0,0,1-11.5-3.1" transform="translate(0 1.2)"/><polygon class="cls-1" points="232.4 150.8 218.2 142.8 181.2 59 202.5 50.6 227 106.4 250.5 50.6 271.9 58.8 232.4 150.8"/><path class="cls-1" d="M331,85.7a18.1,18.1,0,0,0-4.9-8.6,13.1,13.1,0,0,0-9.6-3.8,15.8,15.8,0,0,0-10,3.5,20.5,20.5,0,0,0-5.9,8.9Zm-31.8,18.5a17.9,17.9,0,0,0,1.5,7.9,17.4,17.4,0,0,0,4.8,6.3,19.3,19.3,0,0,0,7.4,4.1,26.6,26.6,0,0,0,9.3,1.4,25.9,25.9,0,0,0,12.2-2.7,48,48,0,0,0,11.5-7.9l10.2,17.9a69.9,69.9,0,0,1-16.4,9.8,47,47,0,0,1-19.2,3.8,48.8,48.8,0,0,1-18.9-3.5,39.4,39.4,0,0,1-14.5-9.7,44.3,44.3,0,0,1-9.3-14.7,54.2,54.2,0,0,1-3.3-18.7A51.2,51.2,0,0,1,277.6,80a39.4,39.4,0,0,1,22.5-23.4,48.4,48.4,0,0,1,17.7-3.3,40.2,40.2,0,0,1,14.1,2.8,35,35,0,0,1,12.8,9A48.5,48.5,0,0,1,354,80.9c2.4,6.5,3.6,14.2,3.6,23.3Z" transform="translate(0 1.2)"/><polygon class="cls-1" points="398.2 144.7 374.7 144.7 374.7 20.3 398.2 13 398.2 144.7"/><path class="cls-1" d="M487.6,81.4c-3.5-1.4-6.4-2.6-9-3.4l-6.7-2.1-5.2-1.1a32.5,32.5,0,0,0-4.4-.3q-10.2,0-16.5,6.9c-4.2,4.6-6.3,10.7-6.3,18.2s2.1,13.4,6.4,17.7,10,6.4,17.3,6.4a40,40,0,0,0,10.3-1.4c3.8-1,8.9-2.7,15.5-5.2l9.3,18.8a79.8,79.8,0,0,1-9.6,3.8c-3.3,1.1-6.5,2-9.7,2.8a71.2,71.2,0,0,1-9,1.7,36.4,36.4,0,0,1-7.4.5,51.9,51.9,0,0,1-19.1-3.3,42.7,42.7,0,0,1-14.9-9.2,44.4,44.4,0,0,1-9.7-14.1,49,49,0,0,1-3.5-18.1,53.7,53.7,0,0,1,3.5-19,43,43,0,0,1,24.5-24.4A51.1,51.1,0,0,1,462,53.2c4.2,0,9.4.9,15.7,2.6a154.1,154.1,0,0,1,18.7,6.7Z" transform="translate(0 1.2)"/><path class="cls-1" d="M574,89.6a22.7,22.7,0,0,0-4.7-7.9,23.2,23.2,0,0,0-7.1-5.3,21,21,0,0,0-8.9-2,22.5,22.5,0,0,0-8.8,1.9,24.9,24.9,0,0,0-7.2,5.3,28.4,28.4,0,0,0-4.8,8,29.7,29.7,0,0,0,0,19.8,24.2,24.2,0,0,0,4.8,7.8,21.5,21.5,0,0,0,7.2,5.1,21.1,21.1,0,0,0,17.7,0,22.6,22.6,0,0,0,7.1-5.1,21.5,21.5,0,0,0,4.7-7.8,27.9,27.9,0,0,0,1.7-9.9,25.8,25.8,0,0,0-1.7-9.9m22.3,28a42.3,42.3,0,0,1-9.8,14.5,41.6,41.6,0,0,1-14.8,9.6,49.5,49.5,0,0,1-36.7,0,44.3,44.3,0,0,1-24.5-24.1,45.8,45.8,0,0,1,42.8-64,50.5,50.5,0,0,1,18.4,3.5,44.2,44.2,0,0,1,14.8,9.7,45.9,45.9,0,0,1,9.8,14.5,47.6,47.6,0,0,1,0,36.3" transform="translate(0 1.2)"/></svg>