<svg id="Layer_1" data-name="Layer 1" xmlns="http://www.w3.org/2000/svg" viewBox="0 0 944 333"><defs><style>.cls-1{fill:#414042;}.cls-2{fill:#fff;}.cls-3{fill:#478cbf;}</style></defs><path class="cls-1" d="M463.9,104.3q-26.7,0-41.7,16.8c-10.1,11.2-15.1,25.7-15.1,43.6,0,21,5.1,37,15.4,47.8s23.8,16.3,40.5,16.3a108.3,108.3,0,0,0,24-2.4c7-1.5,11.7-3.1,14-4.7l.7-54.2c0-3.2-8.3-4.6-17.7-4.8a127,127,0,0,0-20,1.8v18.2h10.8l-.2,8.2c0,3-2.9,4.5-8.9,4.5s-11.2-2.5-15.7-7.6-6.9-12.4-6.9-22,2.2-16.9,6.7-21.5,10.2-7,17.4-7a31.1,31.1,0,0,1,9.3,1.5c3.3,1,5.4,1.9,6.5,2.8a5.1,5.1,0,0,0,3.2,1.3c.9,0,2.5-1.2,4.7-3.5s4.2-5.8,5.9-10.5,2.6-8.2,2.6-10.8a32.8,32.8,0,0,0-.2-5.2c-2.4-2.6-6.9-4.7-13.4-6.3a92,92,0,0,0-21.9-2.3Zm106.3,0c-16.4,0-29.7,5.2-40,15.7s-15.5,26-15.5,46.4,5.1,35.8,15.3,46.5,23.4,15.9,39.6,15.9,29.5-5.1,39.8-15.3,15.4-25.8,15.4-46.8-5-36.6-15.1-46.9-23.2-15.5-39.5-15.5Zm229.7,0c-16.4,0-29.7,5.2-40,15.7s-15.5,26-15.5,46.4,5.1,35.8,15.3,46.5,23.4,15.9,39.6,15.9,29.5-5.1,39.8-15.3,15.4-25.8,15.4-46.8-5-36.6-15.1-46.9-23.2-15.5-39.5-15.5Zm-152,1.5a7.2,7.2,0,0,0-5.6,2.5,10,10,0,0,0-2.2,6.9V219.1c0,5.3,2.9,8,8.8,8h29.6q54.4,0,54.4-63.8c0-19.8-4.7-34.4-14.3-43.6s-23.4-13.9-41.8-13.9Zm216.1,0c-2,0-3.4,2.7-4.2,8a65.3,65.3,0,0,0-.5,7.8,68.1,68.1,0,0,0,.5,7.8c.8,5.3,2.2,7.9,4.2,7.9h20.8v87c0,2.3,5.7,3.5,17.1,3.5s17.2-1.2,17.2-3.5v-87h20.2c2,0,3.4-2.6,4.2-7.9a68.1,68.1,0,0,0,.5-7.8,65.3,65.3,0,0,0-.5-7.8c-.8-5.3-2.2-8-4.2-8ZM569.7,137.5c5.6,0,10.2,2.5,14,7.5s5.6,12,5.6,21.3-1.8,16.3-5.5,21.3-8.3,7.4-14.2,7.4a16.7,16.7,0,0,1-14.1-7.3c-3.6-5-5.4-12-5.4-21.2s1.9-16.3,5.7-21.4,8.4-7.6,13.9-7.6Zm229.7,0c5.6,0,10.2,2.5,14,7.5s5.6,12,5.6,21.3-1.8,16.3-5.5,21.3-8.3,7.4-14.2,7.4a16.7,16.7,0,0,1-14.1-7.3c-3.6-5-5.3-12-5.3-21.2s1.8-16.3,5.6-21.4,8.4-7.6,13.9-7.6Zm-126.1,1.2h1.8q11.1,0,16.2,5.1c3.4,3.3,5.1,10.5,5.1,21.5s-1.7,18.9-5,23.7-8.1,7.1-14.4,7.1c-1.8,0-2.8-.4-3.1-1s-.6-2.2-.6-4.6Z"/><path class="cls-2" d="M321.1,225s-.5-3-.8-3l-55.5,5.3a9.2,9.2,0,0,0-8.2,8.4l-1.5,21.9-42.9,3-3-19.8a9,9,0,0,0-8.9-7.7H141.7a9,9,0,0,0-8.9,7.7l-3,19.8-42.9-3-1.5-21.9a9.2,9.2,0,0,0-8.2-8.4L21.7,222c-.3,0-.5,3-.8,3v12l47.1,7.6,1.5,22.1a9.2,9.2,0,0,0,8.4,8.4l59.1,4.2h.7a9,9,0,0,0,8.9-7.7l3-20.4h43l3,20.4a9,9,0,0,0,8.9,7.7h.7l59.1-4.2a9.2,9.2,0,0,0,8.4-8.4l1.5-22.1,47.1-7.6Z"/><path class="cls-3" d="M136.2,5.3c-15.6,3.4-31.1,8.3-45.5,15.6a332.6,332.6,0,0,0,2.8,37.5C87.9,62,81.9,65.1,76.7,69.3s-10.8,8-15.6,12.8A295.7,295.7,0,0,0,30.6,64.4C19.3,76.7,8.7,89.8,0,104.6a296.6,296.6,0,0,0,20.7,29.8h.2V225h.5l55.5,5.4a6,6,0,0,1,5.4,5.5L84,260.4l48.5,3.5,3.3-22.6a5.9,5.9,0,0,1,5.9-5.1h58.6a5.9,5.9,0,0,1,5.9,5.1l3.3,22.6,48.5-3.5,1.7-24.5a6,6,0,0,1,5.4-5.5l55.5-5.4h.5v-7.2h0V134.4h.2A296.6,296.6,0,0,0,342,104.6c-8.7-14.8-19.3-27.9-30.6-40.2a295.7,295.7,0,0,0-30.5,17.7c-4.8-4.8-10.2-8.7-15.6-12.8S254.1,62,248.5,58.4a357.7,357.7,0,0,0,2.9-37.5c-14.5-7.3-30-12.2-45.6-15.6a300.4,300.4,0,0,0-16.9,32.9,118.6,118.6,0,0,0-17.8-1.4h-.2a118.6,118.6,0,0,0-17.8,1.4A300.4,300.4,0,0,0,136.2,5.3ZM20.8,237c0,5.4.1,11.2.1,12.4,0,52.7,66.9,78.1,150,78.4h.2c83.1-.3,150-25.7,150-78.4,0-1.2.1-7,.1-12.4l-49.9,4.8-1.8,24.6A5.9,5.9,0,0,1,264,272l-59.1,4.2h-.5a6,6,0,0,1-5.9-5.1l-3.4-23H146.9l-3.4,23a6,6,0,0,1-6.4,5.1L78,272a5.9,5.9,0,0,1-5.5-5.6l-1.8-24.6L20.8,237Z"/><path class="cls-2" d="M92.3,137.8a33.5,33.5,0,1,0,33.5,33.4A33.4,33.4,0,0,0,92.3,137.8Zm157.4,0a33.5,33.5,0,1,0,33.5,33.4A33.3,33.3,0,0,0,249.7,137.8ZM171,157.3c-6,0-10.8,4.4-10.8,9.8v30.8c0,5.4,4.8,9.8,10.8,9.8s10.8-4.4,10.8-9.8V167.1C181.8,161.7,176.9,157.3,171,157.3Z"/><path class="cls-1" d="M95.5,151a22.2,22.2,0,1,0,22.2,22.2A22.1,22.1,0,0,0,95.5,151Zm151,0a22.2,22.2,0,1,0,22.2,22.2A22.1,22.1,0,0,0,246.5,151Z"/></svg>