<svg id="eefb5704-ef79-4745-9028-160c375a5e07" data-name="layer" xmlns="http://www.w3.org/2000/svg" viewBox="0 0 599.9226 174.5686">
    <defs>
        <style>.b9b24484-310f-4184-89ac-31f171dd0a1a{fill:#85be40;}.e21e237b-2abe-47b5-8cc8-bf46e6579556{fill:#3db694;}.ae52f1a0-e779-4774-8a8f-c697fa21d6f5{fill:#5db66a;}.af2b4467-f697-4887-942f-e430547fde17{fill:#36a849;}</style>
    </defs>
    <path class="b9b24484-310f-4184-89ac-31f171dd0a1a" d="M184.9,163.6a9.8077,9.8077,0,0,1-6.4-2.4l-54.2-48a11.66,11.66,0,0,1-.8-16.4l49.2-55.1A9.5627,9.5627,0,0,1,187,54.4l-44.2,49.4,48.4,42.9a9.5252,9.5252,0,0,1,.8,13.5,8.9846,8.9846,0,0,1-7.1,3.4" transform="translate(-21.4774 -12.7)" />
    <path class="e21e237b-2abe-47b5-8cc8-bf46e6579556" d="M38.6,168.5a9.5984,9.5984,0,0,1-7.1-16.1l42.6-46.6L24.6,60.6A9.5169,9.5169,0,0,1,24,47.1a9.6332,9.6332,0,0,1,13.6-.6L92.8,96.9a11.659,11.659,0,0,1,.7,16.4L45.8,165.5a10.588,10.588,0,0,1-7.2,3" transform="translate(-21.4774 -12.7)" />
    <path class="ae52f1a0-e779-4774-8a8f-c697fa21d6f5" d="M79.1,150.1a6.1,6.1,0,1,0,6.1,6.1,6.1243,6.1243,0,0,0-6.1-6.1" transform="translate(-21.4774 -12.7)" />
    <path class="ae52f1a0-e779-4774-8a8f-c697fa21d6f5" d="M171.3,167.9l-55.1-49.2a11.7577,11.7577,0,0,0-16.4.8l-2,2.2h0L76.2,145.3a11.7456,11.7456,0,0,1,10,2.2,11.9218,11.9218,0,0,1,4,11.1S103,144.5,109,138l49.5,44.2a9.6177,9.6177,0,0,0,6.4,2.4,9.8015,9.8015,0,0,0,7.2-3.2,9.5252,9.5252,0,0,0-.8-13.5" transform="translate(-21.4774 -12.7)" />
    <path class="ae52f1a0-e779-4774-8a8f-c697fa21d6f5" d="M71,164.5a11.905,11.905,0,0,1-3-9.8L52.8,171.1a9.6231,9.6231,0,1,0,14.1,13.1c6.5-7,15.5-16.6,15.5-16.6A11.8945,11.8945,0,0,1,71,164.5" transform="translate(-21.4774 -12.7)" />
    <path class="af2b4467-f697-4887-942f-e430547fde17" d="M158.9,23.3a6.1,6.1,0,1,0,6.1,6.1,6.0607,6.0607,0,0,0-6.1-6.1" transform="translate(-21.4774 -12.7)" />
    <path class="af2b4467-f697-4887-942f-e430547fde17" d="M150.7,37.8a11.627,11.627,0,0,1-3.1-9.8L132.5,44.5c0,.1-.1.1-.1.2L107.5,71.6,57.9,27.3A9.5627,9.5627,0,0,0,45.2,41.6l55.1,49.2a11.5694,11.5694,0,0,0,7.8,3,11.89,11.89,0,0,0,8.6-3.7l29.5-31.8a4.62,4.62,0,0,0,.7-.7c6.4-7,15.3-16.7,15.3-16.7a12.07,12.07,0,0,1-11.5-3.1" transform="translate(-21.4774 -12.7)" />
    <polygon class="b9b24484-310f-4184-89ac-31f171dd0a1a" points="232.423 137.8 218.223 129.8 181.223 46 202.523 37.6 227.023 93.4 250.523 37.6 271.923 45.8 232.423 137.8" />
    <path class="b9b24484-310f-4184-89ac-31f171dd0a1a" d="M352.5,86.6a19.1258,19.1258,0,0,0-4.9-8.6,12.7239,12.7239,0,0,0-9.6-3.8,15.0462,15.0462,0,0,0-10,3.5,19.67,19.67,0,0,0-5.9,8.9Zm-31.8,18.5a17.17,17.17,0,0,0,1.5,7.9,18.2552,18.2552,0,0,0,4.8,6.3,21.384,21.384,0,0,0,7.4,4.1,28.308,28.308,0,0,0,9.3,1.4,27.6155,27.6155,0,0,0,12.2-2.7,52.7051,52.7051,0,0,0,11.5-7.9l10.2,17.9a72.7189,72.7189,0,0,1-16.4,9.8,47.6937,47.6937,0,0,1-19.2,3.8,50.0815,50.0815,0,0,1-18.9-3.5,41.9989,41.9989,0,0,1-14.5-9.7,42.8732,42.8732,0,0,1-9.3-14.7A51.383,51.383,0,0,1,296,99.1a51.1515,51.1515,0,0,1,3.1-18.2,39.3968,39.3968,0,0,1,22.5-23.4,46.4746,46.4746,0,0,1,17.7-3.3A37.6771,37.6771,0,0,1,353.4,57a34.44,34.44,0,0,1,12.8,9,47.5313,47.5313,0,0,1,9.3,15.8c2.4,6.5,3.6,14.2,3.6,23.3H320.7Z" transform="translate(-21.4774 -12.7)" />
    <polygon class="b9b24484-310f-4184-89ac-31f171dd0a1a" points="398.223 131.7 374.723 131.7 374.723 7.3 398.223 0 398.223 131.7" />
    <path class="b9b24484-310f-4184-89ac-31f171dd0a1a" d="M509.1,82.3c-3.5-1.4-6.4-2.6-9-3.4s-4.7-1.5-6.7-2.1a49.2909,49.2909,0,0,0-5.2-1.1,33.6624,33.6624,0,0,0-4.4-.3q-10.2,0-16.5,6.9c-4.2,4.6-6.3,10.7-6.3,18.2s2.1,13.4,6.4,17.7c4.2,4.3,10,6.4,17.3,6.4a45.1552,45.1552,0,0,0,10.3-1.4c3.8-1,8.9-2.7,15.5-5.2l9.3,18.8a100.8521,100.8521,0,0,1-9.6,3.8c-3.3,1.1-6.5,2-9.7,2.8a82.8745,82.8745,0,0,1-9,1.7,51.8939,51.8939,0,0,1-7.4.5,53.5762,53.5762,0,0,1-19.1-3.3,45.1043,45.1043,0,0,1-14.9-9.2,43.7942,43.7942,0,0,1-9.7-14.1,46.3524,46.3524,0,0,1-3.5-18.1,50.9792,50.9792,0,0,1,3.5-19,44.2464,44.2464,0,0,1,9.7-14.8,43.0381,43.0381,0,0,1,14.8-9.6,49.2284,49.2284,0,0,1,18.6-3.4c4.2,0,9.4.9,15.7,2.6a135.0528,135.0528,0,0,1,18.7,6.7Z" transform="translate(-21.4774 -12.7)" />
    <path class="b9b24484-310f-4184-89ac-31f171dd0a1a" d="M595.5,90.5a24.0333,24.0333,0,0,0-4.7-7.9,23.1678,23.1678,0,0,0-7.1-5.3,20.0638,20.0638,0,0,0-8.9-2,20.502,20.502,0,0,0-8.8,1.9,23.1639,23.1639,0,0,0-7.2,5.3,26.6268,26.6268,0,0,0-4.8,8,28.9814,28.9814,0,0,0-1.7,9.9,28.5631,28.5631,0,0,0,1.7,9.9,22.2343,22.2343,0,0,0,4.8,7.8,23.4718,23.4718,0,0,0,7.2,5.1,21.5606,21.5606,0,0,0,17.7,0,25.6661,25.6661,0,0,0,7.1-5.1,22.5943,22.5943,0,0,0,4.7-7.8,28.9814,28.9814,0,0,0,1.7-9.9,26.4086,26.4086,0,0,0-1.7-9.9m22.3,28A44.2271,44.2271,0,0,1,608,133a43.0381,43.0381,0,0,1-14.8,9.6,48.984,48.984,0,0,1-18.4,3.5,47.7257,47.7257,0,0,1-18.3-3.5,45.636,45.636,0,0,1-14.7-9.6,42.7415,42.7415,0,0,1-9.8-14.5,47.5528,47.5528,0,0,1,0-36.3,45.8227,45.8227,0,0,1,9.8-14.5,46.2589,46.2589,0,0,1,33-13.2A48.6079,48.6079,0,0,1,593.2,58,42.7793,42.7793,0,0,1,608,67.7a46.9753,46.9753,0,0,1,9.8,14.5,47.5528,47.5528,0,0,1,0,36.3" transform="translate(-21.4774 -12.7)" />
</svg>