<svg id="e504d270-fbad-446b-9888-d0f587843631" data-name="Layer 1" xmlns="http://www.w3.org/2000/svg" viewBox="0 0 1820.0787 370.3681">
    <defs>
        <style>.a485bb81-19aa-45e8-8c9c-93a8bb7ed9ac{fill:#24344c;}.b9bfcc0d-8268-4760-bf47-814434fc972f{fill:#61c779;}</style>
    </defs>
    <path class="a485bb81-19aa-45e8-8c9c-93a8bb7ed9ac" d="M587.5985,518.8827c13.3462,0,25.4792-6.6732,36.0956-20.0195l23.9627,26.6926c-18.5029,19.4128-38.5223,28.8159-60.0584,28.8159S547.8628,547.3952,533,533.7456,510.5539,502.2,510.5539,480.36q0-33.2141,22.7493-53.6886c14.8629-13.953,33.0625-20.6261,53.6886-20.6261a84.8634,84.8634,0,0,1,31.5458,6.37,76.5082,76.5082,0,0,1,27.9059,19.1094L625.514,458.8243a47.3373,47.3373,0,0,0-16.9862-12.74,48.0246,48.0246,0,0,0-20.0195-4.55,40.1753,40.1753,0,0,0-27.2992,10.313c-7.5831,6.9765-11.223,16.38-11.223,28.5126s3.9432,21.5361,11.223,28.5125A38.7294,38.7294,0,0,0,587.5985,518.8827Zm126.79-44.2855v77.6512H674.3494V353.5705h40.0389v70.6747c12.133-12.4363,25.7826-18.5028,40.9489-18.5028a51.78,51.78,0,0,1,38.219,16.0762q15.4695,15.9245,15.47,42.7688V551.945h-40.039V473.3838c0-22.1427-8.19-33.0624-24.266-33.0624a28.4487,28.4487,0,0,0-20.9294,8.7964C717.4216,455.1844,714.3883,463.6775,714.3883,474.5972Zm255.7031,57.0252c-16.0762,15.47-35.1857,23.0527-57.0251,23.0527s-40.0389-6.6732-54.2952-20.0195c-14.2563-13.65-21.2327-31.5458-21.2327-54.2951s7.28-40.6456,21.8394-53.9919,31.5458-20.0194,51.5653-20.0194,36.7023,6.0665,50.352,17.8961c13.9529,12.133,20.626,28.2092,20.626,49.1387v21.2328H876.9706c1.2133,7.8864,5.46,14.2563,12.4364,19.4128a40.4866,40.4866,0,0,0,23.3561,7.5831c14.2563,0,25.7826-4.55,34.8823-14.2563Zm-38.5223-85.5377a30.92,30.92,0,0,0-20.0195-6.9765,36.3468,36.3468,0,0,0-21.84,7.28c-6.6731,4.8532-10.6163,11.2231-11.5263,19.4128h63.0916C940.3655,457.3077,937.029,450.6345,931.5691,446.0847Zm148.3259,72.798c13.3463,0,25.4793-6.6732,36.0957-20.0195l23.9626,26.6926c-18.5028,19.4128-38.5223,28.8159-60.0583,28.8159s-39.7356-6.9765-54.5985-20.6261-22.446-31.5458-22.446-53.3852q0-33.2141,22.7493-53.6886c14.8629-13.953,33.0625-20.6261,53.6886-20.6261a84.8634,84.8634,0,0,1,31.5458,6.37A76.5066,76.5066,0,0,1,1138.74,431.525l-20.9294,27.2993a47.3373,47.3373,0,0,0-16.9862-12.74,48.025,48.025,0,0,0-20.0195-4.55,40.1753,40.1753,0,0,0-27.2992,10.313c-7.5831,6.9765-11.2231,16.38-11.2231,28.5126s3.9432,21.5361,11.2231,28.5125A37.6644,37.6644,0,0,0,1079.895,518.8827Zm126.79,33.3657H1166.646V353.5705h40.0389V455.4878l44.5889-47.6221h50.6553l-54.9019,58.2384,57.0251,85.841H1256.43L1219.7279,496.74l-13.043,13.65Zm237.5035,0h-37.6123V534.9589c-10.313,13.0429-23.0527,19.4128-38.2189,19.4128-15.47,0-27.906-4.2466-38.219-13.043s-15.47-20.626-15.47-35.1857,5.46-25.7826,16.0762-33.0624,25.4793-10.92,43.6788-10.92h30.0291v-.91c0-15.47-8.19-23.0527-24.266-23.0527a60.7392,60.7392,0,0,0-22.1427,4.2465,67.155,67.155,0,0,0-19.7161,10.3131l-17.8962-26.086c18.8062-13.65,40.6456-20.6261,64.9116-20.6261,17.5928,0,31.8491,4.2466,42.7688,13.043s16.6829,22.446,16.6829,41.5555v91.9075h-.6066ZM1403.8462,497.65v-6.9764H1378.67c-16.0762,0-24.266,4.8532-24.266,14.8629,0,5.1566,1.82,9.1,5.7631,11.83s9.4031,4.2465,16.38,4.2465a29.39,29.39,0,0,0,18.8062-6.37A21.1448,21.1448,0,0,0,1403.8462,497.65Zm160.1557-91.6042c17.5928,0,32.7591,6.9765,45.802,20.6261s19.4129,31.2424,19.4129,52.7785c0,21.2328-6.6732,39.4323-20.0194,53.6886-13.3463,14.56-28.5126,21.5361-45.802,21.5361s-31.2424-6.9764-42.4655-21.2327v19.1094H1480.891V353.5705H1520.93v70.6747C1532.1528,412.1122,1546.4089,406.0457,1564.0019,406.0457Zm-43.3756,74.618c0,11.5263,3.3365,21.2328,9.7064,28.5125s14.2563,11.2231,23.6594,11.2231,17.29-3.64,24.266-11.2231c6.9764-7.28,10.6163-16.6828,10.6163-28.5125s-3.3365-21.2327-10.3131-29.1192-14.863-11.83-24.266-11.83-17.5928,3.9432-23.9628,11.5263C1523.963,459.1276,1520.6263,468.834,1520.6263,480.6637Zm178.6585,71.5847h-40.0389V353.5705h40.0389Zm162.8856-20.626c-16.0762,15.47-35.1856,23.0527-57.025,23.0527s-40.039-6.6732-54.2953-20.0195c-14.2563-13.65-21.2328-31.5458-21.2328-54.2951s7.28-40.6456,21.84-53.9919,31.5459-20.0194,51.5652-20.0194,36.7023,6.0665,50.3519,17.8961S1874,452.4545,1874,473.384v21.2328H1769.05c1.2134,7.8864,5.46,14.2563,12.4363,19.4128a40.4868,40.4868,0,0,0,23.356,7.5831c14.2563,0,25.7827-4.55,34.8824-14.2563Zm-38.5223-85.5377a30.9192,30.9192,0,0,0-20.0194-6.9765,36.3469,36.3469,0,0,0-21.8394,7.28c-6.6732,4.8532-10.6164,11.2231-11.5263,19.4128h63.0916C1832.1412,457.3077,1829.1079,450.6345,1823.6481,446.0847Zm-1216.03,238.11q-14.1046,13.65-34.579,13.65-20.9295,0-34.5791-13.65c-9.403-9.1-13.9529-20.626-13.9529-34.2756s4.55-24.8727,13.9529-34.2757q14.1046-13.65,34.5791-13.65,20.9295,0,34.579,13.65c9.4031,9.1,13.953,20.626,13.953,34.2757S616.7177,675.0951,607.6179,684.1948Zm-11.5263-57.6317a31.3927,31.3927,0,0,0-23.0528-9.7065,30.91,30.91,0,0,0-23.0527,9.7065c-6.37,6.37-9.4031,14.56-9.4031,23.9626a33.1846,33.1846,0,0,0,9.4031,23.9627,31.3925,31.3925,0,0,0,23.0527,9.7064,30.9094,30.9094,0,0,0,23.0528-9.7064c6.37-6.37,9.4031-14.56,9.4031-23.9627C605.4946,640.8194,602.4614,632.9329,596.0916,626.5631Zm107.68-13.953c6.37,5.46,9.7064,13.65,9.7064,24.8727s-3.3366,19.4128-9.7064,24.5694-16.6829,7.8864-30.3325,7.8864H657.06v27.2993H641.287V604.7237h31.8492C687.0891,604.7236,697.4021,607.4536,703.772,612.61Zm-11.2231,38.219q4.55-5.0049,4.55-14.56c0-6.37-2.1232-10.92-6.0665-13.65s-10.313-3.9432-18.8061-3.9432H656.4533v37.0057h18.1995C683.7525,655.9857,689.5157,654.1657,692.5489,650.8291Zm104.3439-46.1055v14.56h-49.442v24.5694h44.2855v13.9529H747.4508v24.8727h50.9586v14.56H731.6779V604.7236Zm90.6941,0H903.36v92.5142H886.3736l-52.4752-67.6415v67.6415H818.1255V604.7236h15.7729l53.6886,69.1581V604.7236Zm37.9157,59.7551v-13.65h43.9821v13.953H925.5026Zm93.4241-47.6221a21.2146,21.2146,0,0,0-11.223,2.73c-3.0333,1.82-4.2466,4.55-4.2466,8.19a10.3856,10.3856,0,0,0,4.2466,8.7964c2.73,2.1232,9.1,4.2465,18.8062,6.37,9.4031,2.4266,16.6828,5.46,21.5361,9.7065s7.28,10.313,7.28,18.2a24.8753,24.8753,0,0,1-9.1,19.7161c-6.0665,4.8532-13.953,7.5831-23.9627,7.5831-14.5595,0-27.2992-4.8532-38.5223-14.8629l9.7065-11.83c9.403,8.19,19.1094,12.1331,29.1192,12.1331,4.8532,0,9.1-.91,12.133-3.0333a9.92,9.92,0,0,0,4.55-8.7964c0-3.64-1.2133-6.37-4.2466-8.19-2.73-2.1233-7.5831-3.9432-14.2563-5.46q-10.4646-2.2751-15.47-4.55a26.4449,26.4449,0,0,1-9.4031-5.46q-8.19-6.37-8.19-19.11c0-8.493,3.0333-15.1662,9.4031-19.7161,6.0665-4.55,13.953-6.9764,23.0527-6.9764a59.0745,59.0745,0,0,1,17.5928,2.73c5.7632,2.1233,10.92,4.55,15.1663,8.19l-8.19,11.83a30.1048,30.1048,0,0,0-11.2231-6.0665A52.7753,52.7753,0,0,0,1018.9267,616.8566Zm132.8564,67.3382q-14.1046,13.65-34.5791,13.65-20.9294,0-34.579-13.65c-9.4031-9.1-13.953-20.626-13.953-34.2756s4.55-24.8727,13.953-34.2757q14.1046-13.65,34.579-13.65,20.9295,0,34.5791,13.65c9.4031,9.1,13.953,20.626,13.953,34.2757S1161.1862,675.0951,1151.7831,684.1948ZM1140.56,626.5631a31.3924,31.3924,0,0,0-23.0527-9.7065,30.9093,30.9093,0,0,0-23.0527,9.7065c-6.37,6.37-9.4031,14.56-9.4031,23.9626a33.1842,33.1842,0,0,0,9.4031,23.9627,31.3922,31.3922,0,0,0,23.0527,9.7064,30.9094,30.9094,0,0,0,23.0527-9.7064c6.37-6.37,9.4031-14.56,9.4031-23.9627C1149.66,640.8194,1146.6265,632.9329,1140.56,626.5631Zm65.8216,49.4419q6.37,7.28,17.29,7.28t17.29-7.28q6.37-7.28,6.37-20.0194v-51.262h15.7729v51.8686q0,20.0194-10.92,30.9392t-28.2092,10.92q-17.2894,0-28.2092-10.92t-10.92-30.9392V604.7236h15.7729v51.262C1200.0118,664.4787,1202.1351,671.1519,1206.3816,676.005Zm154.6958-41.2521c0,15.47-6.6732,24.8727-20.0195,28.8159l24.266,33.6691h-19.7161l-22.1427-31.2425H1302.839v31.2425h-15.7729V604.7237h34.579c14.2563,0,24.266,2.4266,30.3325,7.28Q1361.0774,618.8284,1361.0774,634.7529Zm-20.6261,13.0429c3.0333-2.73,4.8532-7.28,4.8532-13.0429s-1.5166-10.313-4.8532-12.4363c-3.3366-2.4266-9.1-3.3366-17.5928-3.3366h-19.7161v33.0624h19.4128C1331.0482,651.739,1337.1147,650.5257,1340.4513,647.7958Zm85.5376,35.1858a32.7126,32.7126,0,0,0,13.953-2.73,41.95,41.95,0,0,0,12.133-8.7965l10.01,10.3131c-9.7064,10.92-21.5361,16.38-35.7923,16.38s-25.7827-4.55-34.8824-13.65-13.953-20.3228-13.953-34.2757,4.55-25.1759,14.2563-34.579c9.4031-9.1,21.2328-13.953,35.7924-13.953s26.3893,5.46,36.0956,15.7729l-10.01,10.92a41.1086,41.1086,0,0,0-12.4363-8.7964,38.2855,38.2855,0,0,0-13.953-2.4265c-9.4031,0-17.29,3.0332-23.3561,9.1a31.813,31.813,0,0,0-9.4031,23.0527c0,9.4031,3.0333,17.29,9.4031,23.3561C1409.6094,679.9483,1417.1925,682.9816,1425.9889,682.9816Zm120.1168-78.258v14.56h-49.442v24.5694h44.2854v13.9529h-44.2855v24.8727h50.9587v14.56h-66.7315V604.7236Z" transform="translate(-53.9213 -353.5705)" />
    <path class="b9bfcc0d-8268-4760-bf47-814434fc972f" d="M368.9011,408.7757l-64.6083,64.6082c-21.2327-19.4128-46.4087-29.4225-76.1346-26.086-24.266,2.73-44.2854,13.65-60.0583,31.8492-31.2425,36.7023-28.5126,91.3008,5.1565,124.97,31.2425,31.2425,88.5709,41.2523,132.8564-1.5166l64.3049,64.305C320.369,725.75,207.8355,752.14,121.0845,681.4649c-83.7177-68.5514-90.0876-194.128-13.953-271.7792C184.1761,331.4278,303.99,340.5276,368.9011,408.7757Zm-37.6123,128.61c.3033-25.7826,20.6261-46.712,44.8921-46.712A47.7132,47.7132,0,0,1,423.5,539.5088c-.6066,23.9627-22.7494,43.9822-47.9254,43.6788C351.3082,583.1876,330.9855,562.2581,331.2888,537.3855Z" transform="translate(-53.9213 -353.5705)" />
</svg>